M48
; DRILL file {KiCad 9.0.0} date 2025-04-18T01:08:40+1000
; FORMAT={-:-/ absolute / metric / decimal}
; #@! TF.CreationDate,2025-04-18T01:08:40+10:00
; #@! TF.GenerationSoftware,Kicad,Pcbnew,9.0.0
; #@! TF.FileFunction,Plated,1,6,PTH
FMAT,2
METRIC
; #@! TA.AperFunction,Plated,PTH,ViaDrill
T1C0.200
; #@! TA.AperFunction,Plated,PTH,ComponentDrill
T2C0.200
; #@! TA.AperFunction,Plated,PTH,ComponentDrill
T3C0.600
; #@! TA.AperFunction,Plated,PTH,ComponentDrill
T4C0.650
; #@! TA.AperFunction,Plated,PTH,ComponentDrill
T5C0.900
; #@! TA.AperFunction,Plated,PTH,ComponentDrill
T6C1.000
; #@! TA.AperFunction,Plated,PTH,ComponentDrill
T7C1.020
; #@! TA.AperFunction,Plated,PTH,ComponentDrill
T8C1.600
%
G90
G05
T1
X102.75Y-81.95
X104.42Y-67.95
X104.93Y-79.74
X104.97Y-57.67
X105.1Y-58.32
X105.14Y-54.76
X105.21Y-62.41
X105.23Y-63.29
X105.46Y-60.68
X105.64Y-73.49
X105.86Y-71.92
X105.95Y-78.99
X109.11Y-58.38
X109.15Y-75.15
X109.15Y-75.81
X109.18Y-57.64
X109.68Y-53.41
X111.35Y-58.25
X111.35Y-73.41
X111.39Y-56.88
X111.51Y-80.13
X111.95Y-68.22
X112.39Y-61.43
X112.58Y-74.12
X112.795Y-63.195
X113.73Y-76.221
X113.73Y-76.921
X113.74Y-60.21
X113.97Y-73.64
X114.2Y-59.71
X114.25Y-58.01
X115.92Y-75.23
X116.09Y-77.18
X116.12Y-60.01
X116.2Y-58.17
X118.128Y-97.883
X118.292Y-97.115
X119.27Y-78.501
X119.27Y-79.201
X120.03Y-93.72
X129.69Y-77.63
X130.01Y-80.63
X132.255Y-60.515
X132.59Y-86.67
X133.46Y-65.67
X133.85Y-69.59
X134.0Y-66.84
X134.285Y-82.135
X134.47Y-60.3
X134.95Y-66.68
X135.2Y-74.72
X135.31Y-72.73
X135.61Y-76.49
X135.739Y-75.167
X135.95Y-62.91
X136.71Y-84.09
X137.27Y-57.2
X138.56Y-79.74
X138.67Y-64.54
X138.94Y-72.71
X139.859Y-75.209
X140.29Y-74.722
X141.1Y-60.71
X141.81Y-76.59
X142.05Y-76.04
X142.1Y-92.01
X142.295Y-89.07
X143.52Y-66.8
X143.585Y-89.08
X143.62Y-62.34
X144.595Y-89.54
X144.76Y-92.11
X145.21Y-72.37
X145.26Y-65.58
X145.35Y-67.48
X146.08Y-82.61
X146.95Y-65.58
X147.36Y-66.23
X147.88Y-69.261
X147.96Y-82.56
X148.42Y-85.51
X148.59Y-67.3
X148.61Y-61.22
X148.92Y-69.09
X149.058Y-71.954
X149.28Y-88.21
X149.54Y-67.4
X149.73Y-69.812
X150.36Y-74.817
X150.58Y-85.14
X150.71Y-76.29
X150.725Y-73.095
X151.35Y-64.585
X151.42Y-87.15
X151.46Y-62.73
X151.505Y-80.275
X151.51Y-71.48
X151.51Y-76.3
X151.52Y-73.06
X151.53Y-74.7
X151.58Y-66.37
X152.13Y-82.79
X152.29Y-73.89
X152.305Y-81.085
X152.305Y-76.275
X152.31Y-72.29
X152.31Y-77.08
X152.33Y-77.87
X152.34Y-79.48
X152.35Y-92.94
X152.677Y-70.535
X153.115Y-80.295
X153.12Y-75.46
X153.123Y-79.487
X153.14Y-76.3
X153.17Y-92.39
X153.18Y-73.15
X153.21Y-82.582
X153.323Y-70.606
X153.54Y-65.01
X153.9Y-73.86
X153.93Y-75.51
X153.96Y-72.25
X154.207Y-83.67
X154.665Y-73.835
X154.685Y-77.925
X154.69Y-76.318
X154.711Y-77.119
X154.725Y-74.695
X154.73Y-72.29
X154.733Y-78.68
X154.74Y-73.11
X154.96Y-84.58
X155.199Y-69.705
X155.34Y-76.3
X155.43Y-77.96
X155.44Y-81.04
X155.466Y-82.9
X155.494Y-73.912
X155.54Y-78.73
X155.577Y-68.455
X155.91Y-64.6
X156.01Y-67.15
X156.075Y-65.19
X156.267Y-79.496
X156.29Y-72.26
X156.32Y-73.89
X156.34Y-60.19
X156.35Y-80.3
X156.52Y-76.29
X156.54Y-90.25
X156.55Y-87.52
X156.598Y-69.65
X156.66Y-85.41
X157.11Y-77.9
X157.12Y-73.07
X157.12Y-78.71
X157.272Y-79.423
X157.602Y-82.95
X157.9Y-73.07
X157.91Y-74.68
X157.92Y-71.45
X157.927Y-78.645
X157.955Y-77.855
X157.96Y-70.16
X157.978Y-80.292
X158.045Y-77.043
X158.45Y-90.4
X158.55Y-85.02
X158.69Y-80.28
X158.7Y-81.05
X158.71Y-73.12
X158.72Y-75.49
X158.73Y-79.48
X158.737Y-77.907
X158.755Y-77.125
X158.933Y-78.781
X158.96Y-84.33
X159.27Y-93.95
X159.38Y-69.98
X159.46Y-71.5
X159.5Y-72.3
X159.51Y-81.09
X159.53Y-79.49
X159.54Y-77.1
X159.54Y-77.9
X159.64Y-85.51
X159.77Y-91.54
X160.21Y-67.53
X160.28Y-79.52
X160.29Y-81.06
X160.32Y-84.91
X160.34Y-72.27
X161.09Y-90.59
X161.12Y-81.08
X161.23Y-92.067
X161.61Y-85.34
X162.44Y-86.65
X162.57Y-75.35
X162.78Y-77.24
X162.835Y-87.565
X163.541Y-81.509
X164.09Y-70.26
X164.205Y-89.525
X164.38Y-85.36
X164.431Y-82.399
X164.71Y-83.39
X165.49Y-84.51
X165.55Y-91.24
X165.83Y-72.86
X166.02Y-86.93
X166.52Y-63.88
X166.89Y-89.07
X166.99Y-70.57
X167.19Y-62.86
X167.34Y-89.84
X167.742Y-84.078
X167.8Y-79.92
X167.88Y-73.2
X168.043Y-90.293
X168.17Y-78.64
X168.343Y-83.0
X168.537Y-90.787
X168.73Y-67.2
X168.79Y-80.51
X168.9Y-81.544
X169.24Y-73.23
X169.66Y-61.84
X169.675Y-79.74
X169.705Y-89.88
X170.28Y-65.94
X170.61Y-73.2
X170.62Y-84.36
X170.82Y-90.42
X171.19Y-70.28
X171.339Y-89.914
X171.805Y-84.275
X172.03Y-79.595
X172.153Y-72.6
X172.24Y-85.0
X172.92Y-76.64
X173.16Y-89.71
X173.21Y-84.826
X173.57Y-66.99
X173.66Y-87.12
X173.81Y-83.735
X173.99Y-79.575
X174.27Y-85.51
X177.74Y-97.1
T2
X169.005Y-86.835
X169.005Y-88.235
X169.705Y-87.535
X170.405Y-86.835
X170.405Y-88.235
T4
X163.3Y-94.28
X164.57Y-94.28
X165.84Y-94.28
X167.11Y-94.28
X168.38Y-94.28
X169.65Y-94.28
X170.92Y-94.28
T5
X111.93Y-90.375
X111.93Y-92.915
X111.93Y-95.455
X111.93Y-97.995
X114.47Y-91.645
X114.47Y-94.185
X114.47Y-96.725
X114.47Y-99.265
T6
X96.695Y-66.75
X99.235Y-66.75
X101.775Y-66.75
X119.2Y-54.67
X119.23Y-101.03
X121.74Y-54.67
X121.77Y-101.03
X124.28Y-54.67
X124.31Y-101.03
X126.82Y-54.67
X126.85Y-101.03
X129.36Y-54.67
X129.39Y-101.03
X131.9Y-54.67
X131.93Y-101.03
X134.44Y-54.67
X134.47Y-101.03
X136.98Y-54.67
X137.01Y-101.03
X139.52Y-54.67
X139.55Y-101.03
X142.06Y-54.67
X142.09Y-101.03
X144.6Y-54.67
X144.63Y-101.03
X146.135Y-96.2
X148.675Y-96.2
X151.215Y-96.2
X153.2Y-54.67
X153.2Y-101.03
X155.74Y-54.67
X155.74Y-101.03
X158.28Y-54.67
X158.28Y-101.03
X160.82Y-54.67
X160.82Y-101.03
X163.36Y-54.67
X163.36Y-101.03
X165.9Y-54.67
X165.9Y-101.03
X168.44Y-54.67
X168.44Y-101.03
X170.98Y-54.67
X170.98Y-101.03
X173.52Y-54.67
X173.52Y-101.03
X176.06Y-54.67
X176.06Y-101.03
X178.6Y-54.67
X178.6Y-63.875
X178.6Y-66.415
X178.6Y-68.955
X178.6Y-71.495
X178.6Y-74.035
X178.6Y-76.575
X178.6Y-79.115
X178.6Y-81.655
X178.6Y-84.195
X178.6Y-86.735
X178.6Y-89.275
X178.6Y-91.815
X178.6Y-101.03
T7
X100.5Y-88.495
X100.5Y-98.578
X102.2Y-91.062
X102.2Y-101.145
T8
X108.63Y-87.07
X108.63Y-102.57
T3
G00X98.3Y-53.86
M15
G01X97.7Y-53.86
M16
G05
G00X98.3Y-62.5
M15
G01X97.7Y-62.5
M16
G05
G00X98.3Y-71.0
M15
G01X97.7Y-71.0
M16
G05
G00X98.3Y-79.64
M15
G01X97.7Y-79.64
M16
G05
G00X102.73Y-53.86
M15
G01X101.63Y-53.86
M16
G05
G00X102.73Y-62.5
M15
G01X101.63Y-62.5
M16
G05
G00X102.73Y-71.0
M15
G01X101.63Y-71.0
M16
G05
G00X102.73Y-79.64
M15
G01X101.63Y-79.64
M16
G05
M30
