%TF.GenerationSoftware,KiCad,Pcbnew,9.0.0*%
%TF.CreationDate,2025-04-18T01:08:42+10:00*%
%TF.ProjectId,Teensy_4.1_attempt_1,5465656e-7379-45f3-942e-315f61747465,rev?*%
%TF.SameCoordinates,Original*%
%TF.FileFunction,Legend,Bot*%
%TF.FilePolarity,Positive*%
%FSLAX46Y46*%
G04 Gerber Fmt 4.6, Leading zero omitted, Abs format (unit mm)*
G04 Created by KiCad (PCBNEW 9.0.0) date 2025-04-18 01:08:42*
%MOMM*%
%LPD*%
G01*
G04 APERTURE LIST*
%ADD10C,0.150000*%
%ADD11C,0.120000*%
G04 APERTURE END LIST*
D10*
X168486077Y-58870435D02*
X167914649Y-58870435D01*
X168200363Y-59870435D02*
X168200363Y-58870435D01*
X167200363Y-59822816D02*
X167295601Y-59870435D01*
X167295601Y-59870435D02*
X167486077Y-59870435D01*
X167486077Y-59870435D02*
X167581315Y-59822816D01*
X167581315Y-59822816D02*
X167628934Y-59727577D01*
X167628934Y-59727577D02*
X167628934Y-59346625D01*
X167628934Y-59346625D02*
X167581315Y-59251387D01*
X167581315Y-59251387D02*
X167486077Y-59203768D01*
X167486077Y-59203768D02*
X167295601Y-59203768D01*
X167295601Y-59203768D02*
X167200363Y-59251387D01*
X167200363Y-59251387D02*
X167152744Y-59346625D01*
X167152744Y-59346625D02*
X167152744Y-59441863D01*
X167152744Y-59441863D02*
X167628934Y-59537101D01*
X166343220Y-59822816D02*
X166438458Y-59870435D01*
X166438458Y-59870435D02*
X166628934Y-59870435D01*
X166628934Y-59870435D02*
X166724172Y-59822816D01*
X166724172Y-59822816D02*
X166771791Y-59727577D01*
X166771791Y-59727577D02*
X166771791Y-59346625D01*
X166771791Y-59346625D02*
X166724172Y-59251387D01*
X166724172Y-59251387D02*
X166628934Y-59203768D01*
X166628934Y-59203768D02*
X166438458Y-59203768D01*
X166438458Y-59203768D02*
X166343220Y-59251387D01*
X166343220Y-59251387D02*
X166295601Y-59346625D01*
X166295601Y-59346625D02*
X166295601Y-59441863D01*
X166295601Y-59441863D02*
X166771791Y-59537101D01*
X165867029Y-59203768D02*
X165867029Y-59870435D01*
X165867029Y-59299006D02*
X165819410Y-59251387D01*
X165819410Y-59251387D02*
X165724172Y-59203768D01*
X165724172Y-59203768D02*
X165581315Y-59203768D01*
X165581315Y-59203768D02*
X165486077Y-59251387D01*
X165486077Y-59251387D02*
X165438458Y-59346625D01*
X165438458Y-59346625D02*
X165438458Y-59870435D01*
X165009886Y-59822816D02*
X164914648Y-59870435D01*
X164914648Y-59870435D02*
X164724172Y-59870435D01*
X164724172Y-59870435D02*
X164628934Y-59822816D01*
X164628934Y-59822816D02*
X164581315Y-59727577D01*
X164581315Y-59727577D02*
X164581315Y-59679958D01*
X164581315Y-59679958D02*
X164628934Y-59584720D01*
X164628934Y-59584720D02*
X164724172Y-59537101D01*
X164724172Y-59537101D02*
X164867029Y-59537101D01*
X164867029Y-59537101D02*
X164962267Y-59489482D01*
X164962267Y-59489482D02*
X165009886Y-59394244D01*
X165009886Y-59394244D02*
X165009886Y-59346625D01*
X165009886Y-59346625D02*
X164962267Y-59251387D01*
X164962267Y-59251387D02*
X164867029Y-59203768D01*
X164867029Y-59203768D02*
X164724172Y-59203768D01*
X164724172Y-59203768D02*
X164628934Y-59251387D01*
X164247981Y-59203768D02*
X164009886Y-59870435D01*
X163771791Y-59203768D02*
X164009886Y-59870435D01*
X164009886Y-59870435D02*
X164105124Y-60108530D01*
X164105124Y-60108530D02*
X164152743Y-60156149D01*
X164152743Y-60156149D02*
X164247981Y-60203768D01*
X162200362Y-59203768D02*
X162200362Y-59870435D01*
X162438457Y-58822816D02*
X162676552Y-59537101D01*
X162676552Y-59537101D02*
X162057505Y-59537101D01*
X161676552Y-59775196D02*
X161628933Y-59822816D01*
X161628933Y-59822816D02*
X161676552Y-59870435D01*
X161676552Y-59870435D02*
X161724171Y-59822816D01*
X161724171Y-59822816D02*
X161676552Y-59775196D01*
X161676552Y-59775196D02*
X161676552Y-59870435D01*
X160676553Y-59870435D02*
X161247981Y-59870435D01*
X160962267Y-59870435D02*
X160962267Y-58870435D01*
X160962267Y-58870435D02*
X161057505Y-59013292D01*
X161057505Y-59013292D02*
X161152743Y-59108530D01*
X161152743Y-59108530D02*
X161247981Y-59156149D01*
X159486076Y-59870435D02*
X159486076Y-58870435D01*
X159486076Y-58870435D02*
X159105124Y-58870435D01*
X159105124Y-58870435D02*
X159009886Y-58918054D01*
X159009886Y-58918054D02*
X158962267Y-58965673D01*
X158962267Y-58965673D02*
X158914648Y-59060911D01*
X158914648Y-59060911D02*
X158914648Y-59203768D01*
X158914648Y-59203768D02*
X158962267Y-59299006D01*
X158962267Y-59299006D02*
X159009886Y-59346625D01*
X159009886Y-59346625D02*
X159105124Y-59394244D01*
X159105124Y-59394244D02*
X159486076Y-59394244D01*
X158486076Y-59870435D02*
X158486076Y-59203768D01*
X158486076Y-59394244D02*
X158438457Y-59299006D01*
X158438457Y-59299006D02*
X158390838Y-59251387D01*
X158390838Y-59251387D02*
X158295600Y-59203768D01*
X158295600Y-59203768D02*
X158200362Y-59203768D01*
X157724171Y-59870435D02*
X157819409Y-59822816D01*
X157819409Y-59822816D02*
X157867028Y-59775196D01*
X157867028Y-59775196D02*
X157914647Y-59679958D01*
X157914647Y-59679958D02*
X157914647Y-59394244D01*
X157914647Y-59394244D02*
X157867028Y-59299006D01*
X157867028Y-59299006D02*
X157819409Y-59251387D01*
X157819409Y-59251387D02*
X157724171Y-59203768D01*
X157724171Y-59203768D02*
X157581314Y-59203768D01*
X157581314Y-59203768D02*
X157486076Y-59251387D01*
X157486076Y-59251387D02*
X157438457Y-59299006D01*
X157438457Y-59299006D02*
X157390838Y-59394244D01*
X157390838Y-59394244D02*
X157390838Y-59679958D01*
X157390838Y-59679958D02*
X157438457Y-59775196D01*
X157438457Y-59775196D02*
X157486076Y-59822816D01*
X157486076Y-59822816D02*
X157581314Y-59870435D01*
X157581314Y-59870435D02*
X157724171Y-59870435D01*
X157105123Y-59203768D02*
X156724171Y-59203768D01*
X156962266Y-58870435D02*
X156962266Y-59727577D01*
X156962266Y-59727577D02*
X156914647Y-59822816D01*
X156914647Y-59822816D02*
X156819409Y-59870435D01*
X156819409Y-59870435D02*
X156724171Y-59870435D01*
X156247980Y-59870435D02*
X156343218Y-59822816D01*
X156343218Y-59822816D02*
X156390837Y-59775196D01*
X156390837Y-59775196D02*
X156438456Y-59679958D01*
X156438456Y-59679958D02*
X156438456Y-59394244D01*
X156438456Y-59394244D02*
X156390837Y-59299006D01*
X156390837Y-59299006D02*
X156343218Y-59251387D01*
X156343218Y-59251387D02*
X156247980Y-59203768D01*
X156247980Y-59203768D02*
X156105123Y-59203768D01*
X156105123Y-59203768D02*
X156009885Y-59251387D01*
X156009885Y-59251387D02*
X155962266Y-59299006D01*
X155962266Y-59299006D02*
X155914647Y-59394244D01*
X155914647Y-59394244D02*
X155914647Y-59679958D01*
X155914647Y-59679958D02*
X155962266Y-59775196D01*
X155962266Y-59775196D02*
X156009885Y-59822816D01*
X156009885Y-59822816D02*
X156105123Y-59870435D01*
X156105123Y-59870435D02*
X156247980Y-59870435D01*
X155628932Y-59203768D02*
X155247980Y-59203768D01*
X155486075Y-58870435D02*
X155486075Y-59727577D01*
X155486075Y-59727577D02*
X155438456Y-59822816D01*
X155438456Y-59822816D02*
X155343218Y-59870435D01*
X155343218Y-59870435D02*
X155247980Y-59870435D01*
X155009884Y-59203768D02*
X154771789Y-59870435D01*
X154533694Y-59203768D02*
X154771789Y-59870435D01*
X154771789Y-59870435D02*
X154867027Y-60108530D01*
X154867027Y-60108530D02*
X154914646Y-60156149D01*
X154914646Y-60156149D02*
X155009884Y-60203768D01*
X154152741Y-59203768D02*
X154152741Y-60203768D01*
X154152741Y-59251387D02*
X154057503Y-59203768D01*
X154057503Y-59203768D02*
X153867027Y-59203768D01*
X153867027Y-59203768D02*
X153771789Y-59251387D01*
X153771789Y-59251387D02*
X153724170Y-59299006D01*
X153724170Y-59299006D02*
X153676551Y-59394244D01*
X153676551Y-59394244D02*
X153676551Y-59679958D01*
X153676551Y-59679958D02*
X153724170Y-59775196D01*
X153724170Y-59775196D02*
X153771789Y-59822816D01*
X153771789Y-59822816D02*
X153867027Y-59870435D01*
X153867027Y-59870435D02*
X154057503Y-59870435D01*
X154057503Y-59870435D02*
X154152741Y-59822816D01*
X152867027Y-59822816D02*
X152962265Y-59870435D01*
X152962265Y-59870435D02*
X153152741Y-59870435D01*
X153152741Y-59870435D02*
X153247979Y-59822816D01*
X153247979Y-59822816D02*
X153295598Y-59727577D01*
X153295598Y-59727577D02*
X153295598Y-59346625D01*
X153295598Y-59346625D02*
X153247979Y-59251387D01*
X153247979Y-59251387D02*
X153152741Y-59203768D01*
X153152741Y-59203768D02*
X152962265Y-59203768D01*
X152962265Y-59203768D02*
X152867027Y-59251387D01*
X152867027Y-59251387D02*
X152819408Y-59346625D01*
X152819408Y-59346625D02*
X152819408Y-59441863D01*
X152819408Y-59441863D02*
X153295598Y-59537101D01*
X151724169Y-59203768D02*
X151486074Y-59870435D01*
X151486074Y-59870435D02*
X151247979Y-59203768D01*
X150343217Y-59870435D02*
X150914645Y-59870435D01*
X150628931Y-59870435D02*
X150628931Y-58870435D01*
X150628931Y-58870435D02*
X150724169Y-59013292D01*
X150724169Y-59013292D02*
X150819407Y-59108530D01*
X150819407Y-59108530D02*
X150914645Y-59156149D01*
X149914645Y-59775196D02*
X149867026Y-59822816D01*
X149867026Y-59822816D02*
X149914645Y-59870435D01*
X149914645Y-59870435D02*
X149962264Y-59822816D01*
X149962264Y-59822816D02*
X149914645Y-59775196D01*
X149914645Y-59775196D02*
X149914645Y-59870435D01*
X149247979Y-58870435D02*
X149152741Y-58870435D01*
X149152741Y-58870435D02*
X149057503Y-58918054D01*
X149057503Y-58918054D02*
X149009884Y-58965673D01*
X149009884Y-58965673D02*
X148962265Y-59060911D01*
X148962265Y-59060911D02*
X148914646Y-59251387D01*
X148914646Y-59251387D02*
X148914646Y-59489482D01*
X148914646Y-59489482D02*
X148962265Y-59679958D01*
X148962265Y-59679958D02*
X149009884Y-59775196D01*
X149009884Y-59775196D02*
X149057503Y-59822816D01*
X149057503Y-59822816D02*
X149152741Y-59870435D01*
X149152741Y-59870435D02*
X149247979Y-59870435D01*
X149247979Y-59870435D02*
X149343217Y-59822816D01*
X149343217Y-59822816D02*
X149390836Y-59775196D01*
X149390836Y-59775196D02*
X149438455Y-59679958D01*
X149438455Y-59679958D02*
X149486074Y-59489482D01*
X149486074Y-59489482D02*
X149486074Y-59251387D01*
X149486074Y-59251387D02*
X149438455Y-59060911D01*
X149438455Y-59060911D02*
X149390836Y-58965673D01*
X149390836Y-58965673D02*
X149343217Y-58918054D01*
X149343217Y-58918054D02*
X149247979Y-58870435D01*
X168390839Y-61194664D02*
X167914649Y-61194664D01*
X168486077Y-61480379D02*
X168152744Y-60480379D01*
X168152744Y-60480379D02*
X167819411Y-61480379D01*
X167343220Y-61480379D02*
X167438458Y-61432760D01*
X167438458Y-61432760D02*
X167486077Y-61337521D01*
X167486077Y-61337521D02*
X167486077Y-60480379D01*
X166581315Y-61432760D02*
X166676553Y-61480379D01*
X166676553Y-61480379D02*
X166867029Y-61480379D01*
X166867029Y-61480379D02*
X166962267Y-61432760D01*
X166962267Y-61432760D02*
X167009886Y-61337521D01*
X167009886Y-61337521D02*
X167009886Y-60956569D01*
X167009886Y-60956569D02*
X166962267Y-60861331D01*
X166962267Y-60861331D02*
X166867029Y-60813712D01*
X166867029Y-60813712D02*
X166676553Y-60813712D01*
X166676553Y-60813712D02*
X166581315Y-60861331D01*
X166581315Y-60861331D02*
X166533696Y-60956569D01*
X166533696Y-60956569D02*
X166533696Y-61051807D01*
X166533696Y-61051807D02*
X167009886Y-61147045D01*
X166200362Y-61480379D02*
X165676553Y-60813712D01*
X166200362Y-60813712D02*
X165676553Y-61480379D01*
X164581314Y-61432760D02*
X164438457Y-61480379D01*
X164438457Y-61480379D02*
X164200362Y-61480379D01*
X164200362Y-61480379D02*
X164105124Y-61432760D01*
X164105124Y-61432760D02*
X164057505Y-61385140D01*
X164057505Y-61385140D02*
X164009886Y-61289902D01*
X164009886Y-61289902D02*
X164009886Y-61194664D01*
X164009886Y-61194664D02*
X164057505Y-61099426D01*
X164057505Y-61099426D02*
X164105124Y-61051807D01*
X164105124Y-61051807D02*
X164200362Y-61004188D01*
X164200362Y-61004188D02*
X164390838Y-60956569D01*
X164390838Y-60956569D02*
X164486076Y-60908950D01*
X164486076Y-60908950D02*
X164533695Y-60861331D01*
X164533695Y-60861331D02*
X164581314Y-60766093D01*
X164581314Y-60766093D02*
X164581314Y-60670855D01*
X164581314Y-60670855D02*
X164533695Y-60575617D01*
X164533695Y-60575617D02*
X164486076Y-60527998D01*
X164486076Y-60527998D02*
X164390838Y-60480379D01*
X164390838Y-60480379D02*
X164152743Y-60480379D01*
X164152743Y-60480379D02*
X164009886Y-60527998D01*
X163724171Y-60813712D02*
X163343219Y-60813712D01*
X163581314Y-60480379D02*
X163581314Y-61337521D01*
X163581314Y-61337521D02*
X163533695Y-61432760D01*
X163533695Y-61432760D02*
X163438457Y-61480379D01*
X163438457Y-61480379D02*
X163343219Y-61480379D01*
X162628933Y-61432760D02*
X162724171Y-61480379D01*
X162724171Y-61480379D02*
X162914647Y-61480379D01*
X162914647Y-61480379D02*
X163009885Y-61432760D01*
X163009885Y-61432760D02*
X163057504Y-61337521D01*
X163057504Y-61337521D02*
X163057504Y-60956569D01*
X163057504Y-60956569D02*
X163009885Y-60861331D01*
X163009885Y-60861331D02*
X162914647Y-60813712D01*
X162914647Y-60813712D02*
X162724171Y-60813712D01*
X162724171Y-60813712D02*
X162628933Y-60861331D01*
X162628933Y-60861331D02*
X162581314Y-60956569D01*
X162581314Y-60956569D02*
X162581314Y-61051807D01*
X162581314Y-61051807D02*
X163057504Y-61147045D01*
X162247980Y-60813712D02*
X162057504Y-61480379D01*
X162057504Y-61480379D02*
X161867028Y-61004188D01*
X161867028Y-61004188D02*
X161676552Y-61480379D01*
X161676552Y-61480379D02*
X161486076Y-60813712D01*
X160676552Y-61480379D02*
X160676552Y-60956569D01*
X160676552Y-60956569D02*
X160724171Y-60861331D01*
X160724171Y-60861331D02*
X160819409Y-60813712D01*
X160819409Y-60813712D02*
X161009885Y-60813712D01*
X161009885Y-60813712D02*
X161105123Y-60861331D01*
X160676552Y-61432760D02*
X160771790Y-61480379D01*
X160771790Y-61480379D02*
X161009885Y-61480379D01*
X161009885Y-61480379D02*
X161105123Y-61432760D01*
X161105123Y-61432760D02*
X161152742Y-61337521D01*
X161152742Y-61337521D02*
X161152742Y-61242283D01*
X161152742Y-61242283D02*
X161105123Y-61147045D01*
X161105123Y-61147045D02*
X161009885Y-61099426D01*
X161009885Y-61099426D02*
X160771790Y-61099426D01*
X160771790Y-61099426D02*
X160676552Y-61051807D01*
X160200361Y-61480379D02*
X160200361Y-60813712D01*
X160200361Y-61004188D02*
X160152742Y-60908950D01*
X160152742Y-60908950D02*
X160105123Y-60861331D01*
X160105123Y-60861331D02*
X160009885Y-60813712D01*
X160009885Y-60813712D02*
X159914647Y-60813712D01*
X159724170Y-60813712D02*
X159343218Y-60813712D01*
X159581313Y-60480379D02*
X159581313Y-61337521D01*
X159581313Y-61337521D02*
X159533694Y-61432760D01*
X159533694Y-61432760D02*
X159438456Y-61480379D01*
X159438456Y-61480379D02*
X159343218Y-61480379D01*
X158009884Y-61813712D02*
X158009884Y-60385140D01*
X156581312Y-61194664D02*
X156105122Y-61194664D01*
X156676550Y-61480379D02*
X156343217Y-60480379D01*
X156343217Y-60480379D02*
X156009884Y-61480379D01*
X155676550Y-60813712D02*
X155676550Y-61813712D01*
X155676550Y-60861331D02*
X155581312Y-60813712D01*
X155581312Y-60813712D02*
X155390836Y-60813712D01*
X155390836Y-60813712D02*
X155295598Y-60861331D01*
X155295598Y-60861331D02*
X155247979Y-60908950D01*
X155247979Y-60908950D02*
X155200360Y-61004188D01*
X155200360Y-61004188D02*
X155200360Y-61289902D01*
X155200360Y-61289902D02*
X155247979Y-61385140D01*
X155247979Y-61385140D02*
X155295598Y-61432760D01*
X155295598Y-61432760D02*
X155390836Y-61480379D01*
X155390836Y-61480379D02*
X155581312Y-61480379D01*
X155581312Y-61480379D02*
X155676550Y-61432760D01*
X154771788Y-61480379D02*
X154771788Y-60813712D01*
X154771788Y-61004188D02*
X154724169Y-60908950D01*
X154724169Y-60908950D02*
X154676550Y-60861331D01*
X154676550Y-60861331D02*
X154581312Y-60813712D01*
X154581312Y-60813712D02*
X154486074Y-60813712D01*
X153438454Y-60575617D02*
X153390835Y-60527998D01*
X153390835Y-60527998D02*
X153295597Y-60480379D01*
X153295597Y-60480379D02*
X153057502Y-60480379D01*
X153057502Y-60480379D02*
X152962264Y-60527998D01*
X152962264Y-60527998D02*
X152914645Y-60575617D01*
X152914645Y-60575617D02*
X152867026Y-60670855D01*
X152867026Y-60670855D02*
X152867026Y-60766093D01*
X152867026Y-60766093D02*
X152914645Y-60908950D01*
X152914645Y-60908950D02*
X153486073Y-61480379D01*
X153486073Y-61480379D02*
X152867026Y-61480379D01*
X152247978Y-60480379D02*
X152152740Y-60480379D01*
X152152740Y-60480379D02*
X152057502Y-60527998D01*
X152057502Y-60527998D02*
X152009883Y-60575617D01*
X152009883Y-60575617D02*
X151962264Y-60670855D01*
X151962264Y-60670855D02*
X151914645Y-60861331D01*
X151914645Y-60861331D02*
X151914645Y-61099426D01*
X151914645Y-61099426D02*
X151962264Y-61289902D01*
X151962264Y-61289902D02*
X152009883Y-61385140D01*
X152009883Y-61385140D02*
X152057502Y-61432760D01*
X152057502Y-61432760D02*
X152152740Y-61480379D01*
X152152740Y-61480379D02*
X152247978Y-61480379D01*
X152247978Y-61480379D02*
X152343216Y-61432760D01*
X152343216Y-61432760D02*
X152390835Y-61385140D01*
X152390835Y-61385140D02*
X152438454Y-61289902D01*
X152438454Y-61289902D02*
X152486073Y-61099426D01*
X152486073Y-61099426D02*
X152486073Y-60861331D01*
X152486073Y-60861331D02*
X152438454Y-60670855D01*
X152438454Y-60670855D02*
X152390835Y-60575617D01*
X152390835Y-60575617D02*
X152343216Y-60527998D01*
X152343216Y-60527998D02*
X152247978Y-60480379D01*
X151533692Y-60575617D02*
X151486073Y-60527998D01*
X151486073Y-60527998D02*
X151390835Y-60480379D01*
X151390835Y-60480379D02*
X151152740Y-60480379D01*
X151152740Y-60480379D02*
X151057502Y-60527998D01*
X151057502Y-60527998D02*
X151009883Y-60575617D01*
X151009883Y-60575617D02*
X150962264Y-60670855D01*
X150962264Y-60670855D02*
X150962264Y-60766093D01*
X150962264Y-60766093D02*
X151009883Y-60908950D01*
X151009883Y-60908950D02*
X151581311Y-61480379D01*
X151581311Y-61480379D02*
X150962264Y-61480379D01*
X150057502Y-60480379D02*
X150533692Y-60480379D01*
X150533692Y-60480379D02*
X150581311Y-60956569D01*
X150581311Y-60956569D02*
X150533692Y-60908950D01*
X150533692Y-60908950D02*
X150438454Y-60861331D01*
X150438454Y-60861331D02*
X150200359Y-60861331D01*
X150200359Y-60861331D02*
X150105121Y-60908950D01*
X150105121Y-60908950D02*
X150057502Y-60956569D01*
X150057502Y-60956569D02*
X150009883Y-61051807D01*
X150009883Y-61051807D02*
X150009883Y-61289902D01*
X150009883Y-61289902D02*
X150057502Y-61385140D01*
X150057502Y-61385140D02*
X150105121Y-61432760D01*
X150105121Y-61432760D02*
X150200359Y-61480379D01*
X150200359Y-61480379D02*
X150438454Y-61480379D01*
X150438454Y-61480379D02*
X150533692Y-61432760D01*
X150533692Y-61432760D02*
X150581311Y-61385140D01*
X168343220Y-64700267D02*
X168343220Y-63700267D01*
X167867030Y-64033600D02*
X167867030Y-64700267D01*
X167867030Y-64128838D02*
X167819411Y-64081219D01*
X167819411Y-64081219D02*
X167724173Y-64033600D01*
X167724173Y-64033600D02*
X167581316Y-64033600D01*
X167581316Y-64033600D02*
X167486078Y-64081219D01*
X167486078Y-64081219D02*
X167438459Y-64176457D01*
X167438459Y-64176457D02*
X167438459Y-64700267D01*
X166533697Y-64652648D02*
X166628935Y-64700267D01*
X166628935Y-64700267D02*
X166819411Y-64700267D01*
X166819411Y-64700267D02*
X166914649Y-64652648D01*
X166914649Y-64652648D02*
X166962268Y-64605028D01*
X166962268Y-64605028D02*
X167009887Y-64509790D01*
X167009887Y-64509790D02*
X167009887Y-64224076D01*
X167009887Y-64224076D02*
X166962268Y-64128838D01*
X166962268Y-64128838D02*
X166914649Y-64081219D01*
X166914649Y-64081219D02*
X166819411Y-64033600D01*
X166819411Y-64033600D02*
X166628935Y-64033600D01*
X166628935Y-64033600D02*
X166533697Y-64081219D01*
X165962268Y-64700267D02*
X166057506Y-64652648D01*
X166057506Y-64652648D02*
X166105125Y-64557409D01*
X166105125Y-64557409D02*
X166105125Y-63700267D01*
X165152744Y-64033600D02*
X165152744Y-64700267D01*
X165581315Y-64033600D02*
X165581315Y-64557409D01*
X165581315Y-64557409D02*
X165533696Y-64652648D01*
X165533696Y-64652648D02*
X165438458Y-64700267D01*
X165438458Y-64700267D02*
X165295601Y-64700267D01*
X165295601Y-64700267D02*
X165200363Y-64652648D01*
X165200363Y-64652648D02*
X165152744Y-64605028D01*
X164247982Y-64700267D02*
X164247982Y-63700267D01*
X164247982Y-64652648D02*
X164343220Y-64700267D01*
X164343220Y-64700267D02*
X164533696Y-64700267D01*
X164533696Y-64700267D02*
X164628934Y-64652648D01*
X164628934Y-64652648D02*
X164676553Y-64605028D01*
X164676553Y-64605028D02*
X164724172Y-64509790D01*
X164724172Y-64509790D02*
X164724172Y-64224076D01*
X164724172Y-64224076D02*
X164676553Y-64128838D01*
X164676553Y-64128838D02*
X164628934Y-64081219D01*
X164628934Y-64081219D02*
X164533696Y-64033600D01*
X164533696Y-64033600D02*
X164343220Y-64033600D01*
X164343220Y-64033600D02*
X164247982Y-64081219D01*
X163390839Y-64652648D02*
X163486077Y-64700267D01*
X163486077Y-64700267D02*
X163676553Y-64700267D01*
X163676553Y-64700267D02*
X163771791Y-64652648D01*
X163771791Y-64652648D02*
X163819410Y-64557409D01*
X163819410Y-64557409D02*
X163819410Y-64176457D01*
X163819410Y-64176457D02*
X163771791Y-64081219D01*
X163771791Y-64081219D02*
X163676553Y-64033600D01*
X163676553Y-64033600D02*
X163486077Y-64033600D01*
X163486077Y-64033600D02*
X163390839Y-64081219D01*
X163390839Y-64081219D02*
X163343220Y-64176457D01*
X163343220Y-64176457D02*
X163343220Y-64271695D01*
X163343220Y-64271695D02*
X163819410Y-64366933D01*
X162962267Y-64652648D02*
X162867029Y-64700267D01*
X162867029Y-64700267D02*
X162676553Y-64700267D01*
X162676553Y-64700267D02*
X162581315Y-64652648D01*
X162581315Y-64652648D02*
X162533696Y-64557409D01*
X162533696Y-64557409D02*
X162533696Y-64509790D01*
X162533696Y-64509790D02*
X162581315Y-64414552D01*
X162581315Y-64414552D02*
X162676553Y-64366933D01*
X162676553Y-64366933D02*
X162819410Y-64366933D01*
X162819410Y-64366933D02*
X162914648Y-64319314D01*
X162914648Y-64319314D02*
X162962267Y-64224076D01*
X162962267Y-64224076D02*
X162962267Y-64176457D01*
X162962267Y-64176457D02*
X162914648Y-64081219D01*
X162914648Y-64081219D02*
X162819410Y-64033600D01*
X162819410Y-64033600D02*
X162676553Y-64033600D01*
X162676553Y-64033600D02*
X162581315Y-64081219D01*
X162105124Y-64605028D02*
X162057505Y-64652648D01*
X162057505Y-64652648D02*
X162105124Y-64700267D01*
X162105124Y-64700267D02*
X162152743Y-64652648D01*
X162152743Y-64652648D02*
X162105124Y-64605028D01*
X162105124Y-64605028D02*
X162105124Y-64700267D01*
X162105124Y-64081219D02*
X162057505Y-64128838D01*
X162057505Y-64128838D02*
X162105124Y-64176457D01*
X162105124Y-64176457D02*
X162152743Y-64128838D01*
X162152743Y-64128838D02*
X162105124Y-64081219D01*
X162105124Y-64081219D02*
X162105124Y-64176457D01*
X168343220Y-65929258D02*
X167581316Y-65929258D01*
X166343220Y-65310211D02*
X166343220Y-66119734D01*
X166343220Y-66119734D02*
X166295601Y-66214972D01*
X166295601Y-66214972D02*
X166247982Y-66262592D01*
X166247982Y-66262592D02*
X166152744Y-66310211D01*
X166152744Y-66310211D02*
X165962268Y-66310211D01*
X165962268Y-66310211D02*
X165867030Y-66262592D01*
X165867030Y-66262592D02*
X165819411Y-66214972D01*
X165819411Y-66214972D02*
X165771792Y-66119734D01*
X165771792Y-66119734D02*
X165771792Y-65310211D01*
X165343220Y-66262592D02*
X165200363Y-66310211D01*
X165200363Y-66310211D02*
X164962268Y-66310211D01*
X164962268Y-66310211D02*
X164867030Y-66262592D01*
X164867030Y-66262592D02*
X164819411Y-66214972D01*
X164819411Y-66214972D02*
X164771792Y-66119734D01*
X164771792Y-66119734D02*
X164771792Y-66024496D01*
X164771792Y-66024496D02*
X164819411Y-65929258D01*
X164819411Y-65929258D02*
X164867030Y-65881639D01*
X164867030Y-65881639D02*
X164962268Y-65834020D01*
X164962268Y-65834020D02*
X165152744Y-65786401D01*
X165152744Y-65786401D02*
X165247982Y-65738782D01*
X165247982Y-65738782D02*
X165295601Y-65691163D01*
X165295601Y-65691163D02*
X165343220Y-65595925D01*
X165343220Y-65595925D02*
X165343220Y-65500687D01*
X165343220Y-65500687D02*
X165295601Y-65405449D01*
X165295601Y-65405449D02*
X165247982Y-65357830D01*
X165247982Y-65357830D02*
X165152744Y-65310211D01*
X165152744Y-65310211D02*
X164914649Y-65310211D01*
X164914649Y-65310211D02*
X164771792Y-65357830D01*
X164009887Y-65786401D02*
X163867030Y-65834020D01*
X163867030Y-65834020D02*
X163819411Y-65881639D01*
X163819411Y-65881639D02*
X163771792Y-65976877D01*
X163771792Y-65976877D02*
X163771792Y-66119734D01*
X163771792Y-66119734D02*
X163819411Y-66214972D01*
X163819411Y-66214972D02*
X163867030Y-66262592D01*
X163867030Y-66262592D02*
X163962268Y-66310211D01*
X163962268Y-66310211D02*
X164343220Y-66310211D01*
X164343220Y-66310211D02*
X164343220Y-65310211D01*
X164343220Y-65310211D02*
X164009887Y-65310211D01*
X164009887Y-65310211D02*
X163914649Y-65357830D01*
X163914649Y-65357830D02*
X163867030Y-65405449D01*
X163867030Y-65405449D02*
X163819411Y-65500687D01*
X163819411Y-65500687D02*
X163819411Y-65595925D01*
X163819411Y-65595925D02*
X163867030Y-65691163D01*
X163867030Y-65691163D02*
X163914649Y-65738782D01*
X163914649Y-65738782D02*
X164009887Y-65786401D01*
X164009887Y-65786401D02*
X164343220Y-65786401D01*
X163581316Y-66405449D02*
X162819411Y-66405449D01*
X162009887Y-66214972D02*
X162057506Y-66262592D01*
X162057506Y-66262592D02*
X162200363Y-66310211D01*
X162200363Y-66310211D02*
X162295601Y-66310211D01*
X162295601Y-66310211D02*
X162438458Y-66262592D01*
X162438458Y-66262592D02*
X162533696Y-66167353D01*
X162533696Y-66167353D02*
X162581315Y-66072115D01*
X162581315Y-66072115D02*
X162628934Y-65881639D01*
X162628934Y-65881639D02*
X162628934Y-65738782D01*
X162628934Y-65738782D02*
X162581315Y-65548306D01*
X162581315Y-65548306D02*
X162533696Y-65453068D01*
X162533696Y-65453068D02*
X162438458Y-65357830D01*
X162438458Y-65357830D02*
X162295601Y-65310211D01*
X162295601Y-65310211D02*
X162200363Y-65310211D01*
X162200363Y-65310211D02*
X162057506Y-65357830D01*
X162057506Y-65357830D02*
X162009887Y-65405449D01*
X161581315Y-66214972D02*
X161533696Y-66262592D01*
X161533696Y-66262592D02*
X161581315Y-66310211D01*
X161581315Y-66310211D02*
X161628934Y-66262592D01*
X161628934Y-66262592D02*
X161581315Y-66214972D01*
X161581315Y-66214972D02*
X161581315Y-66310211D01*
X160581316Y-66310211D02*
X161152744Y-66310211D01*
X160867030Y-66310211D02*
X160867030Y-65310211D01*
X160867030Y-65310211D02*
X160962268Y-65453068D01*
X160962268Y-65453068D02*
X161057506Y-65548306D01*
X161057506Y-65548306D02*
X161152744Y-65595925D01*
X159390839Y-66310211D02*
X159390839Y-65310211D01*
X159390839Y-65310211D02*
X159009887Y-65310211D01*
X159009887Y-65310211D02*
X158914649Y-65357830D01*
X158914649Y-65357830D02*
X158867030Y-65405449D01*
X158867030Y-65405449D02*
X158819411Y-65500687D01*
X158819411Y-65500687D02*
X158819411Y-65643544D01*
X158819411Y-65643544D02*
X158867030Y-65738782D01*
X158867030Y-65738782D02*
X158914649Y-65786401D01*
X158914649Y-65786401D02*
X159009887Y-65834020D01*
X159009887Y-65834020D02*
X159390839Y-65834020D01*
X158247982Y-66310211D02*
X158343220Y-66262592D01*
X158343220Y-66262592D02*
X158390839Y-66214972D01*
X158390839Y-66214972D02*
X158438458Y-66119734D01*
X158438458Y-66119734D02*
X158438458Y-65834020D01*
X158438458Y-65834020D02*
X158390839Y-65738782D01*
X158390839Y-65738782D02*
X158343220Y-65691163D01*
X158343220Y-65691163D02*
X158247982Y-65643544D01*
X158247982Y-65643544D02*
X158105125Y-65643544D01*
X158105125Y-65643544D02*
X158009887Y-65691163D01*
X158009887Y-65691163D02*
X157962268Y-65738782D01*
X157962268Y-65738782D02*
X157914649Y-65834020D01*
X157914649Y-65834020D02*
X157914649Y-66119734D01*
X157914649Y-66119734D02*
X157962268Y-66214972D01*
X157962268Y-66214972D02*
X158009887Y-66262592D01*
X158009887Y-66262592D02*
X158105125Y-66310211D01*
X158105125Y-66310211D02*
X158247982Y-66310211D01*
X157581315Y-65643544D02*
X157390839Y-66310211D01*
X157390839Y-66310211D02*
X157200363Y-65834020D01*
X157200363Y-65834020D02*
X157009887Y-66310211D01*
X157009887Y-66310211D02*
X156819411Y-65643544D01*
X156057506Y-66262592D02*
X156152744Y-66310211D01*
X156152744Y-66310211D02*
X156343220Y-66310211D01*
X156343220Y-66310211D02*
X156438458Y-66262592D01*
X156438458Y-66262592D02*
X156486077Y-66167353D01*
X156486077Y-66167353D02*
X156486077Y-65786401D01*
X156486077Y-65786401D02*
X156438458Y-65691163D01*
X156438458Y-65691163D02*
X156343220Y-65643544D01*
X156343220Y-65643544D02*
X156152744Y-65643544D01*
X156152744Y-65643544D02*
X156057506Y-65691163D01*
X156057506Y-65691163D02*
X156009887Y-65786401D01*
X156009887Y-65786401D02*
X156009887Y-65881639D01*
X156009887Y-65881639D02*
X156486077Y-65976877D01*
X155581315Y-66310211D02*
X155581315Y-65643544D01*
X155581315Y-65834020D02*
X155533696Y-65738782D01*
X155533696Y-65738782D02*
X155486077Y-65691163D01*
X155486077Y-65691163D02*
X155390839Y-65643544D01*
X155390839Y-65643544D02*
X155295601Y-65643544D01*
X154247982Y-65262592D02*
X155105124Y-66548306D01*
X153486077Y-66310211D02*
X153486077Y-65310211D01*
X153486077Y-66262592D02*
X153581315Y-66310211D01*
X153581315Y-66310211D02*
X153771791Y-66310211D01*
X153771791Y-66310211D02*
X153867029Y-66262592D01*
X153867029Y-66262592D02*
X153914648Y-66214972D01*
X153914648Y-66214972D02*
X153962267Y-66119734D01*
X153962267Y-66119734D02*
X153962267Y-65834020D01*
X153962267Y-65834020D02*
X153914648Y-65738782D01*
X153914648Y-65738782D02*
X153867029Y-65691163D01*
X153867029Y-65691163D02*
X153771791Y-65643544D01*
X153771791Y-65643544D02*
X153581315Y-65643544D01*
X153581315Y-65643544D02*
X153486077Y-65691163D01*
X152581315Y-66310211D02*
X152581315Y-65786401D01*
X152581315Y-65786401D02*
X152628934Y-65691163D01*
X152628934Y-65691163D02*
X152724172Y-65643544D01*
X152724172Y-65643544D02*
X152914648Y-65643544D01*
X152914648Y-65643544D02*
X153009886Y-65691163D01*
X152581315Y-66262592D02*
X152676553Y-66310211D01*
X152676553Y-66310211D02*
X152914648Y-66310211D01*
X152914648Y-66310211D02*
X153009886Y-66262592D01*
X153009886Y-66262592D02*
X153057505Y-66167353D01*
X153057505Y-66167353D02*
X153057505Y-66072115D01*
X153057505Y-66072115D02*
X153009886Y-65976877D01*
X153009886Y-65976877D02*
X152914648Y-65929258D01*
X152914648Y-65929258D02*
X152676553Y-65929258D01*
X152676553Y-65929258D02*
X152581315Y-65881639D01*
X152247981Y-65643544D02*
X151867029Y-65643544D01*
X152105124Y-65310211D02*
X152105124Y-66167353D01*
X152105124Y-66167353D02*
X152057505Y-66262592D01*
X152057505Y-66262592D02*
X151962267Y-66310211D01*
X151962267Y-66310211D02*
X151867029Y-66310211D01*
X151105124Y-66310211D02*
X151105124Y-65786401D01*
X151105124Y-65786401D02*
X151152743Y-65691163D01*
X151152743Y-65691163D02*
X151247981Y-65643544D01*
X151247981Y-65643544D02*
X151438457Y-65643544D01*
X151438457Y-65643544D02*
X151533695Y-65691163D01*
X151105124Y-66262592D02*
X151200362Y-66310211D01*
X151200362Y-66310211D02*
X151438457Y-66310211D01*
X151438457Y-66310211D02*
X151533695Y-66262592D01*
X151533695Y-66262592D02*
X151581314Y-66167353D01*
X151581314Y-66167353D02*
X151581314Y-66072115D01*
X151581314Y-66072115D02*
X151533695Y-65976877D01*
X151533695Y-65976877D02*
X151438457Y-65929258D01*
X151438457Y-65929258D02*
X151200362Y-65929258D01*
X151200362Y-65929258D02*
X151105124Y-65881639D01*
X168343220Y-67539202D02*
X167581316Y-67539202D01*
X166343220Y-66920155D02*
X166343220Y-67729678D01*
X166343220Y-67729678D02*
X166295601Y-67824916D01*
X166295601Y-67824916D02*
X166247982Y-67872536D01*
X166247982Y-67872536D02*
X166152744Y-67920155D01*
X166152744Y-67920155D02*
X165962268Y-67920155D01*
X165962268Y-67920155D02*
X165867030Y-67872536D01*
X165867030Y-67872536D02*
X165819411Y-67824916D01*
X165819411Y-67824916D02*
X165771792Y-67729678D01*
X165771792Y-67729678D02*
X165771792Y-66920155D01*
X165343220Y-67872536D02*
X165200363Y-67920155D01*
X165200363Y-67920155D02*
X164962268Y-67920155D01*
X164962268Y-67920155D02*
X164867030Y-67872536D01*
X164867030Y-67872536D02*
X164819411Y-67824916D01*
X164819411Y-67824916D02*
X164771792Y-67729678D01*
X164771792Y-67729678D02*
X164771792Y-67634440D01*
X164771792Y-67634440D02*
X164819411Y-67539202D01*
X164819411Y-67539202D02*
X164867030Y-67491583D01*
X164867030Y-67491583D02*
X164962268Y-67443964D01*
X164962268Y-67443964D02*
X165152744Y-67396345D01*
X165152744Y-67396345D02*
X165247982Y-67348726D01*
X165247982Y-67348726D02*
X165295601Y-67301107D01*
X165295601Y-67301107D02*
X165343220Y-67205869D01*
X165343220Y-67205869D02*
X165343220Y-67110631D01*
X165343220Y-67110631D02*
X165295601Y-67015393D01*
X165295601Y-67015393D02*
X165247982Y-66967774D01*
X165247982Y-66967774D02*
X165152744Y-66920155D01*
X165152744Y-66920155D02*
X164914649Y-66920155D01*
X164914649Y-66920155D02*
X164771792Y-66967774D01*
X164009887Y-67396345D02*
X163867030Y-67443964D01*
X163867030Y-67443964D02*
X163819411Y-67491583D01*
X163819411Y-67491583D02*
X163771792Y-67586821D01*
X163771792Y-67586821D02*
X163771792Y-67729678D01*
X163771792Y-67729678D02*
X163819411Y-67824916D01*
X163819411Y-67824916D02*
X163867030Y-67872536D01*
X163867030Y-67872536D02*
X163962268Y-67920155D01*
X163962268Y-67920155D02*
X164343220Y-67920155D01*
X164343220Y-67920155D02*
X164343220Y-66920155D01*
X164343220Y-66920155D02*
X164009887Y-66920155D01*
X164009887Y-66920155D02*
X163914649Y-66967774D01*
X163914649Y-66967774D02*
X163867030Y-67015393D01*
X163867030Y-67015393D02*
X163819411Y-67110631D01*
X163819411Y-67110631D02*
X163819411Y-67205869D01*
X163819411Y-67205869D02*
X163867030Y-67301107D01*
X163867030Y-67301107D02*
X163914649Y-67348726D01*
X163914649Y-67348726D02*
X164009887Y-67396345D01*
X164009887Y-67396345D02*
X164343220Y-67396345D01*
X163581316Y-68015393D02*
X162819411Y-68015393D01*
X162009887Y-67824916D02*
X162057506Y-67872536D01*
X162057506Y-67872536D02*
X162200363Y-67920155D01*
X162200363Y-67920155D02*
X162295601Y-67920155D01*
X162295601Y-67920155D02*
X162438458Y-67872536D01*
X162438458Y-67872536D02*
X162533696Y-67777297D01*
X162533696Y-67777297D02*
X162581315Y-67682059D01*
X162581315Y-67682059D02*
X162628934Y-67491583D01*
X162628934Y-67491583D02*
X162628934Y-67348726D01*
X162628934Y-67348726D02*
X162581315Y-67158250D01*
X162581315Y-67158250D02*
X162533696Y-67063012D01*
X162533696Y-67063012D02*
X162438458Y-66967774D01*
X162438458Y-66967774D02*
X162295601Y-66920155D01*
X162295601Y-66920155D02*
X162200363Y-66920155D01*
X162200363Y-66920155D02*
X162057506Y-66967774D01*
X162057506Y-66967774D02*
X162009887Y-67015393D01*
X161581315Y-67824916D02*
X161533696Y-67872536D01*
X161533696Y-67872536D02*
X161581315Y-67920155D01*
X161581315Y-67920155D02*
X161628934Y-67872536D01*
X161628934Y-67872536D02*
X161581315Y-67824916D01*
X161581315Y-67824916D02*
X161581315Y-67920155D01*
X161152744Y-67015393D02*
X161105125Y-66967774D01*
X161105125Y-66967774D02*
X161009887Y-66920155D01*
X161009887Y-66920155D02*
X160771792Y-66920155D01*
X160771792Y-66920155D02*
X160676554Y-66967774D01*
X160676554Y-66967774D02*
X160628935Y-67015393D01*
X160628935Y-67015393D02*
X160581316Y-67110631D01*
X160581316Y-67110631D02*
X160581316Y-67205869D01*
X160581316Y-67205869D02*
X160628935Y-67348726D01*
X160628935Y-67348726D02*
X161200363Y-67920155D01*
X161200363Y-67920155D02*
X160581316Y-67920155D01*
X159438458Y-67872536D02*
X159295601Y-67920155D01*
X159295601Y-67920155D02*
X159057506Y-67920155D01*
X159057506Y-67920155D02*
X158962268Y-67872536D01*
X158962268Y-67872536D02*
X158914649Y-67824916D01*
X158914649Y-67824916D02*
X158867030Y-67729678D01*
X158867030Y-67729678D02*
X158867030Y-67634440D01*
X158867030Y-67634440D02*
X158914649Y-67539202D01*
X158914649Y-67539202D02*
X158962268Y-67491583D01*
X158962268Y-67491583D02*
X159057506Y-67443964D01*
X159057506Y-67443964D02*
X159247982Y-67396345D01*
X159247982Y-67396345D02*
X159343220Y-67348726D01*
X159343220Y-67348726D02*
X159390839Y-67301107D01*
X159390839Y-67301107D02*
X159438458Y-67205869D01*
X159438458Y-67205869D02*
X159438458Y-67110631D01*
X159438458Y-67110631D02*
X159390839Y-67015393D01*
X159390839Y-67015393D02*
X159343220Y-66967774D01*
X159343220Y-66967774D02*
X159247982Y-66920155D01*
X159247982Y-66920155D02*
X159009887Y-66920155D01*
X159009887Y-66920155D02*
X158867030Y-66967774D01*
X158057506Y-67872536D02*
X158152744Y-67920155D01*
X158152744Y-67920155D02*
X158343220Y-67920155D01*
X158343220Y-67920155D02*
X158438458Y-67872536D01*
X158438458Y-67872536D02*
X158486077Y-67777297D01*
X158486077Y-67777297D02*
X158486077Y-67396345D01*
X158486077Y-67396345D02*
X158438458Y-67301107D01*
X158438458Y-67301107D02*
X158343220Y-67253488D01*
X158343220Y-67253488D02*
X158152744Y-67253488D01*
X158152744Y-67253488D02*
X158057506Y-67301107D01*
X158057506Y-67301107D02*
X158009887Y-67396345D01*
X158009887Y-67396345D02*
X158009887Y-67491583D01*
X158009887Y-67491583D02*
X158486077Y-67586821D01*
X157152744Y-67872536D02*
X157247982Y-67920155D01*
X157247982Y-67920155D02*
X157438458Y-67920155D01*
X157438458Y-67920155D02*
X157533696Y-67872536D01*
X157533696Y-67872536D02*
X157581315Y-67824916D01*
X157581315Y-67824916D02*
X157628934Y-67729678D01*
X157628934Y-67729678D02*
X157628934Y-67443964D01*
X157628934Y-67443964D02*
X157581315Y-67348726D01*
X157581315Y-67348726D02*
X157533696Y-67301107D01*
X157533696Y-67301107D02*
X157438458Y-67253488D01*
X157438458Y-67253488D02*
X157247982Y-67253488D01*
X157247982Y-67253488D02*
X157152744Y-67301107D01*
X156581315Y-67920155D02*
X156676553Y-67872536D01*
X156676553Y-67872536D02*
X156724172Y-67824916D01*
X156724172Y-67824916D02*
X156771791Y-67729678D01*
X156771791Y-67729678D02*
X156771791Y-67443964D01*
X156771791Y-67443964D02*
X156724172Y-67348726D01*
X156724172Y-67348726D02*
X156676553Y-67301107D01*
X156676553Y-67301107D02*
X156581315Y-67253488D01*
X156581315Y-67253488D02*
X156438458Y-67253488D01*
X156438458Y-67253488D02*
X156343220Y-67301107D01*
X156343220Y-67301107D02*
X156295601Y-67348726D01*
X156295601Y-67348726D02*
X156247982Y-67443964D01*
X156247982Y-67443964D02*
X156247982Y-67729678D01*
X156247982Y-67729678D02*
X156295601Y-67824916D01*
X156295601Y-67824916D02*
X156343220Y-67872536D01*
X156343220Y-67872536D02*
X156438458Y-67920155D01*
X156438458Y-67920155D02*
X156581315Y-67920155D01*
X155819410Y-67253488D02*
X155819410Y-67920155D01*
X155819410Y-67348726D02*
X155771791Y-67301107D01*
X155771791Y-67301107D02*
X155676553Y-67253488D01*
X155676553Y-67253488D02*
X155533696Y-67253488D01*
X155533696Y-67253488D02*
X155438458Y-67301107D01*
X155438458Y-67301107D02*
X155390839Y-67396345D01*
X155390839Y-67396345D02*
X155390839Y-67920155D01*
X154486077Y-67920155D02*
X154486077Y-66920155D01*
X154486077Y-67872536D02*
X154581315Y-67920155D01*
X154581315Y-67920155D02*
X154771791Y-67920155D01*
X154771791Y-67920155D02*
X154867029Y-67872536D01*
X154867029Y-67872536D02*
X154914648Y-67824916D01*
X154914648Y-67824916D02*
X154962267Y-67729678D01*
X154962267Y-67729678D02*
X154962267Y-67443964D01*
X154962267Y-67443964D02*
X154914648Y-67348726D01*
X154914648Y-67348726D02*
X154867029Y-67301107D01*
X154867029Y-67301107D02*
X154771791Y-67253488D01*
X154771791Y-67253488D02*
X154581315Y-67253488D01*
X154581315Y-67253488D02*
X154486077Y-67301107D01*
X153581315Y-67920155D02*
X153581315Y-67396345D01*
X153581315Y-67396345D02*
X153628934Y-67301107D01*
X153628934Y-67301107D02*
X153724172Y-67253488D01*
X153724172Y-67253488D02*
X153914648Y-67253488D01*
X153914648Y-67253488D02*
X154009886Y-67301107D01*
X153581315Y-67872536D02*
X153676553Y-67920155D01*
X153676553Y-67920155D02*
X153914648Y-67920155D01*
X153914648Y-67920155D02*
X154009886Y-67872536D01*
X154009886Y-67872536D02*
X154057505Y-67777297D01*
X154057505Y-67777297D02*
X154057505Y-67682059D01*
X154057505Y-67682059D02*
X154009886Y-67586821D01*
X154009886Y-67586821D02*
X153914648Y-67539202D01*
X153914648Y-67539202D02*
X153676553Y-67539202D01*
X153676553Y-67539202D02*
X153581315Y-67491583D01*
X153105124Y-67920155D02*
X153105124Y-67253488D01*
X153105124Y-67443964D02*
X153057505Y-67348726D01*
X153057505Y-67348726D02*
X153009886Y-67301107D01*
X153009886Y-67301107D02*
X152914648Y-67253488D01*
X152914648Y-67253488D02*
X152819410Y-67253488D01*
X152581314Y-67253488D02*
X152343219Y-67920155D01*
X152105124Y-67253488D02*
X152343219Y-67920155D01*
X152343219Y-67920155D02*
X152438457Y-68158250D01*
X152438457Y-68158250D02*
X152486076Y-68205869D01*
X152486076Y-68205869D02*
X152581314Y-68253488D01*
X150962266Y-67920155D02*
X150962266Y-66920155D01*
X150962266Y-66920155D02*
X150724171Y-66920155D01*
X150724171Y-66920155D02*
X150581314Y-66967774D01*
X150581314Y-66967774D02*
X150486076Y-67063012D01*
X150486076Y-67063012D02*
X150438457Y-67158250D01*
X150438457Y-67158250D02*
X150390838Y-67348726D01*
X150390838Y-67348726D02*
X150390838Y-67491583D01*
X150390838Y-67491583D02*
X150438457Y-67682059D01*
X150438457Y-67682059D02*
X150486076Y-67777297D01*
X150486076Y-67777297D02*
X150581314Y-67872536D01*
X150581314Y-67872536D02*
X150724171Y-67920155D01*
X150724171Y-67920155D02*
X150962266Y-67920155D01*
X149533695Y-67920155D02*
X149533695Y-67396345D01*
X149533695Y-67396345D02*
X149581314Y-67301107D01*
X149581314Y-67301107D02*
X149676552Y-67253488D01*
X149676552Y-67253488D02*
X149867028Y-67253488D01*
X149867028Y-67253488D02*
X149962266Y-67301107D01*
X149533695Y-67872536D02*
X149628933Y-67920155D01*
X149628933Y-67920155D02*
X149867028Y-67920155D01*
X149867028Y-67920155D02*
X149962266Y-67872536D01*
X149962266Y-67872536D02*
X150009885Y-67777297D01*
X150009885Y-67777297D02*
X150009885Y-67682059D01*
X150009885Y-67682059D02*
X149962266Y-67586821D01*
X149962266Y-67586821D02*
X149867028Y-67539202D01*
X149867028Y-67539202D02*
X149628933Y-67539202D01*
X149628933Y-67539202D02*
X149533695Y-67491583D01*
X149200361Y-67253488D02*
X148819409Y-67253488D01*
X149057504Y-66920155D02*
X149057504Y-67777297D01*
X149057504Y-67777297D02*
X149009885Y-67872536D01*
X149009885Y-67872536D02*
X148914647Y-67920155D01*
X148914647Y-67920155D02*
X148819409Y-67920155D01*
X148057504Y-67920155D02*
X148057504Y-67396345D01*
X148057504Y-67396345D02*
X148105123Y-67301107D01*
X148105123Y-67301107D02*
X148200361Y-67253488D01*
X148200361Y-67253488D02*
X148390837Y-67253488D01*
X148390837Y-67253488D02*
X148486075Y-67301107D01*
X148057504Y-67872536D02*
X148152742Y-67920155D01*
X148152742Y-67920155D02*
X148390837Y-67920155D01*
X148390837Y-67920155D02*
X148486075Y-67872536D01*
X148486075Y-67872536D02*
X148533694Y-67777297D01*
X148533694Y-67777297D02*
X148533694Y-67682059D01*
X148533694Y-67682059D02*
X148486075Y-67586821D01*
X148486075Y-67586821D02*
X148390837Y-67539202D01*
X148390837Y-67539202D02*
X148152742Y-67539202D01*
X148152742Y-67539202D02*
X148057504Y-67491583D01*
X168343220Y-69149146D02*
X167581316Y-69149146D01*
X165819411Y-69530099D02*
X166390839Y-69530099D01*
X166105125Y-69530099D02*
X166105125Y-68530099D01*
X166105125Y-68530099D02*
X166200363Y-68672956D01*
X166200363Y-68672956D02*
X166295601Y-68768194D01*
X166295601Y-68768194D02*
X166390839Y-68815813D01*
X165200363Y-68530099D02*
X165105125Y-68530099D01*
X165105125Y-68530099D02*
X165009887Y-68577718D01*
X165009887Y-68577718D02*
X164962268Y-68625337D01*
X164962268Y-68625337D02*
X164914649Y-68720575D01*
X164914649Y-68720575D02*
X164867030Y-68911051D01*
X164867030Y-68911051D02*
X164867030Y-69149146D01*
X164867030Y-69149146D02*
X164914649Y-69339622D01*
X164914649Y-69339622D02*
X164962268Y-69434860D01*
X164962268Y-69434860D02*
X165009887Y-69482480D01*
X165009887Y-69482480D02*
X165105125Y-69530099D01*
X165105125Y-69530099D02*
X165200363Y-69530099D01*
X165200363Y-69530099D02*
X165295601Y-69482480D01*
X165295601Y-69482480D02*
X165343220Y-69434860D01*
X165343220Y-69434860D02*
X165390839Y-69339622D01*
X165390839Y-69339622D02*
X165438458Y-69149146D01*
X165438458Y-69149146D02*
X165438458Y-68911051D01*
X165438458Y-68911051D02*
X165390839Y-68720575D01*
X165390839Y-68720575D02*
X165343220Y-68625337D01*
X165343220Y-68625337D02*
X165295601Y-68577718D01*
X165295601Y-68577718D02*
X165200363Y-68530099D01*
X163724173Y-68482480D02*
X164581315Y-69768194D01*
X162867030Y-69530099D02*
X163438458Y-69530099D01*
X163152744Y-69530099D02*
X163152744Y-68530099D01*
X163152744Y-68530099D02*
X163247982Y-68672956D01*
X163247982Y-68672956D02*
X163343220Y-68768194D01*
X163343220Y-68768194D02*
X163438458Y-68815813D01*
X162247982Y-68530099D02*
X162152744Y-68530099D01*
X162152744Y-68530099D02*
X162057506Y-68577718D01*
X162057506Y-68577718D02*
X162009887Y-68625337D01*
X162009887Y-68625337D02*
X161962268Y-68720575D01*
X161962268Y-68720575D02*
X161914649Y-68911051D01*
X161914649Y-68911051D02*
X161914649Y-69149146D01*
X161914649Y-69149146D02*
X161962268Y-69339622D01*
X161962268Y-69339622D02*
X162009887Y-69434860D01*
X162009887Y-69434860D02*
X162057506Y-69482480D01*
X162057506Y-69482480D02*
X162152744Y-69530099D01*
X162152744Y-69530099D02*
X162247982Y-69530099D01*
X162247982Y-69530099D02*
X162343220Y-69482480D01*
X162343220Y-69482480D02*
X162390839Y-69434860D01*
X162390839Y-69434860D02*
X162438458Y-69339622D01*
X162438458Y-69339622D02*
X162486077Y-69149146D01*
X162486077Y-69149146D02*
X162486077Y-68911051D01*
X162486077Y-68911051D02*
X162438458Y-68720575D01*
X162438458Y-68720575D02*
X162390839Y-68625337D01*
X162390839Y-68625337D02*
X162343220Y-68577718D01*
X162343220Y-68577718D02*
X162247982Y-68530099D01*
X161295601Y-68530099D02*
X161200363Y-68530099D01*
X161200363Y-68530099D02*
X161105125Y-68577718D01*
X161105125Y-68577718D02*
X161057506Y-68625337D01*
X161057506Y-68625337D02*
X161009887Y-68720575D01*
X161009887Y-68720575D02*
X160962268Y-68911051D01*
X160962268Y-68911051D02*
X160962268Y-69149146D01*
X160962268Y-69149146D02*
X161009887Y-69339622D01*
X161009887Y-69339622D02*
X161057506Y-69434860D01*
X161057506Y-69434860D02*
X161105125Y-69482480D01*
X161105125Y-69482480D02*
X161200363Y-69530099D01*
X161200363Y-69530099D02*
X161295601Y-69530099D01*
X161295601Y-69530099D02*
X161390839Y-69482480D01*
X161390839Y-69482480D02*
X161438458Y-69434860D01*
X161438458Y-69434860D02*
X161486077Y-69339622D01*
X161486077Y-69339622D02*
X161533696Y-69149146D01*
X161533696Y-69149146D02*
X161533696Y-68911051D01*
X161533696Y-68911051D02*
X161486077Y-68720575D01*
X161486077Y-68720575D02*
X161438458Y-68625337D01*
X161438458Y-68625337D02*
X161390839Y-68577718D01*
X161390839Y-68577718D02*
X161295601Y-68530099D01*
X159771791Y-69530099D02*
X159771791Y-68530099D01*
X159771791Y-68530099D02*
X159438458Y-69244384D01*
X159438458Y-69244384D02*
X159105125Y-68530099D01*
X159105125Y-68530099D02*
X159105125Y-69530099D01*
X158628934Y-69530099D02*
X158628934Y-68530099D01*
X158628934Y-68911051D02*
X158533696Y-68863432D01*
X158533696Y-68863432D02*
X158343220Y-68863432D01*
X158343220Y-68863432D02*
X158247982Y-68911051D01*
X158247982Y-68911051D02*
X158200363Y-68958670D01*
X158200363Y-68958670D02*
X158152744Y-69053908D01*
X158152744Y-69053908D02*
X158152744Y-69339622D01*
X158152744Y-69339622D02*
X158200363Y-69434860D01*
X158200363Y-69434860D02*
X158247982Y-69482480D01*
X158247982Y-69482480D02*
X158343220Y-69530099D01*
X158343220Y-69530099D02*
X158533696Y-69530099D01*
X158533696Y-69530099D02*
X158628934Y-69482480D01*
X157724172Y-68863432D02*
X157724172Y-69863432D01*
X157724172Y-68911051D02*
X157628934Y-68863432D01*
X157628934Y-68863432D02*
X157438458Y-68863432D01*
X157438458Y-68863432D02*
X157343220Y-68911051D01*
X157343220Y-68911051D02*
X157295601Y-68958670D01*
X157295601Y-68958670D02*
X157247982Y-69053908D01*
X157247982Y-69053908D02*
X157247982Y-69339622D01*
X157247982Y-69339622D02*
X157295601Y-69434860D01*
X157295601Y-69434860D02*
X157343220Y-69482480D01*
X157343220Y-69482480D02*
X157438458Y-69530099D01*
X157438458Y-69530099D02*
X157628934Y-69530099D01*
X157628934Y-69530099D02*
X157724172Y-69482480D01*
X156867029Y-69482480D02*
X156771791Y-69530099D01*
X156771791Y-69530099D02*
X156581315Y-69530099D01*
X156581315Y-69530099D02*
X156486077Y-69482480D01*
X156486077Y-69482480D02*
X156438458Y-69387241D01*
X156438458Y-69387241D02*
X156438458Y-69339622D01*
X156438458Y-69339622D02*
X156486077Y-69244384D01*
X156486077Y-69244384D02*
X156581315Y-69196765D01*
X156581315Y-69196765D02*
X156724172Y-69196765D01*
X156724172Y-69196765D02*
X156819410Y-69149146D01*
X156819410Y-69149146D02*
X156867029Y-69053908D01*
X156867029Y-69053908D02*
X156867029Y-69006289D01*
X156867029Y-69006289D02*
X156819410Y-68911051D01*
X156819410Y-68911051D02*
X156724172Y-68863432D01*
X156724172Y-68863432D02*
X156581315Y-68863432D01*
X156581315Y-68863432D02*
X156486077Y-68911051D01*
X154676553Y-69530099D02*
X155009886Y-69053908D01*
X155247981Y-69530099D02*
X155247981Y-68530099D01*
X155247981Y-68530099D02*
X154867029Y-68530099D01*
X154867029Y-68530099D02*
X154771791Y-68577718D01*
X154771791Y-68577718D02*
X154724172Y-68625337D01*
X154724172Y-68625337D02*
X154676553Y-68720575D01*
X154676553Y-68720575D02*
X154676553Y-68863432D01*
X154676553Y-68863432D02*
X154724172Y-68958670D01*
X154724172Y-68958670D02*
X154771791Y-69006289D01*
X154771791Y-69006289D02*
X154867029Y-69053908D01*
X154867029Y-69053908D02*
X155247981Y-69053908D01*
X153962267Y-68530099D02*
X153962267Y-69244384D01*
X153962267Y-69244384D02*
X154009886Y-69387241D01*
X154009886Y-69387241D02*
X154105124Y-69482480D01*
X154105124Y-69482480D02*
X154247981Y-69530099D01*
X154247981Y-69530099D02*
X154343219Y-69530099D01*
X153057505Y-68863432D02*
X153057505Y-69530099D01*
X153295600Y-68482480D02*
X153533695Y-69196765D01*
X153533695Y-69196765D02*
X152914648Y-69196765D01*
X152057505Y-68530099D02*
X152533695Y-68530099D01*
X152533695Y-68530099D02*
X152581314Y-69006289D01*
X152581314Y-69006289D02*
X152533695Y-68958670D01*
X152533695Y-68958670D02*
X152438457Y-68911051D01*
X152438457Y-68911051D02*
X152200362Y-68911051D01*
X152200362Y-68911051D02*
X152105124Y-68958670D01*
X152105124Y-68958670D02*
X152057505Y-69006289D01*
X152057505Y-69006289D02*
X152009886Y-69101527D01*
X152009886Y-69101527D02*
X152009886Y-69339622D01*
X152009886Y-69339622D02*
X152057505Y-69434860D01*
X152057505Y-69434860D02*
X152105124Y-69482480D01*
X152105124Y-69482480D02*
X152200362Y-69530099D01*
X152200362Y-69530099D02*
X152438457Y-69530099D01*
X152438457Y-69530099D02*
X152533695Y-69482480D01*
X152533695Y-69482480D02*
X152581314Y-69434860D01*
X150819409Y-69006289D02*
X150486076Y-69006289D01*
X150343219Y-69530099D02*
X150819409Y-69530099D01*
X150819409Y-69530099D02*
X150819409Y-68530099D01*
X150819409Y-68530099D02*
X150343219Y-68530099D01*
X150057504Y-68863432D02*
X149676552Y-68863432D01*
X149914647Y-68530099D02*
X149914647Y-69387241D01*
X149914647Y-69387241D02*
X149867028Y-69482480D01*
X149867028Y-69482480D02*
X149771790Y-69530099D01*
X149771790Y-69530099D02*
X149676552Y-69530099D01*
X149343218Y-69530099D02*
X149343218Y-68530099D01*
X148914647Y-69530099D02*
X148914647Y-69006289D01*
X148914647Y-69006289D02*
X148962266Y-68911051D01*
X148962266Y-68911051D02*
X149057504Y-68863432D01*
X149057504Y-68863432D02*
X149200361Y-68863432D01*
X149200361Y-68863432D02*
X149295599Y-68911051D01*
X149295599Y-68911051D02*
X149343218Y-68958670D01*
X148057504Y-69482480D02*
X148152742Y-69530099D01*
X148152742Y-69530099D02*
X148343218Y-69530099D01*
X148343218Y-69530099D02*
X148438456Y-69482480D01*
X148438456Y-69482480D02*
X148486075Y-69387241D01*
X148486075Y-69387241D02*
X148486075Y-69006289D01*
X148486075Y-69006289D02*
X148438456Y-68911051D01*
X148438456Y-68911051D02*
X148343218Y-68863432D01*
X148343218Y-68863432D02*
X148152742Y-68863432D01*
X148152742Y-68863432D02*
X148057504Y-68911051D01*
X148057504Y-68911051D02*
X148009885Y-69006289D01*
X148009885Y-69006289D02*
X148009885Y-69101527D01*
X148009885Y-69101527D02*
X148486075Y-69196765D01*
X147581313Y-69530099D02*
X147581313Y-68863432D01*
X147581313Y-69053908D02*
X147533694Y-68958670D01*
X147533694Y-68958670D02*
X147486075Y-68911051D01*
X147486075Y-68911051D02*
X147390837Y-68863432D01*
X147390837Y-68863432D02*
X147295599Y-68863432D01*
X146962265Y-68863432D02*
X146962265Y-69530099D01*
X146962265Y-68958670D02*
X146914646Y-68911051D01*
X146914646Y-68911051D02*
X146819408Y-68863432D01*
X146819408Y-68863432D02*
X146676551Y-68863432D01*
X146676551Y-68863432D02*
X146581313Y-68911051D01*
X146581313Y-68911051D02*
X146533694Y-69006289D01*
X146533694Y-69006289D02*
X146533694Y-69530099D01*
X145676551Y-69482480D02*
X145771789Y-69530099D01*
X145771789Y-69530099D02*
X145962265Y-69530099D01*
X145962265Y-69530099D02*
X146057503Y-69482480D01*
X146057503Y-69482480D02*
X146105122Y-69387241D01*
X146105122Y-69387241D02*
X146105122Y-69006289D01*
X146105122Y-69006289D02*
X146057503Y-68911051D01*
X146057503Y-68911051D02*
X145962265Y-68863432D01*
X145962265Y-68863432D02*
X145771789Y-68863432D01*
X145771789Y-68863432D02*
X145676551Y-68911051D01*
X145676551Y-68911051D02*
X145628932Y-69006289D01*
X145628932Y-69006289D02*
X145628932Y-69101527D01*
X145628932Y-69101527D02*
X146105122Y-69196765D01*
X145343217Y-68863432D02*
X144962265Y-68863432D01*
X145200360Y-68530099D02*
X145200360Y-69387241D01*
X145200360Y-69387241D02*
X145152741Y-69482480D01*
X145152741Y-69482480D02*
X145057503Y-69530099D01*
X145057503Y-69530099D02*
X144962265Y-69530099D01*
X168343220Y-70759090D02*
X167581316Y-70759090D01*
X166343220Y-71140043D02*
X166343220Y-70140043D01*
X166343220Y-70140043D02*
X166009887Y-70854328D01*
X166009887Y-70854328D02*
X165676554Y-70140043D01*
X165676554Y-70140043D02*
X165676554Y-71140043D01*
X165200363Y-71140043D02*
X165200363Y-70473376D01*
X165200363Y-70140043D02*
X165247982Y-70187662D01*
X165247982Y-70187662D02*
X165200363Y-70235281D01*
X165200363Y-70235281D02*
X165152744Y-70187662D01*
X165152744Y-70187662D02*
X165200363Y-70140043D01*
X165200363Y-70140043D02*
X165200363Y-70235281D01*
X164295602Y-71092424D02*
X164390840Y-71140043D01*
X164390840Y-71140043D02*
X164581316Y-71140043D01*
X164581316Y-71140043D02*
X164676554Y-71092424D01*
X164676554Y-71092424D02*
X164724173Y-71044804D01*
X164724173Y-71044804D02*
X164771792Y-70949566D01*
X164771792Y-70949566D02*
X164771792Y-70663852D01*
X164771792Y-70663852D02*
X164724173Y-70568614D01*
X164724173Y-70568614D02*
X164676554Y-70520995D01*
X164676554Y-70520995D02*
X164581316Y-70473376D01*
X164581316Y-70473376D02*
X164390840Y-70473376D01*
X164390840Y-70473376D02*
X164295602Y-70520995D01*
X163867030Y-71140043D02*
X163867030Y-70473376D01*
X163867030Y-70663852D02*
X163819411Y-70568614D01*
X163819411Y-70568614D02*
X163771792Y-70520995D01*
X163771792Y-70520995D02*
X163676554Y-70473376D01*
X163676554Y-70473376D02*
X163581316Y-70473376D01*
X163105125Y-71140043D02*
X163200363Y-71092424D01*
X163200363Y-71092424D02*
X163247982Y-71044804D01*
X163247982Y-71044804D02*
X163295601Y-70949566D01*
X163295601Y-70949566D02*
X163295601Y-70663852D01*
X163295601Y-70663852D02*
X163247982Y-70568614D01*
X163247982Y-70568614D02*
X163200363Y-70520995D01*
X163200363Y-70520995D02*
X163105125Y-70473376D01*
X163105125Y-70473376D02*
X162962268Y-70473376D01*
X162962268Y-70473376D02*
X162867030Y-70520995D01*
X162867030Y-70520995D02*
X162819411Y-70568614D01*
X162819411Y-70568614D02*
X162771792Y-70663852D01*
X162771792Y-70663852D02*
X162771792Y-70949566D01*
X162771792Y-70949566D02*
X162819411Y-71044804D01*
X162819411Y-71044804D02*
X162867030Y-71092424D01*
X162867030Y-71092424D02*
X162962268Y-71140043D01*
X162962268Y-71140043D02*
X163105125Y-71140043D01*
X161628934Y-71092424D02*
X161486077Y-71140043D01*
X161486077Y-71140043D02*
X161247982Y-71140043D01*
X161247982Y-71140043D02*
X161152744Y-71092424D01*
X161152744Y-71092424D02*
X161105125Y-71044804D01*
X161105125Y-71044804D02*
X161057506Y-70949566D01*
X161057506Y-70949566D02*
X161057506Y-70854328D01*
X161057506Y-70854328D02*
X161105125Y-70759090D01*
X161105125Y-70759090D02*
X161152744Y-70711471D01*
X161152744Y-70711471D02*
X161247982Y-70663852D01*
X161247982Y-70663852D02*
X161438458Y-70616233D01*
X161438458Y-70616233D02*
X161533696Y-70568614D01*
X161533696Y-70568614D02*
X161581315Y-70520995D01*
X161581315Y-70520995D02*
X161628934Y-70425757D01*
X161628934Y-70425757D02*
X161628934Y-70330519D01*
X161628934Y-70330519D02*
X161581315Y-70235281D01*
X161581315Y-70235281D02*
X161533696Y-70187662D01*
X161533696Y-70187662D02*
X161438458Y-70140043D01*
X161438458Y-70140043D02*
X161200363Y-70140043D01*
X161200363Y-70140043D02*
X161057506Y-70187662D01*
X160628934Y-71140043D02*
X160628934Y-70140043D01*
X160628934Y-70140043D02*
X160390839Y-70140043D01*
X160390839Y-70140043D02*
X160247982Y-70187662D01*
X160247982Y-70187662D02*
X160152744Y-70282900D01*
X160152744Y-70282900D02*
X160105125Y-70378138D01*
X160105125Y-70378138D02*
X160057506Y-70568614D01*
X160057506Y-70568614D02*
X160057506Y-70711471D01*
X160057506Y-70711471D02*
X160105125Y-70901947D01*
X160105125Y-70901947D02*
X160152744Y-70997185D01*
X160152744Y-70997185D02*
X160247982Y-71092424D01*
X160247982Y-71092424D02*
X160390839Y-71140043D01*
X160390839Y-71140043D02*
X160628934Y-71140043D01*
X158914648Y-71092424D02*
X158771791Y-71140043D01*
X158771791Y-71140043D02*
X158533696Y-71140043D01*
X158533696Y-71140043D02*
X158438458Y-71092424D01*
X158438458Y-71092424D02*
X158390839Y-71044804D01*
X158390839Y-71044804D02*
X158343220Y-70949566D01*
X158343220Y-70949566D02*
X158343220Y-70854328D01*
X158343220Y-70854328D02*
X158390839Y-70759090D01*
X158390839Y-70759090D02*
X158438458Y-70711471D01*
X158438458Y-70711471D02*
X158533696Y-70663852D01*
X158533696Y-70663852D02*
X158724172Y-70616233D01*
X158724172Y-70616233D02*
X158819410Y-70568614D01*
X158819410Y-70568614D02*
X158867029Y-70520995D01*
X158867029Y-70520995D02*
X158914648Y-70425757D01*
X158914648Y-70425757D02*
X158914648Y-70330519D01*
X158914648Y-70330519D02*
X158867029Y-70235281D01*
X158867029Y-70235281D02*
X158819410Y-70187662D01*
X158819410Y-70187662D02*
X158724172Y-70140043D01*
X158724172Y-70140043D02*
X158486077Y-70140043D01*
X158486077Y-70140043D02*
X158343220Y-70187662D01*
X157771791Y-71140043D02*
X157867029Y-71092424D01*
X157867029Y-71092424D02*
X157914648Y-70997185D01*
X157914648Y-70997185D02*
X157914648Y-70140043D01*
X157247981Y-71140043D02*
X157343219Y-71092424D01*
X157343219Y-71092424D02*
X157390838Y-71044804D01*
X157390838Y-71044804D02*
X157438457Y-70949566D01*
X157438457Y-70949566D02*
X157438457Y-70663852D01*
X157438457Y-70663852D02*
X157390838Y-70568614D01*
X157390838Y-70568614D02*
X157343219Y-70520995D01*
X157343219Y-70520995D02*
X157247981Y-70473376D01*
X157247981Y-70473376D02*
X157105124Y-70473376D01*
X157105124Y-70473376D02*
X157009886Y-70520995D01*
X157009886Y-70520995D02*
X156962267Y-70568614D01*
X156962267Y-70568614D02*
X156914648Y-70663852D01*
X156914648Y-70663852D02*
X156914648Y-70949566D01*
X156914648Y-70949566D02*
X156962267Y-71044804D01*
X156962267Y-71044804D02*
X157009886Y-71092424D01*
X157009886Y-71092424D02*
X157105124Y-71140043D01*
X157105124Y-71140043D02*
X157247981Y-71140043D01*
X156628933Y-70473376D02*
X156247981Y-70473376D01*
X156486076Y-70140043D02*
X156486076Y-70997185D01*
X156486076Y-70997185D02*
X156438457Y-71092424D01*
X156438457Y-71092424D02*
X156343219Y-71140043D01*
X156343219Y-71140043D02*
X156247981Y-71140043D01*
X168343220Y-72369034D02*
X167581316Y-72369034D01*
X165914649Y-72083320D02*
X165914649Y-72749987D01*
X166152744Y-71702368D02*
X166390839Y-72416653D01*
X166390839Y-72416653D02*
X165771792Y-72416653D01*
X165247982Y-72178558D02*
X165343220Y-72130939D01*
X165343220Y-72130939D02*
X165390839Y-72083320D01*
X165390839Y-72083320D02*
X165438458Y-71988082D01*
X165438458Y-71988082D02*
X165438458Y-71940463D01*
X165438458Y-71940463D02*
X165390839Y-71845225D01*
X165390839Y-71845225D02*
X165343220Y-71797606D01*
X165343220Y-71797606D02*
X165247982Y-71749987D01*
X165247982Y-71749987D02*
X165057506Y-71749987D01*
X165057506Y-71749987D02*
X164962268Y-71797606D01*
X164962268Y-71797606D02*
X164914649Y-71845225D01*
X164914649Y-71845225D02*
X164867030Y-71940463D01*
X164867030Y-71940463D02*
X164867030Y-71988082D01*
X164867030Y-71988082D02*
X164914649Y-72083320D01*
X164914649Y-72083320D02*
X164962268Y-72130939D01*
X164962268Y-72130939D02*
X165057506Y-72178558D01*
X165057506Y-72178558D02*
X165247982Y-72178558D01*
X165247982Y-72178558D02*
X165343220Y-72226177D01*
X165343220Y-72226177D02*
X165390839Y-72273796D01*
X165390839Y-72273796D02*
X165438458Y-72369034D01*
X165438458Y-72369034D02*
X165438458Y-72559510D01*
X165438458Y-72559510D02*
X165390839Y-72654748D01*
X165390839Y-72654748D02*
X165343220Y-72702368D01*
X165343220Y-72702368D02*
X165247982Y-72749987D01*
X165247982Y-72749987D02*
X165057506Y-72749987D01*
X165057506Y-72749987D02*
X164962268Y-72702368D01*
X164962268Y-72702368D02*
X164914649Y-72654748D01*
X164914649Y-72654748D02*
X164867030Y-72559510D01*
X164867030Y-72559510D02*
X164867030Y-72369034D01*
X164867030Y-72369034D02*
X164914649Y-72273796D01*
X164914649Y-72273796D02*
X164962268Y-72226177D01*
X164962268Y-72226177D02*
X165057506Y-72178558D01*
X163676553Y-72749987D02*
X163676553Y-71749987D01*
X163009887Y-71749987D02*
X162819411Y-71749987D01*
X162819411Y-71749987D02*
X162724173Y-71797606D01*
X162724173Y-71797606D02*
X162628935Y-71892844D01*
X162628935Y-71892844D02*
X162581316Y-72083320D01*
X162581316Y-72083320D02*
X162581316Y-72416653D01*
X162581316Y-72416653D02*
X162628935Y-72607129D01*
X162628935Y-72607129D02*
X162724173Y-72702368D01*
X162724173Y-72702368D02*
X162819411Y-72749987D01*
X162819411Y-72749987D02*
X163009887Y-72749987D01*
X163009887Y-72749987D02*
X163105125Y-72702368D01*
X163105125Y-72702368D02*
X163200363Y-72607129D01*
X163200363Y-72607129D02*
X163247982Y-72416653D01*
X163247982Y-72416653D02*
X163247982Y-72083320D01*
X163247982Y-72083320D02*
X163200363Y-71892844D01*
X163200363Y-71892844D02*
X163105125Y-71797606D01*
X163105125Y-71797606D02*
X163009887Y-71749987D01*
X161390839Y-72749987D02*
X161390839Y-71749987D01*
X161390839Y-71749987D02*
X161009887Y-71749987D01*
X161009887Y-71749987D02*
X160914649Y-71797606D01*
X160914649Y-71797606D02*
X160867030Y-71845225D01*
X160867030Y-71845225D02*
X160819411Y-71940463D01*
X160819411Y-71940463D02*
X160819411Y-72083320D01*
X160819411Y-72083320D02*
X160867030Y-72178558D01*
X160867030Y-72178558D02*
X160914649Y-72226177D01*
X160914649Y-72226177D02*
X161009887Y-72273796D01*
X161009887Y-72273796D02*
X161390839Y-72273796D01*
X160390839Y-72749987D02*
X160390839Y-72083320D01*
X160390839Y-71749987D02*
X160438458Y-71797606D01*
X160438458Y-71797606D02*
X160390839Y-71845225D01*
X160390839Y-71845225D02*
X160343220Y-71797606D01*
X160343220Y-71797606D02*
X160390839Y-71749987D01*
X160390839Y-71749987D02*
X160390839Y-71845225D01*
X159914649Y-72083320D02*
X159914649Y-72749987D01*
X159914649Y-72178558D02*
X159867030Y-72130939D01*
X159867030Y-72130939D02*
X159771792Y-72083320D01*
X159771792Y-72083320D02*
X159628935Y-72083320D01*
X159628935Y-72083320D02*
X159533697Y-72130939D01*
X159533697Y-72130939D02*
X159486078Y-72226177D01*
X159486078Y-72226177D02*
X159486078Y-72749987D01*
X159057506Y-72702368D02*
X158962268Y-72749987D01*
X158962268Y-72749987D02*
X158771792Y-72749987D01*
X158771792Y-72749987D02*
X158676554Y-72702368D01*
X158676554Y-72702368D02*
X158628935Y-72607129D01*
X158628935Y-72607129D02*
X158628935Y-72559510D01*
X158628935Y-72559510D02*
X158676554Y-72464272D01*
X158676554Y-72464272D02*
X158771792Y-72416653D01*
X158771792Y-72416653D02*
X158914649Y-72416653D01*
X158914649Y-72416653D02*
X159009887Y-72369034D01*
X159009887Y-72369034D02*
X159057506Y-72273796D01*
X159057506Y-72273796D02*
X159057506Y-72226177D01*
X159057506Y-72226177D02*
X159009887Y-72130939D01*
X159009887Y-72130939D02*
X158914649Y-72083320D01*
X158914649Y-72083320D02*
X158771792Y-72083320D01*
X158771792Y-72083320D02*
X158676554Y-72130939D01*
X157152744Y-73130939D02*
X157200363Y-73083320D01*
X157200363Y-73083320D02*
X157295601Y-72940463D01*
X157295601Y-72940463D02*
X157343220Y-72845225D01*
X157343220Y-72845225D02*
X157390839Y-72702368D01*
X157390839Y-72702368D02*
X157438458Y-72464272D01*
X157438458Y-72464272D02*
X157438458Y-72273796D01*
X157438458Y-72273796D02*
X157390839Y-72035701D01*
X157390839Y-72035701D02*
X157343220Y-71892844D01*
X157343220Y-71892844D02*
X157295601Y-71797606D01*
X157295601Y-71797606D02*
X157200363Y-71654748D01*
X157200363Y-71654748D02*
X157152744Y-71607129D01*
X156771791Y-72369034D02*
X156009887Y-72369034D01*
X155009887Y-72749987D02*
X155581315Y-72749987D01*
X155295601Y-72749987D02*
X155295601Y-71749987D01*
X155295601Y-71749987D02*
X155390839Y-71892844D01*
X155390839Y-71892844D02*
X155486077Y-71988082D01*
X155486077Y-71988082D02*
X155581315Y-72035701D01*
X154057506Y-72749987D02*
X154628934Y-72749987D01*
X154343220Y-72749987D02*
X154343220Y-71749987D01*
X154343220Y-71749987D02*
X154438458Y-71892844D01*
X154438458Y-71892844D02*
X154533696Y-71988082D01*
X154533696Y-71988082D02*
X154628934Y-72035701D01*
X152867029Y-72083320D02*
X152867029Y-73083320D01*
X152867029Y-72130939D02*
X152771791Y-72083320D01*
X152771791Y-72083320D02*
X152581315Y-72083320D01*
X152581315Y-72083320D02*
X152486077Y-72130939D01*
X152486077Y-72130939D02*
X152438458Y-72178558D01*
X152438458Y-72178558D02*
X152390839Y-72273796D01*
X152390839Y-72273796D02*
X152390839Y-72559510D01*
X152390839Y-72559510D02*
X152438458Y-72654748D01*
X152438458Y-72654748D02*
X152486077Y-72702368D01*
X152486077Y-72702368D02*
X152581315Y-72749987D01*
X152581315Y-72749987D02*
X152771791Y-72749987D01*
X152771791Y-72749987D02*
X152867029Y-72702368D01*
X151962267Y-72749987D02*
X151962267Y-72083320D01*
X151962267Y-71749987D02*
X152009886Y-71797606D01*
X152009886Y-71797606D02*
X151962267Y-71845225D01*
X151962267Y-71845225D02*
X151914648Y-71797606D01*
X151914648Y-71797606D02*
X151962267Y-71749987D01*
X151962267Y-71749987D02*
X151962267Y-71845225D01*
X151486077Y-72083320D02*
X151486077Y-72749987D01*
X151486077Y-72178558D02*
X151438458Y-72130939D01*
X151438458Y-72130939D02*
X151343220Y-72083320D01*
X151343220Y-72083320D02*
X151200363Y-72083320D01*
X151200363Y-72083320D02*
X151105125Y-72130939D01*
X151105125Y-72130939D02*
X151057506Y-72226177D01*
X151057506Y-72226177D02*
X151057506Y-72749987D01*
X150628934Y-72702368D02*
X150533696Y-72749987D01*
X150533696Y-72749987D02*
X150343220Y-72749987D01*
X150343220Y-72749987D02*
X150247982Y-72702368D01*
X150247982Y-72702368D02*
X150200363Y-72607129D01*
X150200363Y-72607129D02*
X150200363Y-72559510D01*
X150200363Y-72559510D02*
X150247982Y-72464272D01*
X150247982Y-72464272D02*
X150343220Y-72416653D01*
X150343220Y-72416653D02*
X150486077Y-72416653D01*
X150486077Y-72416653D02*
X150581315Y-72369034D01*
X150581315Y-72369034D02*
X150628934Y-72273796D01*
X150628934Y-72273796D02*
X150628934Y-72226177D01*
X150628934Y-72226177D02*
X150581315Y-72130939D01*
X150581315Y-72130939D02*
X150486077Y-72083320D01*
X150486077Y-72083320D02*
X150343220Y-72083320D01*
X150343220Y-72083320D02*
X150247982Y-72130939D01*
X148581315Y-72083320D02*
X148581315Y-72749987D01*
X149009886Y-72083320D02*
X149009886Y-72607129D01*
X149009886Y-72607129D02*
X148962267Y-72702368D01*
X148962267Y-72702368D02*
X148867029Y-72749987D01*
X148867029Y-72749987D02*
X148724172Y-72749987D01*
X148724172Y-72749987D02*
X148628934Y-72702368D01*
X148628934Y-72702368D02*
X148581315Y-72654748D01*
X148152743Y-72702368D02*
X148057505Y-72749987D01*
X148057505Y-72749987D02*
X147867029Y-72749987D01*
X147867029Y-72749987D02*
X147771791Y-72702368D01*
X147771791Y-72702368D02*
X147724172Y-72607129D01*
X147724172Y-72607129D02*
X147724172Y-72559510D01*
X147724172Y-72559510D02*
X147771791Y-72464272D01*
X147771791Y-72464272D02*
X147867029Y-72416653D01*
X147867029Y-72416653D02*
X148009886Y-72416653D01*
X148009886Y-72416653D02*
X148105124Y-72369034D01*
X148105124Y-72369034D02*
X148152743Y-72273796D01*
X148152743Y-72273796D02*
X148152743Y-72226177D01*
X148152743Y-72226177D02*
X148105124Y-72130939D01*
X148105124Y-72130939D02*
X148009886Y-72083320D01*
X148009886Y-72083320D02*
X147867029Y-72083320D01*
X147867029Y-72083320D02*
X147771791Y-72130939D01*
X146914648Y-72702368D02*
X147009886Y-72749987D01*
X147009886Y-72749987D02*
X147200362Y-72749987D01*
X147200362Y-72749987D02*
X147295600Y-72702368D01*
X147295600Y-72702368D02*
X147343219Y-72607129D01*
X147343219Y-72607129D02*
X147343219Y-72226177D01*
X147343219Y-72226177D02*
X147295600Y-72130939D01*
X147295600Y-72130939D02*
X147200362Y-72083320D01*
X147200362Y-72083320D02*
X147009886Y-72083320D01*
X147009886Y-72083320D02*
X146914648Y-72130939D01*
X146914648Y-72130939D02*
X146867029Y-72226177D01*
X146867029Y-72226177D02*
X146867029Y-72321415D01*
X146867029Y-72321415D02*
X147343219Y-72416653D01*
X146009886Y-72749987D02*
X146009886Y-71749987D01*
X146009886Y-72702368D02*
X146105124Y-72749987D01*
X146105124Y-72749987D02*
X146295600Y-72749987D01*
X146295600Y-72749987D02*
X146390838Y-72702368D01*
X146390838Y-72702368D02*
X146438457Y-72654748D01*
X146438457Y-72654748D02*
X146486076Y-72559510D01*
X146486076Y-72559510D02*
X146486076Y-72273796D01*
X146486076Y-72273796D02*
X146438457Y-72178558D01*
X146438457Y-72178558D02*
X146390838Y-72130939D01*
X146390838Y-72130939D02*
X146295600Y-72083320D01*
X146295600Y-72083320D02*
X146105124Y-72083320D01*
X146105124Y-72083320D02*
X146009886Y-72130939D01*
X144771790Y-72749987D02*
X144771790Y-71749987D01*
X144771790Y-72130939D02*
X144676552Y-72083320D01*
X144676552Y-72083320D02*
X144486076Y-72083320D01*
X144486076Y-72083320D02*
X144390838Y-72130939D01*
X144390838Y-72130939D02*
X144343219Y-72178558D01*
X144343219Y-72178558D02*
X144295600Y-72273796D01*
X144295600Y-72273796D02*
X144295600Y-72559510D01*
X144295600Y-72559510D02*
X144343219Y-72654748D01*
X144343219Y-72654748D02*
X144390838Y-72702368D01*
X144390838Y-72702368D02*
X144486076Y-72749987D01*
X144486076Y-72749987D02*
X144676552Y-72749987D01*
X144676552Y-72749987D02*
X144771790Y-72702368D01*
X143962266Y-72083320D02*
X143724171Y-72749987D01*
X143486076Y-72083320D02*
X143724171Y-72749987D01*
X143724171Y-72749987D02*
X143819409Y-72988082D01*
X143819409Y-72988082D02*
X143867028Y-73035701D01*
X143867028Y-73035701D02*
X143962266Y-73083320D01*
X141771790Y-72749987D02*
X142105123Y-72273796D01*
X142343218Y-72749987D02*
X142343218Y-71749987D01*
X142343218Y-71749987D02*
X141962266Y-71749987D01*
X141962266Y-71749987D02*
X141867028Y-71797606D01*
X141867028Y-71797606D02*
X141819409Y-71845225D01*
X141819409Y-71845225D02*
X141771790Y-71940463D01*
X141771790Y-71940463D02*
X141771790Y-72083320D01*
X141771790Y-72083320D02*
X141819409Y-72178558D01*
X141819409Y-72178558D02*
X141867028Y-72226177D01*
X141867028Y-72226177D02*
X141962266Y-72273796D01*
X141962266Y-72273796D02*
X142343218Y-72273796D01*
X141390837Y-72464272D02*
X140914647Y-72464272D01*
X141486075Y-72749987D02*
X141152742Y-71749987D01*
X141152742Y-71749987D02*
X140819409Y-72749987D01*
X140486075Y-72749987D02*
X140486075Y-71749987D01*
X140486075Y-71749987D02*
X140152742Y-72464272D01*
X140152742Y-72464272D02*
X139819409Y-71749987D01*
X139819409Y-71749987D02*
X139819409Y-72749987D01*
X139295599Y-72702368D02*
X139295599Y-72749987D01*
X139295599Y-72749987D02*
X139343218Y-72845225D01*
X139343218Y-72845225D02*
X139390837Y-72892844D01*
X156247983Y-73836121D02*
X156581316Y-73836121D01*
X156581316Y-74359931D02*
X156581316Y-73359931D01*
X156581316Y-73359931D02*
X156105126Y-73359931D01*
X155581316Y-74359931D02*
X155676554Y-74312312D01*
X155676554Y-74312312D02*
X155724173Y-74217073D01*
X155724173Y-74217073D02*
X155724173Y-73359931D01*
X154771792Y-74359931D02*
X154771792Y-73836121D01*
X154771792Y-73836121D02*
X154819411Y-73740883D01*
X154819411Y-73740883D02*
X154914649Y-73693264D01*
X154914649Y-73693264D02*
X155105125Y-73693264D01*
X155105125Y-73693264D02*
X155200363Y-73740883D01*
X154771792Y-74312312D02*
X154867030Y-74359931D01*
X154867030Y-74359931D02*
X155105125Y-74359931D01*
X155105125Y-74359931D02*
X155200363Y-74312312D01*
X155200363Y-74312312D02*
X155247982Y-74217073D01*
X155247982Y-74217073D02*
X155247982Y-74121835D01*
X155247982Y-74121835D02*
X155200363Y-74026597D01*
X155200363Y-74026597D02*
X155105125Y-73978978D01*
X155105125Y-73978978D02*
X154867030Y-73978978D01*
X154867030Y-73978978D02*
X154771792Y-73931359D01*
X154343220Y-74312312D02*
X154247982Y-74359931D01*
X154247982Y-74359931D02*
X154057506Y-74359931D01*
X154057506Y-74359931D02*
X153962268Y-74312312D01*
X153962268Y-74312312D02*
X153914649Y-74217073D01*
X153914649Y-74217073D02*
X153914649Y-74169454D01*
X153914649Y-74169454D02*
X153962268Y-74074216D01*
X153962268Y-74074216D02*
X154057506Y-74026597D01*
X154057506Y-74026597D02*
X154200363Y-74026597D01*
X154200363Y-74026597D02*
X154295601Y-73978978D01*
X154295601Y-73978978D02*
X154343220Y-73883740D01*
X154343220Y-73883740D02*
X154343220Y-73836121D01*
X154343220Y-73836121D02*
X154295601Y-73740883D01*
X154295601Y-73740883D02*
X154200363Y-73693264D01*
X154200363Y-73693264D02*
X154057506Y-73693264D01*
X154057506Y-73693264D02*
X153962268Y-73740883D01*
X153486077Y-74359931D02*
X153486077Y-73359931D01*
X153057506Y-74359931D02*
X153057506Y-73836121D01*
X153057506Y-73836121D02*
X153105125Y-73740883D01*
X153105125Y-73740883D02*
X153200363Y-73693264D01*
X153200363Y-73693264D02*
X153343220Y-73693264D01*
X153343220Y-73693264D02*
X153438458Y-73740883D01*
X153438458Y-73740883D02*
X153486077Y-73788502D01*
X151009886Y-74359931D02*
X151057506Y-74359931D01*
X151057506Y-74359931D02*
X151152744Y-74312312D01*
X151152744Y-74312312D02*
X151295601Y-74169454D01*
X151295601Y-74169454D02*
X151533696Y-73883740D01*
X151533696Y-73883740D02*
X151628934Y-73740883D01*
X151628934Y-73740883D02*
X151676553Y-73598026D01*
X151676553Y-73598026D02*
X151676553Y-73502788D01*
X151676553Y-73502788D02*
X151628934Y-73407550D01*
X151628934Y-73407550D02*
X151533696Y-73359931D01*
X151533696Y-73359931D02*
X151486077Y-73359931D01*
X151486077Y-73359931D02*
X151390839Y-73407550D01*
X151390839Y-73407550D02*
X151343220Y-73502788D01*
X151343220Y-73502788D02*
X151343220Y-73550407D01*
X151343220Y-73550407D02*
X151390839Y-73645645D01*
X151390839Y-73645645D02*
X151438458Y-73693264D01*
X151438458Y-73693264D02*
X151724172Y-73883740D01*
X151724172Y-73883740D02*
X151771791Y-73931359D01*
X151771791Y-73931359D02*
X151819410Y-74026597D01*
X151819410Y-74026597D02*
X151819410Y-74169454D01*
X151819410Y-74169454D02*
X151771791Y-74264692D01*
X151771791Y-74264692D02*
X151724172Y-74312312D01*
X151724172Y-74312312D02*
X151628934Y-74359931D01*
X151628934Y-74359931D02*
X151486077Y-74359931D01*
X151486077Y-74359931D02*
X151390839Y-74312312D01*
X151390839Y-74312312D02*
X151343220Y-74264692D01*
X151343220Y-74264692D02*
X151200363Y-74074216D01*
X151200363Y-74074216D02*
X151152744Y-73931359D01*
X151152744Y-73931359D02*
X151152744Y-73836121D01*
X149867029Y-74312312D02*
X149724172Y-74359931D01*
X149724172Y-74359931D02*
X149486077Y-74359931D01*
X149486077Y-74359931D02*
X149390839Y-74312312D01*
X149390839Y-74312312D02*
X149343220Y-74264692D01*
X149343220Y-74264692D02*
X149295601Y-74169454D01*
X149295601Y-74169454D02*
X149295601Y-74074216D01*
X149295601Y-74074216D02*
X149343220Y-73978978D01*
X149343220Y-73978978D02*
X149390839Y-73931359D01*
X149390839Y-73931359D02*
X149486077Y-73883740D01*
X149486077Y-73883740D02*
X149676553Y-73836121D01*
X149676553Y-73836121D02*
X149771791Y-73788502D01*
X149771791Y-73788502D02*
X149819410Y-73740883D01*
X149819410Y-73740883D02*
X149867029Y-73645645D01*
X149867029Y-73645645D02*
X149867029Y-73550407D01*
X149867029Y-73550407D02*
X149819410Y-73455169D01*
X149819410Y-73455169D02*
X149771791Y-73407550D01*
X149771791Y-73407550D02*
X149676553Y-73359931D01*
X149676553Y-73359931D02*
X149438458Y-73359931D01*
X149438458Y-73359931D02*
X149295601Y-73407550D01*
X148867029Y-74359931D02*
X148867029Y-73359931D01*
X148867029Y-73359931D02*
X148628934Y-73359931D01*
X148628934Y-73359931D02*
X148486077Y-73407550D01*
X148486077Y-73407550D02*
X148390839Y-73502788D01*
X148390839Y-73502788D02*
X148343220Y-73598026D01*
X148343220Y-73598026D02*
X148295601Y-73788502D01*
X148295601Y-73788502D02*
X148295601Y-73931359D01*
X148295601Y-73931359D02*
X148343220Y-74121835D01*
X148343220Y-74121835D02*
X148390839Y-74217073D01*
X148390839Y-74217073D02*
X148486077Y-74312312D01*
X148486077Y-74312312D02*
X148628934Y-74359931D01*
X148628934Y-74359931D02*
X148867029Y-74359931D01*
X146676553Y-74312312D02*
X146771791Y-74359931D01*
X146771791Y-74359931D02*
X146962267Y-74359931D01*
X146962267Y-74359931D02*
X147057505Y-74312312D01*
X147057505Y-74312312D02*
X147105124Y-74264692D01*
X147105124Y-74264692D02*
X147152743Y-74169454D01*
X147152743Y-74169454D02*
X147152743Y-73883740D01*
X147152743Y-73883740D02*
X147105124Y-73788502D01*
X147105124Y-73788502D02*
X147057505Y-73740883D01*
X147057505Y-73740883D02*
X146962267Y-73693264D01*
X146962267Y-73693264D02*
X146771791Y-73693264D01*
X146771791Y-73693264D02*
X146676553Y-73740883D01*
X145819410Y-74359931D02*
X145819410Y-73836121D01*
X145819410Y-73836121D02*
X145867029Y-73740883D01*
X145867029Y-73740883D02*
X145962267Y-73693264D01*
X145962267Y-73693264D02*
X146152743Y-73693264D01*
X146152743Y-73693264D02*
X146247981Y-73740883D01*
X145819410Y-74312312D02*
X145914648Y-74359931D01*
X145914648Y-74359931D02*
X146152743Y-74359931D01*
X146152743Y-74359931D02*
X146247981Y-74312312D01*
X146247981Y-74312312D02*
X146295600Y-74217073D01*
X146295600Y-74217073D02*
X146295600Y-74121835D01*
X146295600Y-74121835D02*
X146247981Y-74026597D01*
X146247981Y-74026597D02*
X146152743Y-73978978D01*
X146152743Y-73978978D02*
X145914648Y-73978978D01*
X145914648Y-73978978D02*
X145819410Y-73931359D01*
X145343219Y-74359931D02*
X145343219Y-73693264D01*
X145343219Y-73883740D02*
X145295600Y-73788502D01*
X145295600Y-73788502D02*
X145247981Y-73740883D01*
X145247981Y-73740883D02*
X145152743Y-73693264D01*
X145152743Y-73693264D02*
X145057505Y-73693264D01*
X144295600Y-74359931D02*
X144295600Y-73359931D01*
X144295600Y-74312312D02*
X144390838Y-74359931D01*
X144390838Y-74359931D02*
X144581314Y-74359931D01*
X144581314Y-74359931D02*
X144676552Y-74312312D01*
X144676552Y-74312312D02*
X144724171Y-74264692D01*
X144724171Y-74264692D02*
X144771790Y-74169454D01*
X144771790Y-74169454D02*
X144771790Y-73883740D01*
X144771790Y-73883740D02*
X144724171Y-73788502D01*
X144724171Y-73788502D02*
X144676552Y-73740883D01*
X144676552Y-73740883D02*
X144581314Y-73693264D01*
X144581314Y-73693264D02*
X144390838Y-73693264D01*
X144390838Y-73693264D02*
X144295600Y-73740883D01*
X143914647Y-74740883D02*
X143867028Y-74693264D01*
X143867028Y-74693264D02*
X143771790Y-74550407D01*
X143771790Y-74550407D02*
X143724171Y-74455169D01*
X143724171Y-74455169D02*
X143676552Y-74312312D01*
X143676552Y-74312312D02*
X143628933Y-74074216D01*
X143628933Y-74074216D02*
X143628933Y-73883740D01*
X143628933Y-73883740D02*
X143676552Y-73645645D01*
X143676552Y-73645645D02*
X143724171Y-73502788D01*
X143724171Y-73502788D02*
X143771790Y-73407550D01*
X143771790Y-73407550D02*
X143867028Y-73264692D01*
X143867028Y-73264692D02*
X143914647Y-73217073D01*
X168343220Y-75588922D02*
X167581316Y-75588922D01*
X166152744Y-74969875D02*
X165962268Y-74969875D01*
X165962268Y-74969875D02*
X165867030Y-75017494D01*
X165867030Y-75017494D02*
X165771792Y-75112732D01*
X165771792Y-75112732D02*
X165724173Y-75303208D01*
X165724173Y-75303208D02*
X165724173Y-75636541D01*
X165724173Y-75636541D02*
X165771792Y-75827017D01*
X165771792Y-75827017D02*
X165867030Y-75922256D01*
X165867030Y-75922256D02*
X165962268Y-75969875D01*
X165962268Y-75969875D02*
X166152744Y-75969875D01*
X166152744Y-75969875D02*
X166247982Y-75922256D01*
X166247982Y-75922256D02*
X166343220Y-75827017D01*
X166343220Y-75827017D02*
X166390839Y-75636541D01*
X166390839Y-75636541D02*
X166390839Y-75303208D01*
X166390839Y-75303208D02*
X166343220Y-75112732D01*
X166343220Y-75112732D02*
X166247982Y-75017494D01*
X166247982Y-75017494D02*
X166152744Y-74969875D01*
X165295601Y-75303208D02*
X165295601Y-76303208D01*
X165295601Y-75350827D02*
X165200363Y-75303208D01*
X165200363Y-75303208D02*
X165009887Y-75303208D01*
X165009887Y-75303208D02*
X164914649Y-75350827D01*
X164914649Y-75350827D02*
X164867030Y-75398446D01*
X164867030Y-75398446D02*
X164819411Y-75493684D01*
X164819411Y-75493684D02*
X164819411Y-75779398D01*
X164819411Y-75779398D02*
X164867030Y-75874636D01*
X164867030Y-75874636D02*
X164914649Y-75922256D01*
X164914649Y-75922256D02*
X165009887Y-75969875D01*
X165009887Y-75969875D02*
X165200363Y-75969875D01*
X165200363Y-75969875D02*
X165295601Y-75922256D01*
X164533696Y-75303208D02*
X164152744Y-75303208D01*
X164390839Y-74969875D02*
X164390839Y-75827017D01*
X164390839Y-75827017D02*
X164343220Y-75922256D01*
X164343220Y-75922256D02*
X164247982Y-75969875D01*
X164247982Y-75969875D02*
X164152744Y-75969875D01*
X163819410Y-75969875D02*
X163819410Y-75303208D01*
X163819410Y-74969875D02*
X163867029Y-75017494D01*
X163867029Y-75017494D02*
X163819410Y-75065113D01*
X163819410Y-75065113D02*
X163771791Y-75017494D01*
X163771791Y-75017494D02*
X163819410Y-74969875D01*
X163819410Y-74969875D02*
X163819410Y-75065113D01*
X163200363Y-75969875D02*
X163295601Y-75922256D01*
X163295601Y-75922256D02*
X163343220Y-75874636D01*
X163343220Y-75874636D02*
X163390839Y-75779398D01*
X163390839Y-75779398D02*
X163390839Y-75493684D01*
X163390839Y-75493684D02*
X163343220Y-75398446D01*
X163343220Y-75398446D02*
X163295601Y-75350827D01*
X163295601Y-75350827D02*
X163200363Y-75303208D01*
X163200363Y-75303208D02*
X163057506Y-75303208D01*
X163057506Y-75303208D02*
X162962268Y-75350827D01*
X162962268Y-75350827D02*
X162914649Y-75398446D01*
X162914649Y-75398446D02*
X162867030Y-75493684D01*
X162867030Y-75493684D02*
X162867030Y-75779398D01*
X162867030Y-75779398D02*
X162914649Y-75874636D01*
X162914649Y-75874636D02*
X162962268Y-75922256D01*
X162962268Y-75922256D02*
X163057506Y-75969875D01*
X163057506Y-75969875D02*
X163200363Y-75969875D01*
X162438458Y-75303208D02*
X162438458Y-75969875D01*
X162438458Y-75398446D02*
X162390839Y-75350827D01*
X162390839Y-75350827D02*
X162295601Y-75303208D01*
X162295601Y-75303208D02*
X162152744Y-75303208D01*
X162152744Y-75303208D02*
X162057506Y-75350827D01*
X162057506Y-75350827D02*
X162009887Y-75446065D01*
X162009887Y-75446065D02*
X162009887Y-75969875D01*
X161105125Y-75969875D02*
X161105125Y-75446065D01*
X161105125Y-75446065D02*
X161152744Y-75350827D01*
X161152744Y-75350827D02*
X161247982Y-75303208D01*
X161247982Y-75303208D02*
X161438458Y-75303208D01*
X161438458Y-75303208D02*
X161533696Y-75350827D01*
X161105125Y-75922256D02*
X161200363Y-75969875D01*
X161200363Y-75969875D02*
X161438458Y-75969875D01*
X161438458Y-75969875D02*
X161533696Y-75922256D01*
X161533696Y-75922256D02*
X161581315Y-75827017D01*
X161581315Y-75827017D02*
X161581315Y-75731779D01*
X161581315Y-75731779D02*
X161533696Y-75636541D01*
X161533696Y-75636541D02*
X161438458Y-75588922D01*
X161438458Y-75588922D02*
X161200363Y-75588922D01*
X161200363Y-75588922D02*
X161105125Y-75541303D01*
X160486077Y-75969875D02*
X160581315Y-75922256D01*
X160581315Y-75922256D02*
X160628934Y-75827017D01*
X160628934Y-75827017D02*
X160628934Y-74969875D01*
X159200362Y-75398446D02*
X159295600Y-75350827D01*
X159295600Y-75350827D02*
X159343219Y-75303208D01*
X159343219Y-75303208D02*
X159390838Y-75207970D01*
X159390838Y-75207970D02*
X159390838Y-75160351D01*
X159390838Y-75160351D02*
X159343219Y-75065113D01*
X159343219Y-75065113D02*
X159295600Y-75017494D01*
X159295600Y-75017494D02*
X159200362Y-74969875D01*
X159200362Y-74969875D02*
X159009886Y-74969875D01*
X159009886Y-74969875D02*
X158914648Y-75017494D01*
X158914648Y-75017494D02*
X158867029Y-75065113D01*
X158867029Y-75065113D02*
X158819410Y-75160351D01*
X158819410Y-75160351D02*
X158819410Y-75207970D01*
X158819410Y-75207970D02*
X158867029Y-75303208D01*
X158867029Y-75303208D02*
X158914648Y-75350827D01*
X158914648Y-75350827D02*
X159009886Y-75398446D01*
X159009886Y-75398446D02*
X159200362Y-75398446D01*
X159200362Y-75398446D02*
X159295600Y-75446065D01*
X159295600Y-75446065D02*
X159343219Y-75493684D01*
X159343219Y-75493684D02*
X159390838Y-75588922D01*
X159390838Y-75588922D02*
X159390838Y-75779398D01*
X159390838Y-75779398D02*
X159343219Y-75874636D01*
X159343219Y-75874636D02*
X159295600Y-75922256D01*
X159295600Y-75922256D02*
X159200362Y-75969875D01*
X159200362Y-75969875D02*
X159009886Y-75969875D01*
X159009886Y-75969875D02*
X158914648Y-75922256D01*
X158914648Y-75922256D02*
X158867029Y-75874636D01*
X158867029Y-75874636D02*
X158819410Y-75779398D01*
X158819410Y-75779398D02*
X158819410Y-75588922D01*
X158819410Y-75588922D02*
X158867029Y-75493684D01*
X158867029Y-75493684D02*
X158914648Y-75446065D01*
X158914648Y-75446065D02*
X159009886Y-75398446D01*
X157676553Y-74922256D02*
X158533695Y-76207970D01*
X156819410Y-75969875D02*
X157390838Y-75969875D01*
X157105124Y-75969875D02*
X157105124Y-74969875D01*
X157105124Y-74969875D02*
X157200362Y-75112732D01*
X157200362Y-75112732D02*
X157295600Y-75207970D01*
X157295600Y-75207970D02*
X157390838Y-75255589D01*
X155962267Y-74969875D02*
X156152743Y-74969875D01*
X156152743Y-74969875D02*
X156247981Y-75017494D01*
X156247981Y-75017494D02*
X156295600Y-75065113D01*
X156295600Y-75065113D02*
X156390838Y-75207970D01*
X156390838Y-75207970D02*
X156438457Y-75398446D01*
X156438457Y-75398446D02*
X156438457Y-75779398D01*
X156438457Y-75779398D02*
X156390838Y-75874636D01*
X156390838Y-75874636D02*
X156343219Y-75922256D01*
X156343219Y-75922256D02*
X156247981Y-75969875D01*
X156247981Y-75969875D02*
X156057505Y-75969875D01*
X156057505Y-75969875D02*
X155962267Y-75922256D01*
X155962267Y-75922256D02*
X155914648Y-75874636D01*
X155914648Y-75874636D02*
X155867029Y-75779398D01*
X155867029Y-75779398D02*
X155867029Y-75541303D01*
X155867029Y-75541303D02*
X155914648Y-75446065D01*
X155914648Y-75446065D02*
X155962267Y-75398446D01*
X155962267Y-75398446D02*
X156057505Y-75350827D01*
X156057505Y-75350827D02*
X156247981Y-75350827D01*
X156247981Y-75350827D02*
X156343219Y-75398446D01*
X156343219Y-75398446D02*
X156390838Y-75446065D01*
X156390838Y-75446065D02*
X156438457Y-75541303D01*
X155438457Y-75969875D02*
X155438457Y-75303208D01*
X155438457Y-75398446D02*
X155390838Y-75350827D01*
X155390838Y-75350827D02*
X155295600Y-75303208D01*
X155295600Y-75303208D02*
X155152743Y-75303208D01*
X155152743Y-75303208D02*
X155057505Y-75350827D01*
X155057505Y-75350827D02*
X155009886Y-75446065D01*
X155009886Y-75446065D02*
X155009886Y-75969875D01*
X155009886Y-75446065D02*
X154962267Y-75350827D01*
X154962267Y-75350827D02*
X154867029Y-75303208D01*
X154867029Y-75303208D02*
X154724172Y-75303208D01*
X154724172Y-75303208D02*
X154628933Y-75350827D01*
X154628933Y-75350827D02*
X154581314Y-75446065D01*
X154581314Y-75446065D02*
X154581314Y-75969875D01*
X154105124Y-75969875D02*
X154105124Y-74969875D01*
X154105124Y-75350827D02*
X154009886Y-75303208D01*
X154009886Y-75303208D02*
X153819410Y-75303208D01*
X153819410Y-75303208D02*
X153724172Y-75350827D01*
X153724172Y-75350827D02*
X153676553Y-75398446D01*
X153676553Y-75398446D02*
X153628934Y-75493684D01*
X153628934Y-75493684D02*
X153628934Y-75779398D01*
X153628934Y-75779398D02*
X153676553Y-75874636D01*
X153676553Y-75874636D02*
X153724172Y-75922256D01*
X153724172Y-75922256D02*
X153819410Y-75969875D01*
X153819410Y-75969875D02*
X154009886Y-75969875D01*
X154009886Y-75969875D02*
X154105124Y-75922256D01*
X152438457Y-75969875D02*
X152438457Y-74969875D01*
X152438457Y-74969875D02*
X152057505Y-74969875D01*
X152057505Y-74969875D02*
X151962267Y-75017494D01*
X151962267Y-75017494D02*
X151914648Y-75065113D01*
X151914648Y-75065113D02*
X151867029Y-75160351D01*
X151867029Y-75160351D02*
X151867029Y-75303208D01*
X151867029Y-75303208D02*
X151914648Y-75398446D01*
X151914648Y-75398446D02*
X151962267Y-75446065D01*
X151962267Y-75446065D02*
X152057505Y-75493684D01*
X152057505Y-75493684D02*
X152438457Y-75493684D01*
X151486076Y-75922256D02*
X151343219Y-75969875D01*
X151343219Y-75969875D02*
X151105124Y-75969875D01*
X151105124Y-75969875D02*
X151009886Y-75922256D01*
X151009886Y-75922256D02*
X150962267Y-75874636D01*
X150962267Y-75874636D02*
X150914648Y-75779398D01*
X150914648Y-75779398D02*
X150914648Y-75684160D01*
X150914648Y-75684160D02*
X150962267Y-75588922D01*
X150962267Y-75588922D02*
X151009886Y-75541303D01*
X151009886Y-75541303D02*
X151105124Y-75493684D01*
X151105124Y-75493684D02*
X151295600Y-75446065D01*
X151295600Y-75446065D02*
X151390838Y-75398446D01*
X151390838Y-75398446D02*
X151438457Y-75350827D01*
X151438457Y-75350827D02*
X151486076Y-75255589D01*
X151486076Y-75255589D02*
X151486076Y-75160351D01*
X151486076Y-75160351D02*
X151438457Y-75065113D01*
X151438457Y-75065113D02*
X151390838Y-75017494D01*
X151390838Y-75017494D02*
X151295600Y-74969875D01*
X151295600Y-74969875D02*
X151057505Y-74969875D01*
X151057505Y-74969875D02*
X150914648Y-75017494D01*
X149914648Y-75969875D02*
X150247981Y-75493684D01*
X150486076Y-75969875D02*
X150486076Y-74969875D01*
X150486076Y-74969875D02*
X150105124Y-74969875D01*
X150105124Y-74969875D02*
X150009886Y-75017494D01*
X150009886Y-75017494D02*
X149962267Y-75065113D01*
X149962267Y-75065113D02*
X149914648Y-75160351D01*
X149914648Y-75160351D02*
X149914648Y-75303208D01*
X149914648Y-75303208D02*
X149962267Y-75398446D01*
X149962267Y-75398446D02*
X150009886Y-75446065D01*
X150009886Y-75446065D02*
X150105124Y-75493684D01*
X150105124Y-75493684D02*
X150486076Y-75493684D01*
X149533695Y-75684160D02*
X149057505Y-75684160D01*
X149628933Y-75969875D02*
X149295600Y-74969875D01*
X149295600Y-74969875D02*
X148962267Y-75969875D01*
X148628933Y-75969875D02*
X148628933Y-74969875D01*
X148628933Y-74969875D02*
X148295600Y-75684160D01*
X148295600Y-75684160D02*
X147962267Y-74969875D01*
X147962267Y-74969875D02*
X147962267Y-75969875D01*
X168343220Y-77198866D02*
X167581316Y-77198866D01*
X166152744Y-76579819D02*
X165962268Y-76579819D01*
X165962268Y-76579819D02*
X165867030Y-76627438D01*
X165867030Y-76627438D02*
X165771792Y-76722676D01*
X165771792Y-76722676D02*
X165724173Y-76913152D01*
X165724173Y-76913152D02*
X165724173Y-77246485D01*
X165724173Y-77246485D02*
X165771792Y-77436961D01*
X165771792Y-77436961D02*
X165867030Y-77532200D01*
X165867030Y-77532200D02*
X165962268Y-77579819D01*
X165962268Y-77579819D02*
X166152744Y-77579819D01*
X166152744Y-77579819D02*
X166247982Y-77532200D01*
X166247982Y-77532200D02*
X166343220Y-77436961D01*
X166343220Y-77436961D02*
X166390839Y-77246485D01*
X166390839Y-77246485D02*
X166390839Y-76913152D01*
X166390839Y-76913152D02*
X166343220Y-76722676D01*
X166343220Y-76722676D02*
X166247982Y-76627438D01*
X166247982Y-76627438D02*
X166152744Y-76579819D01*
X165295601Y-76913152D02*
X165295601Y-77913152D01*
X165295601Y-76960771D02*
X165200363Y-76913152D01*
X165200363Y-76913152D02*
X165009887Y-76913152D01*
X165009887Y-76913152D02*
X164914649Y-76960771D01*
X164914649Y-76960771D02*
X164867030Y-77008390D01*
X164867030Y-77008390D02*
X164819411Y-77103628D01*
X164819411Y-77103628D02*
X164819411Y-77389342D01*
X164819411Y-77389342D02*
X164867030Y-77484580D01*
X164867030Y-77484580D02*
X164914649Y-77532200D01*
X164914649Y-77532200D02*
X165009887Y-77579819D01*
X165009887Y-77579819D02*
X165200363Y-77579819D01*
X165200363Y-77579819D02*
X165295601Y-77532200D01*
X164533696Y-76913152D02*
X164152744Y-76913152D01*
X164390839Y-76579819D02*
X164390839Y-77436961D01*
X164390839Y-77436961D02*
X164343220Y-77532200D01*
X164343220Y-77532200D02*
X164247982Y-77579819D01*
X164247982Y-77579819D02*
X164152744Y-77579819D01*
X163819410Y-77579819D02*
X163819410Y-76913152D01*
X163819410Y-76579819D02*
X163867029Y-76627438D01*
X163867029Y-76627438D02*
X163819410Y-76675057D01*
X163819410Y-76675057D02*
X163771791Y-76627438D01*
X163771791Y-76627438D02*
X163819410Y-76579819D01*
X163819410Y-76579819D02*
X163819410Y-76675057D01*
X163200363Y-77579819D02*
X163295601Y-77532200D01*
X163295601Y-77532200D02*
X163343220Y-77484580D01*
X163343220Y-77484580D02*
X163390839Y-77389342D01*
X163390839Y-77389342D02*
X163390839Y-77103628D01*
X163390839Y-77103628D02*
X163343220Y-77008390D01*
X163343220Y-77008390D02*
X163295601Y-76960771D01*
X163295601Y-76960771D02*
X163200363Y-76913152D01*
X163200363Y-76913152D02*
X163057506Y-76913152D01*
X163057506Y-76913152D02*
X162962268Y-76960771D01*
X162962268Y-76960771D02*
X162914649Y-77008390D01*
X162914649Y-77008390D02*
X162867030Y-77103628D01*
X162867030Y-77103628D02*
X162867030Y-77389342D01*
X162867030Y-77389342D02*
X162914649Y-77484580D01*
X162914649Y-77484580D02*
X162962268Y-77532200D01*
X162962268Y-77532200D02*
X163057506Y-77579819D01*
X163057506Y-77579819D02*
X163200363Y-77579819D01*
X162438458Y-76913152D02*
X162438458Y-77579819D01*
X162438458Y-77008390D02*
X162390839Y-76960771D01*
X162390839Y-76960771D02*
X162295601Y-76913152D01*
X162295601Y-76913152D02*
X162152744Y-76913152D01*
X162152744Y-76913152D02*
X162057506Y-76960771D01*
X162057506Y-76960771D02*
X162009887Y-77056009D01*
X162009887Y-77056009D02*
X162009887Y-77579819D01*
X161105125Y-77579819D02*
X161105125Y-77056009D01*
X161105125Y-77056009D02*
X161152744Y-76960771D01*
X161152744Y-76960771D02*
X161247982Y-76913152D01*
X161247982Y-76913152D02*
X161438458Y-76913152D01*
X161438458Y-76913152D02*
X161533696Y-76960771D01*
X161105125Y-77532200D02*
X161200363Y-77579819D01*
X161200363Y-77579819D02*
X161438458Y-77579819D01*
X161438458Y-77579819D02*
X161533696Y-77532200D01*
X161533696Y-77532200D02*
X161581315Y-77436961D01*
X161581315Y-77436961D02*
X161581315Y-77341723D01*
X161581315Y-77341723D02*
X161533696Y-77246485D01*
X161533696Y-77246485D02*
X161438458Y-77198866D01*
X161438458Y-77198866D02*
X161200363Y-77198866D01*
X161200363Y-77198866D02*
X161105125Y-77151247D01*
X160486077Y-77579819D02*
X160581315Y-77532200D01*
X160581315Y-77532200D02*
X160628934Y-77436961D01*
X160628934Y-77436961D02*
X160628934Y-76579819D01*
X159390838Y-76675057D02*
X159343219Y-76627438D01*
X159343219Y-76627438D02*
X159247981Y-76579819D01*
X159247981Y-76579819D02*
X159009886Y-76579819D01*
X159009886Y-76579819D02*
X158914648Y-76627438D01*
X158914648Y-76627438D02*
X158867029Y-76675057D01*
X158867029Y-76675057D02*
X158819410Y-76770295D01*
X158819410Y-76770295D02*
X158819410Y-76865533D01*
X158819410Y-76865533D02*
X158867029Y-77008390D01*
X158867029Y-77008390D02*
X159438457Y-77579819D01*
X159438457Y-77579819D02*
X158819410Y-77579819D01*
X158390838Y-76913152D02*
X158390838Y-77579819D01*
X158390838Y-77008390D02*
X158343219Y-76960771D01*
X158343219Y-76960771D02*
X158247981Y-76913152D01*
X158247981Y-76913152D02*
X158105124Y-76913152D01*
X158105124Y-76913152D02*
X158009886Y-76960771D01*
X158009886Y-76960771D02*
X157962267Y-77056009D01*
X157962267Y-77056009D02*
X157962267Y-77579819D01*
X157057505Y-77579819D02*
X157057505Y-76579819D01*
X157057505Y-77532200D02*
X157152743Y-77579819D01*
X157152743Y-77579819D02*
X157343219Y-77579819D01*
X157343219Y-77579819D02*
X157438457Y-77532200D01*
X157438457Y-77532200D02*
X157486076Y-77484580D01*
X157486076Y-77484580D02*
X157533695Y-77389342D01*
X157533695Y-77389342D02*
X157533695Y-77103628D01*
X157533695Y-77103628D02*
X157486076Y-77008390D01*
X157486076Y-77008390D02*
X157438457Y-76960771D01*
X157438457Y-76960771D02*
X157343219Y-76913152D01*
X157343219Y-76913152D02*
X157152743Y-76913152D01*
X157152743Y-76913152D02*
X157057505Y-76960771D01*
X155486076Y-77056009D02*
X155819409Y-77056009D01*
X155819409Y-77579819D02*
X155819409Y-76579819D01*
X155819409Y-76579819D02*
X155343219Y-76579819D01*
X154819409Y-77579819D02*
X154914647Y-77532200D01*
X154914647Y-77532200D02*
X154962266Y-77436961D01*
X154962266Y-77436961D02*
X154962266Y-76579819D01*
X154009885Y-77579819D02*
X154009885Y-77056009D01*
X154009885Y-77056009D02*
X154057504Y-76960771D01*
X154057504Y-76960771D02*
X154152742Y-76913152D01*
X154152742Y-76913152D02*
X154343218Y-76913152D01*
X154343218Y-76913152D02*
X154438456Y-76960771D01*
X154009885Y-77532200D02*
X154105123Y-77579819D01*
X154105123Y-77579819D02*
X154343218Y-77579819D01*
X154343218Y-77579819D02*
X154438456Y-77532200D01*
X154438456Y-77532200D02*
X154486075Y-77436961D01*
X154486075Y-77436961D02*
X154486075Y-77341723D01*
X154486075Y-77341723D02*
X154438456Y-77246485D01*
X154438456Y-77246485D02*
X154343218Y-77198866D01*
X154343218Y-77198866D02*
X154105123Y-77198866D01*
X154105123Y-77198866D02*
X154009885Y-77151247D01*
X153581313Y-77532200D02*
X153486075Y-77579819D01*
X153486075Y-77579819D02*
X153295599Y-77579819D01*
X153295599Y-77579819D02*
X153200361Y-77532200D01*
X153200361Y-77532200D02*
X153152742Y-77436961D01*
X153152742Y-77436961D02*
X153152742Y-77389342D01*
X153152742Y-77389342D02*
X153200361Y-77294104D01*
X153200361Y-77294104D02*
X153295599Y-77246485D01*
X153295599Y-77246485D02*
X153438456Y-77246485D01*
X153438456Y-77246485D02*
X153533694Y-77198866D01*
X153533694Y-77198866D02*
X153581313Y-77103628D01*
X153581313Y-77103628D02*
X153581313Y-77056009D01*
X153581313Y-77056009D02*
X153533694Y-76960771D01*
X153533694Y-76960771D02*
X153438456Y-76913152D01*
X153438456Y-76913152D02*
X153295599Y-76913152D01*
X153295599Y-76913152D02*
X153200361Y-76960771D01*
X152724170Y-77579819D02*
X152724170Y-76579819D01*
X152295599Y-77579819D02*
X152295599Y-77056009D01*
X152295599Y-77056009D02*
X152343218Y-76960771D01*
X152343218Y-76960771D02*
X152438456Y-76913152D01*
X152438456Y-76913152D02*
X152581313Y-76913152D01*
X152581313Y-76913152D02*
X152676551Y-76960771D01*
X152676551Y-76960771D02*
X152724170Y-77008390D01*
X133194819Y-79846666D02*
X133909104Y-79846666D01*
X133909104Y-79846666D02*
X134051961Y-79799047D01*
X134051961Y-79799047D02*
X134147200Y-79703809D01*
X134147200Y-79703809D02*
X134194819Y-79560952D01*
X134194819Y-79560952D02*
X134194819Y-79465714D01*
X133623390Y-80465714D02*
X133575771Y-80370476D01*
X133575771Y-80370476D02*
X133528152Y-80322857D01*
X133528152Y-80322857D02*
X133432914Y-80275238D01*
X133432914Y-80275238D02*
X133385295Y-80275238D01*
X133385295Y-80275238D02*
X133290057Y-80322857D01*
X133290057Y-80322857D02*
X133242438Y-80370476D01*
X133242438Y-80370476D02*
X133194819Y-80465714D01*
X133194819Y-80465714D02*
X133194819Y-80656190D01*
X133194819Y-80656190D02*
X133242438Y-80751428D01*
X133242438Y-80751428D02*
X133290057Y-80799047D01*
X133290057Y-80799047D02*
X133385295Y-80846666D01*
X133385295Y-80846666D02*
X133432914Y-80846666D01*
X133432914Y-80846666D02*
X133528152Y-80799047D01*
X133528152Y-80799047D02*
X133575771Y-80751428D01*
X133575771Y-80751428D02*
X133623390Y-80656190D01*
X133623390Y-80656190D02*
X133623390Y-80465714D01*
X133623390Y-80465714D02*
X133671009Y-80370476D01*
X133671009Y-80370476D02*
X133718628Y-80322857D01*
X133718628Y-80322857D02*
X133813866Y-80275238D01*
X133813866Y-80275238D02*
X134004342Y-80275238D01*
X134004342Y-80275238D02*
X134099580Y-80322857D01*
X134099580Y-80322857D02*
X134147200Y-80370476D01*
X134147200Y-80370476D02*
X134194819Y-80465714D01*
X134194819Y-80465714D02*
X134194819Y-80656190D01*
X134194819Y-80656190D02*
X134147200Y-80751428D01*
X134147200Y-80751428D02*
X134099580Y-80799047D01*
X134099580Y-80799047D02*
X134004342Y-80846666D01*
X134004342Y-80846666D02*
X133813866Y-80846666D01*
X133813866Y-80846666D02*
X133718628Y-80799047D01*
X133718628Y-80799047D02*
X133671009Y-80751428D01*
X133671009Y-80751428D02*
X133623390Y-80656190D01*
D11*
%TO.C,J8*%
X115780000Y-71170000D02*
X115780000Y-73480000D01*
X115780000Y-71170000D02*
X115980000Y-70970000D01*
X115780000Y-73480000D02*
X116130000Y-73990000D01*
X115780000Y-80570000D02*
X115980000Y-80360000D01*
X115780000Y-82430000D02*
X115780000Y-80570000D01*
X115780000Y-82430000D02*
X115980000Y-82630000D01*
X115980000Y-70970000D02*
X115980000Y-70710000D01*
X116130000Y-80360000D02*
X115980000Y-80360000D01*
X116130000Y-80360000D02*
X116130000Y-73990000D01*
X120740000Y-83460000D02*
X118940000Y-83460000D01*
X126740000Y-83460000D02*
X122040000Y-83460000D01*
X132050000Y-69490000D02*
X118040000Y-69490000D01*
X132050000Y-71410000D02*
X132050000Y-69490000D01*
X132050000Y-83010000D02*
X132050000Y-83460000D01*
X132050000Y-83460000D02*
X128440000Y-83460000D01*
%TD*%
M02*
