%TF.GenerationSoftware,KiCad,Pcbnew,9.0.0*%
%TF.CreationDate,2025-04-18T01:08:42+10:00*%
%TF.ProjectId,Teensy_4.1_attempt_1,5465656e-7379-45f3-942e-315f61747465,rev?*%
%TF.SameCoordinates,Original*%
%TF.FileFunction,Copper,L3,Inr*%
%TF.FilePolarity,Positive*%
%FSLAX46Y46*%
G04 Gerber Fmt 4.6, Leading zero omitted, Abs format (unit mm)*
G04 Created by KiCad (PCBNEW 9.0.0) date 2025-04-18 01:08:42*
%MOMM*%
%LPD*%
G01*
G04 APERTURE LIST*
%TA.AperFunction,ComponentPad*%
%ADD10R,1.700000X1.700000*%
%TD*%
%TA.AperFunction,ComponentPad*%
%ADD11O,1.700000X1.700000*%
%TD*%
%TA.AperFunction,ComponentPad*%
%ADD12R,1.408000X1.408000*%
%TD*%
%TA.AperFunction,ComponentPad*%
%ADD13C,1.408000*%
%TD*%
%TA.AperFunction,ComponentPad*%
%ADD14C,1.530000*%
%TD*%
%TA.AperFunction,ComponentPad*%
%ADD15C,2.400000*%
%TD*%
%TA.AperFunction,HeatsinkPad*%
%ADD16O,2.100000X1.000000*%
%TD*%
%TA.AperFunction,HeatsinkPad*%
%ADD17O,1.600000X1.000000*%
%TD*%
%TA.AperFunction,ComponentPad*%
%ADD18R,1.000000X1.000000*%
%TD*%
%TA.AperFunction,ComponentPad*%
%ADD19O,1.000000X1.000000*%
%TD*%
%TA.AperFunction,ComponentPad*%
%ADD20C,0.400000*%
%TD*%
%TA.AperFunction,ViaPad*%
%ADD21C,0.450000*%
%TD*%
%TA.AperFunction,Conductor*%
%ADD22C,0.250000*%
%TD*%
%TA.AperFunction,Conductor*%
%ADD23C,0.155000*%
%TD*%
%TA.AperFunction,Conductor*%
%ADD24C,0.200000*%
%TD*%
%TA.AperFunction,Conductor*%
%ADD25C,0.198900*%
%TD*%
%TA.AperFunction,Conductor*%
%ADD26C,0.202500*%
%TD*%
G04 APERTURE END LIST*
D10*
%TO.N,/D16_A2*%
%TO.C,J6*%
X151215000Y-96200000D03*
D11*
%TO.N,/D38_A14*%
X148675000Y-96200000D03*
%TO.N,/D24_A10*%
X146135000Y-96200000D03*
%TD*%
D10*
%TO.N,+3V3*%
%TO.C,J4*%
X178600000Y-101030000D03*
D11*
%TO.N,/D8*%
X176060000Y-101030000D03*
%TO.N,/D7*%
X173520000Y-101030000D03*
%TO.N,/D36*%
X170980000Y-101030000D03*
%TO.N,/D37*%
X168440000Y-101030000D03*
%TO.N,/D35*%
X165900000Y-101030000D03*
%TO.N,/D34*%
X163360000Y-101030000D03*
%TO.N,/D27_A13*%
X160820000Y-101030000D03*
%TO.N,/D21_A7*%
X158280000Y-101030000D03*
%TO.N,/D17_A3*%
X155740000Y-101030000D03*
%TO.N,/D19_A5*%
X153200000Y-101030000D03*
%TD*%
D12*
%TO.N,/T +*%
%TO.C,P1*%
X111930000Y-90375000D03*
D13*
%TO.N,Net-(P1-RCT)*%
X114470000Y-91645000D03*
%TO.N,/T -*%
X111930000Y-92915000D03*
%TO.N,/R +*%
X114470000Y-94185000D03*
%TO.N,Net-(P1-RCT)*%
X111930000Y-95455000D03*
%TO.N,/R -*%
X114470000Y-96725000D03*
%TO.N,unconnected-(P1-NC-Pad7)*%
X111930000Y-97995000D03*
%TO.N,GND*%
X114470000Y-99265000D03*
D14*
%TO.N,/LED*%
X102200000Y-91062000D03*
%TO.N,unconnected-(P1-YLW--Pad11)*%
X100500000Y-98578000D03*
%TO.N,unconnected-(P1-YLW+-Pad12)*%
X102200000Y-101145000D03*
D15*
%TO.N,unconnected-(P1-CH_GND@2-Pad13)*%
X108630000Y-87070000D03*
%TO.N,unconnected-(P1-CH_GND@3-Pad14)*%
X108630000Y-102570000D03*
%TD*%
D16*
%TO.N,Net-(USB_DFP1-SHIELD)*%
%TO.C,USB_DFP1*%
X102180000Y-71000000D03*
D17*
X98000000Y-71000000D03*
D16*
X102180000Y-79640000D03*
D17*
X98000000Y-79640000D03*
%TD*%
D10*
%TO.N,+3V3*%
%TO.C,J3*%
X178600000Y-63875000D03*
D11*
%TO.N,/D28*%
X178600000Y-66415000D03*
%TO.N,/D29*%
X178600000Y-68955000D03*
%TO.N,/D12*%
X178600000Y-71495000D03*
%TO.N,/D10*%
X178600000Y-74035000D03*
%TO.N,/D11*%
X178600000Y-76575000D03*
%TO.N,/D13*%
X178600000Y-79115000D03*
%TO.N,/D6*%
X178600000Y-81655000D03*
%TO.N,/D32*%
X178600000Y-84195000D03*
%TO.N,/D9*%
X178600000Y-86735000D03*
%TO.N,/D0*%
X178600000Y-89275000D03*
%TO.N,GND*%
X178600000Y-91815000D03*
%TD*%
D10*
%TO.N,/D22_A8*%
%TO.C,J5*%
X144630000Y-101030000D03*
D11*
%TO.N,/D39_A15*%
X142090000Y-101030000D03*
%TO.N,/D25_A11*%
X139550000Y-101030000D03*
%TO.N,/D20_A6*%
X137010000Y-101030000D03*
%TO.N,/D23_A9*%
X134470000Y-101030000D03*
%TO.N,/D40_A16*%
X131930000Y-101030000D03*
%TO.N,/D15_A1*%
X129390000Y-101030000D03*
%TO.N,/D14_A0*%
X126850000Y-101030000D03*
%TO.N,/D1*%
X124310000Y-101030000D03*
%TO.N,+3V3*%
X121770000Y-101030000D03*
%TO.N,GND*%
X119230000Y-101030000D03*
%TD*%
D18*
%TO.N,/DCDC_PSWITCH*%
%TO.C,SWD1*%
X163300000Y-94280000D03*
D19*
%TO.N,/JTAG_TCK*%
X164570000Y-94280000D03*
%TO.N,/JTAG_TDO*%
X165840000Y-94280000D03*
%TO.N,/JTAG_TDI*%
X167110000Y-94280000D03*
%TO.N,/JTAG_MOD*%
X168380000Y-94280000D03*
%TO.N,/JTAG_TMS*%
X169650000Y-94280000D03*
%TO.N,GND*%
X170920000Y-94280000D03*
%TD*%
D16*
%TO.N,Net-(USB_UFP1-SHIELD)*%
%TO.C,USB_UFP1*%
X102180000Y-53860000D03*
D17*
X98000000Y-53860000D03*
D16*
X102180000Y-62500000D03*
D17*
X98000000Y-62500000D03*
%TD*%
D20*
%TO.N,GND*%
%TO.C,U5*%
X169005000Y-86835000D03*
X170405000Y-86835000D03*
X169705000Y-87535000D03*
X169005000Y-88235000D03*
X170405000Y-88235000D03*
%TD*%
D10*
%TO.N,/ONOFF*%
%TO.C,J7*%
X101775000Y-66750000D03*
D11*
%TO.N,/WAKEUP*%
X99235000Y-66750000D03*
%TO.N,GND*%
X96695000Y-66750000D03*
%TD*%
D10*
%TO.N,GND*%
%TO.C,J2*%
X178600000Y-54670000D03*
D11*
%TO.N,/D49*%
X176060000Y-54670000D03*
%TO.N,/D31*%
X173520000Y-54670000D03*
%TO.N,/D52*%
X170980000Y-54670000D03*
%TO.N,/D48*%
X168440000Y-54670000D03*
%TO.N,/D53*%
X165900000Y-54670000D03*
%TO.N,/D50*%
X163360000Y-54670000D03*
%TO.N,/D30*%
X160820000Y-54670000D03*
%TO.N,/D54*%
X158280000Y-54670000D03*
%TO.N,/D51*%
X155740000Y-54670000D03*
%TO.N,+3V3*%
X153200000Y-54670000D03*
%TD*%
D10*
%TO.N,GND*%
%TO.C,J1*%
X144600000Y-54670000D03*
D11*
%TO.N,/D3*%
X142060000Y-54670000D03*
%TO.N,/D2*%
X139520000Y-54670000D03*
%TO.N,/D5*%
X136980000Y-54670000D03*
%TO.N,/D33*%
X134440000Y-54670000D03*
%TO.N,/D44*%
X131900000Y-54670000D03*
%TO.N,/D4*%
X129360000Y-54670000D03*
%TO.N,/D43*%
X126820000Y-54670000D03*
%TO.N,/D46*%
X124280000Y-54670000D03*
%TO.N,/D45*%
X121740000Y-54670000D03*
%TO.N,/D42*%
X119200000Y-54670000D03*
%TD*%
D21*
%TO.N,+5V*%
X150360000Y-74817500D03*
X135950000Y-62910000D03*
X143520000Y-66800000D03*
X143620000Y-62340000D03*
%TO.N,GND*%
X141100000Y-60710000D03*
X150580000Y-85140000D03*
X154710706Y-77119293D03*
X169705000Y-89880000D03*
X111350000Y-58250000D03*
X149280000Y-88210000D03*
X135610000Y-76490000D03*
X142050000Y-76040000D03*
X155340000Y-76300000D03*
X142295000Y-89070000D03*
X134470000Y-60300000D03*
X120030000Y-93720000D03*
X156520000Y-76290000D03*
X104930000Y-79740000D03*
X114250000Y-58010000D03*
X147960000Y-82560000D03*
X138670000Y-64540000D03*
X132255000Y-60515000D03*
X116090000Y-77180000D03*
X143585000Y-89080000D03*
X138560000Y-79740000D03*
X141810000Y-76590000D03*
X146080000Y-82610000D03*
X168170000Y-78640000D03*
X130010000Y-80630000D03*
X156075000Y-65190000D03*
X164090000Y-70260000D03*
X151350000Y-64585000D03*
X172152500Y-72600000D03*
X164430707Y-82399293D03*
X159270000Y-93950000D03*
X105230000Y-63290000D03*
X134000000Y-66840000D03*
X148420000Y-85510000D03*
X145210000Y-72370000D03*
X157602500Y-82950000D03*
X167880000Y-73200000D03*
X165830000Y-72860000D03*
X170610000Y-73200000D03*
X112390000Y-61430000D03*
X105210000Y-62410000D03*
X105140000Y-54760000D03*
X168342564Y-82999749D03*
X177740000Y-97100000D03*
X102750000Y-81950000D03*
X109680000Y-53410000D03*
X134285000Y-82135000D03*
X153960000Y-72250000D03*
X156010000Y-67150000D03*
X152310000Y-77080000D03*
X151510000Y-71480000D03*
X144595000Y-89540000D03*
X167190000Y-62860000D03*
X155910000Y-64600000D03*
X105860000Y-71920000D03*
X169675000Y-79740000D03*
X147360000Y-66230000D03*
X158700000Y-81050000D03*
X145260000Y-65580000D03*
X134950000Y-66680000D03*
X146950000Y-65580000D03*
X137270000Y-57200000D03*
X166990000Y-70570000D03*
X172030000Y-79595000D03*
X173990000Y-79575000D03*
X133460000Y-65670000D03*
X149730000Y-69812500D03*
X144760000Y-92110000D03*
X112795000Y-63195000D03*
%TO.N,+3V3*%
X157910000Y-74680000D03*
X171805000Y-84275000D03*
X167340000Y-89840000D03*
X157955000Y-77855000D03*
X154665497Y-73835497D03*
X156340000Y-60190000D03*
X169660000Y-61840000D03*
X129690000Y-77630000D03*
X152130000Y-82790000D03*
X136710000Y-84090000D03*
X151460000Y-62730000D03*
X151505000Y-80275000D03*
X138940000Y-72710000D03*
X173810000Y-83735000D03*
X145350000Y-67480000D03*
X171190000Y-70280000D03*
X155430000Y-77960000D03*
X156540000Y-90250000D03*
X148610000Y-61220000D03*
X154725000Y-74695000D03*
%TO.N,Net-(U1B-VDD_USB_CAP)*%
X154690245Y-76317958D03*
X151420000Y-87150000D03*
%TO.N,Net-(C20-Pad1)*%
X160210000Y-67530000D03*
X153322968Y-70605806D03*
%TO.N,/USB1_DN*%
X152305375Y-76275375D03*
X109180000Y-57640000D03*
X104970000Y-57670000D03*
X113740000Y-60210000D03*
%TO.N,+5VD*%
X116200000Y-58170000D03*
X104420000Y-67950000D03*
X111390000Y-56880000D03*
X111950000Y-68220000D03*
X105460000Y-60680000D03*
%TO.N,/USB1_DP*%
X105100000Y-58320000D03*
X153140000Y-76300000D03*
X109110000Y-58380000D03*
X114200000Y-59710000D03*
%TO.N,Net-(U1B-VDD_SNVS_IN)*%
X132590000Y-86670000D03*
X152330000Y-77870000D03*
%TO.N,/USB2_DN*%
X109150000Y-75150000D03*
X119270000Y-79201500D03*
X151510000Y-76300000D03*
X113730000Y-76221000D03*
%TO.N,+5VL*%
X105950000Y-78990000D03*
X111510000Y-80130000D03*
X105640000Y-73490000D03*
X115920000Y-75230000D03*
X113970000Y-73640000D03*
X112580000Y-74120000D03*
X111350000Y-73410000D03*
%TO.N,/USB2_DP*%
X109150000Y-75810000D03*
X119270000Y-78501497D03*
X150710000Y-76290000D03*
X113730000Y-76921003D03*
%TO.N,/D33*%
X155577500Y-68455322D03*
%TO.N,/D2*%
X156598000Y-69650000D03*
%TO.N,/D42*%
X148920000Y-69090000D03*
%TO.N,/D3*%
X157900000Y-73070000D03*
%TO.N,/D45*%
X154740000Y-73110000D03*
%TO.N,/D43*%
X149540000Y-67400000D03*
%TO.N,/D4*%
X156320000Y-73890000D03*
%TO.N,/D5*%
X156290000Y-72260000D03*
%TO.N,/D44*%
X154730000Y-72290000D03*
%TO.N,/D46*%
X148590000Y-67300000D03*
%TO.N,/D31*%
X160340000Y-72270000D03*
%TO.N,/D50*%
X168730000Y-67200000D03*
X159380000Y-69980000D03*
%TO.N,/D51*%
X157920000Y-71450000D03*
%TO.N,/D53*%
X159460000Y-71500000D03*
X173570000Y-66990000D03*
%TO.N,/D48*%
X166520000Y-63880000D03*
X159500000Y-72300000D03*
%TO.N,/D30*%
X158710000Y-73120000D03*
%TO.N,/D54*%
X170280000Y-65940000D03*
X157960000Y-70160000D03*
%TO.N,/D32*%
X162780000Y-77240000D03*
%TO.N,/D9*%
X167800000Y-79920000D03*
%TO.N,/D6*%
X158755000Y-77125000D03*
%TO.N,/D13*%
X172920000Y-76640000D03*
X159539797Y-77099522D03*
%TO.N,/D0*%
X157110000Y-77900000D03*
%TO.N,/D10*%
X162570000Y-75350000D03*
%TO.N,/D12*%
X158720000Y-75490000D03*
%TO.N,/D11*%
X158044999Y-77042786D03*
%TO.N,/D27_A13*%
X155466328Y-82900000D03*
%TO.N,/D7*%
X168790000Y-80510000D03*
%TO.N,/D19_A5*%
X153170000Y-92390000D03*
X154732745Y-78680000D03*
%TO.N,/D37*%
X158933500Y-78781356D03*
%TO.N,/D17_A3*%
X154960000Y-84580000D03*
%TO.N,/D34*%
X164205000Y-89525000D03*
%TO.N,/D35*%
X159510000Y-81090000D03*
%TO.N,/D21_A7*%
X155440328Y-81039672D03*
%TO.N,/D36*%
X159540000Y-77900000D03*
%TO.N,/D8*%
X168900000Y-81543750D03*
%TO.N,/D39_A15*%
X142100000Y-92010000D03*
X156267500Y-79496232D03*
%TO.N,/D1*%
X152340000Y-79480000D03*
%TO.N,/D25_A11*%
X153210000Y-82582500D03*
%TO.N,/D40_A16*%
X153115000Y-80295000D03*
%TO.N,/D14_A0*%
X153122672Y-79487328D03*
%TO.N,/D15_A1*%
X152305000Y-81085000D03*
%TO.N,/D16_A2*%
X154685000Y-77925000D03*
X152350000Y-92940000D03*
%TO.N,/D38_A14*%
X155540000Y-78730000D03*
%TO.N,/D24_A10*%
X154207500Y-83670000D03*
%TO.N,/WAKEUP*%
X152290000Y-73890000D03*
%TO.N,/ONOFF*%
X151530000Y-74700000D03*
%TO.N,/SOC_CAP_NET*%
X155494058Y-73911722D03*
X155199000Y-69705000D03*
%TO.N,Net-(L1-Pad1)*%
X152676814Y-70535194D03*
X151580000Y-66370000D03*
%TO.N,/PMIC_ON_REQ_PWR_SEQ*%
X147880004Y-69261328D03*
X153930000Y-75510000D03*
%TO.N,Net-(U3-PTB3{slash}IRQ_10)*%
X158450000Y-90400000D03*
X158960000Y-84330000D03*
%TO.N,Net-(U1B-GPIO_EMC_40)*%
X116120000Y-60010000D03*
X169240000Y-73230000D03*
%TO.N,Net-(U1A-GPIO_SD_B1_10)*%
X135738818Y-75166855D03*
X150725000Y-73095000D03*
%TO.N,/T -*%
X170820000Y-90420000D03*
%TO.N,Net-(U1A-GPIO_SD_B1_09)*%
X151520000Y-73060172D03*
X135200000Y-74720000D03*
%TO.N,/R -*%
X168042513Y-90292513D03*
X118291995Y-97114560D03*
%TO.N,Net-(U1A-GPIO_B0_13)*%
X158550000Y-85020000D03*
X158736678Y-77906678D03*
%TO.N,/R +*%
X168537489Y-90787489D03*
X118127577Y-97882552D03*
%TO.N,/D47*%
X133850000Y-69590000D03*
%TO.N,Net-(U1A-GPIO_SD_B1_06)*%
X135310000Y-72730000D03*
X152310000Y-72290000D03*
%TO.N,/T +*%
X171338633Y-89913661D03*
%TO.N,Net-(U1A-POR_B)*%
X153120000Y-75460000D03*
X160320000Y-84910000D03*
%TO.N,Net-(U1A-GPIO_SD_B1_08)*%
X149057862Y-71954500D03*
X139858819Y-75208901D03*
%TO.N,/LED*%
X165550000Y-91240000D03*
%TO.N,Net-(U1A-GPIO_EMC_01)*%
X156550000Y-87520000D03*
X157120000Y-73070000D03*
%TO.N,Net-(U1A-GPIO_AD_B0_04)*%
X161090000Y-90590000D03*
X157272500Y-79422906D03*
%TO.N,Net-(U1A-GPIO_SD_B1_07)*%
X153180000Y-73150000D03*
X140290000Y-74722500D03*
%TO.N,Net-(U3-PTB2{slash}IRQ_7)*%
X161230000Y-92067500D03*
X159640000Y-85510000D03*
%TO.N,Net-(U1B-GPIO_B1_06)*%
X170620000Y-84360000D03*
X160280000Y-79520000D03*
%TO.N,Net-(U1B-GPIO_B0_15)*%
X158730000Y-79480000D03*
X166020000Y-86930000D03*
%TO.N,Net-(U1B-GPIO_B1_04)*%
X158690000Y-80280000D03*
X172240000Y-85000000D03*
%TO.N,Net-(U1B-GPIO_B1_11)*%
X160290000Y-81060000D03*
X167742115Y-84077885D03*
%TO.N,Net-(U1B-GPIO_B1_09)*%
X164380000Y-85360000D03*
X163540707Y-81509293D03*
%TO.N,Net-(U1B-GPIO_B1_14)*%
X174270000Y-85510000D03*
X165490000Y-84510000D03*
%TO.N,Net-(U1B-GPIO_B1_05)*%
X173210000Y-84826250D03*
X159530000Y-79490000D03*
%TO.N,Net-(U1B-GPIO_B0_14)*%
X166890000Y-89070000D03*
X157927500Y-78645000D03*
%TO.N,Net-(U1B-GPIO_B1_15)*%
X164710000Y-83390000D03*
X173660000Y-87120000D03*
%TO.N,Net-(U1B-GPIO_B1_10)*%
X161120000Y-81080000D03*
X173160000Y-89710000D03*
%TO.N,/JTAG_TDI*%
X162440000Y-86650000D03*
%TO.N,/JTAG_TDO*%
X162835000Y-87565000D03*
%TO.N,/JTAG_MOD*%
X156660000Y-85410000D03*
X156350000Y-80300000D03*
%TO.N,/JTAG_TCK*%
X161610000Y-85340000D03*
X157977702Y-80291932D03*
%TO.N,/DCDC_PSWITCH*%
X157120000Y-78710000D03*
X153540000Y-65010000D03*
X159770000Y-91540000D03*
X153900000Y-73860000D03*
%TD*%
D22*
%TO.N,Net-(C20-Pad1)*%
X153322829Y-70257171D02*
X154480000Y-69100000D01*
X158640000Y-69100000D02*
X160210000Y-67530000D01*
X153322829Y-70605667D02*
X153322829Y-70257171D01*
X153322968Y-70605806D02*
X153322829Y-70605667D01*
X154480000Y-69100000D02*
X158640000Y-69100000D01*
D23*
%TO.N,/USB1_DN*%
X149392956Y-75296000D02*
X149852956Y-75756000D01*
X152305375Y-75991463D02*
X152305375Y-76275375D01*
X113778478Y-60021522D02*
X131542956Y-77786000D01*
X142007044Y-75296000D02*
X149392956Y-75296000D01*
X131542956Y-77786000D02*
X139517044Y-77786000D01*
X108754588Y-57918000D02*
X106321044Y-57918000D01*
X109180000Y-57640000D02*
X109058500Y-57761500D01*
X109058500Y-57761500D02*
X108911088Y-57761500D01*
X152069912Y-75756000D02*
X152305375Y-75991463D01*
X149852956Y-75756000D02*
X152069912Y-75756000D01*
X106073044Y-57670000D02*
X104970000Y-57670000D01*
X106321044Y-57918000D02*
X106073044Y-57670000D01*
X139517044Y-77786000D02*
X142007044Y-75296000D01*
X108911088Y-57761500D02*
X108754588Y-57918000D01*
%TO.N,/USB1_DP*%
X114041522Y-59758478D02*
X131697044Y-77414000D01*
X105378000Y-58042000D02*
X105100000Y-58320000D01*
X131697044Y-77414000D02*
X139362956Y-77414000D01*
X105918956Y-58042000D02*
X105378000Y-58042000D01*
X141852956Y-74924000D02*
X149547044Y-74924000D01*
X150007044Y-75384000D02*
X152224000Y-75384000D01*
X106166956Y-58290000D02*
X105918956Y-58042000D01*
X109130000Y-58290000D02*
X106166956Y-58290000D01*
X149547044Y-74924000D02*
X150007044Y-75384000D01*
X139362956Y-77414000D02*
X141852956Y-74924000D01*
X152224000Y-75384000D02*
X153140000Y-76300000D01*
D24*
%TO.N,Net-(U1B-VDD_SNVS_IN)*%
X145429000Y-78341000D02*
X148769000Y-78341000D01*
X136850000Y-81340000D02*
X142430000Y-81340000D01*
X148769000Y-78341000D02*
X149240000Y-77870000D01*
X132590000Y-85600000D02*
X136850000Y-81340000D01*
X149240000Y-77870000D02*
X152330000Y-77870000D01*
X132590000Y-86670000D02*
X132590000Y-85600000D01*
X142430000Y-81340000D02*
X145429000Y-78341000D01*
D23*
%TO.N,/USB2_DN*%
X143047044Y-77406000D02*
X141407044Y-79046000D01*
X141407044Y-79046000D02*
X119270000Y-79046000D01*
X150404000Y-77406000D02*
X143047044Y-77406000D01*
X109294000Y-75294000D02*
X112629085Y-75294000D01*
X109150000Y-75150000D02*
X109294000Y-75294000D01*
X151510000Y-76300000D02*
X150404000Y-77406000D01*
X112629085Y-75294000D02*
X113556085Y-76221000D01*
X113556085Y-76221000D02*
X113730000Y-76221000D01*
%TO.N,/USB2_DP*%
X141252956Y-78674000D02*
X119270000Y-78674000D01*
X113201500Y-76439912D02*
X113511088Y-76749500D01*
X109294000Y-75666000D02*
X112474997Y-75666000D01*
X150249912Y-77034000D02*
X142892956Y-77034000D01*
X112474997Y-75666000D02*
X113201500Y-76392503D01*
X150710000Y-76573912D02*
X150249912Y-77034000D01*
X142892956Y-77034000D02*
X141252956Y-78674000D01*
X113558497Y-76749500D02*
X113730000Y-76921003D01*
X109150000Y-75810000D02*
X109294000Y-75666000D01*
X113511088Y-76749500D02*
X113558497Y-76749500D01*
X150710000Y-76290000D02*
X150710000Y-76573912D01*
X113201500Y-76392503D02*
X113201500Y-76439912D01*
%TO.N,/D45*%
X132937460Y-58456000D02*
X132642540Y-58456000D01*
X148840000Y-68020000D02*
X148560000Y-68020000D01*
X132642540Y-58456000D02*
X132434000Y-58247460D01*
X154740000Y-73110000D02*
X153930000Y-73110000D01*
X132434000Y-58247460D02*
X131016540Y-56830000D01*
X144532540Y-58456000D02*
X132937460Y-58456000D01*
X153930000Y-73110000D02*
X148840000Y-68020000D01*
X131016540Y-56830000D02*
X123900000Y-56830000D01*
X148086500Y-67546500D02*
X148086500Y-62009960D01*
X148086500Y-62009960D02*
X144532540Y-58456000D01*
X148560000Y-68020000D02*
X148086500Y-67546500D01*
X123900000Y-56830000D02*
X121740000Y-54670000D01*
%TO.N,/D4*%
X156320000Y-73890000D02*
X156320000Y-73167943D01*
X150460000Y-69130000D02*
X150460000Y-63880000D01*
X144680000Y-58100000D02*
X132790000Y-58100000D01*
X150460000Y-63880000D02*
X144680000Y-58100000D01*
X156320000Y-73167943D02*
X154372057Y-71220000D01*
X132790000Y-58100000D02*
X129360000Y-54670000D01*
X154372057Y-71220000D02*
X152550000Y-71220000D01*
X152550000Y-71220000D02*
X150460000Y-69130000D01*
%TO.N,/D50*%
X164550000Y-67550000D02*
X168380000Y-67550000D01*
X159380000Y-69980000D02*
X161810000Y-67550000D01*
X168730000Y-67200000D02*
X168740000Y-67190000D01*
X168380000Y-67550000D02*
X168730000Y-67200000D01*
X161810000Y-67550000D02*
X164550000Y-67550000D01*
%TO.N,/D53*%
X172040000Y-68610000D02*
X173620000Y-67030000D01*
X168330000Y-68610000D02*
X172040000Y-68610000D01*
X159460000Y-71500000D02*
X162350000Y-68610000D01*
X162350000Y-68610000D02*
X168330000Y-68610000D01*
%TO.N,/D54*%
X158330000Y-70160000D02*
X162060000Y-66430000D01*
X162060000Y-66430000D02*
X169790000Y-66430000D01*
X169790000Y-66430000D02*
X170280000Y-65940000D01*
X157960000Y-70160000D02*
X158330000Y-70160000D01*
%TO.N,/D32*%
X178600000Y-84195000D02*
X177285000Y-82880000D01*
X173590000Y-82880000D02*
X171600000Y-80890000D01*
X171600000Y-80240000D02*
X168600000Y-77240000D01*
X168600000Y-77240000D02*
X162780000Y-77240000D01*
X177285000Y-82880000D02*
X173590000Y-82880000D01*
X171600000Y-80890000D02*
X171600000Y-80240000D01*
%TO.N,/D13*%
X172920000Y-76640000D02*
X172890000Y-76670000D01*
X159969319Y-76670000D02*
X172950000Y-76670000D01*
X173379522Y-77099522D02*
X176584522Y-77099522D01*
X176584522Y-77099522D02*
X178600000Y-79115000D01*
X159539797Y-77099522D02*
X159969319Y-76670000D01*
X172950000Y-76670000D02*
X173379522Y-77099522D01*
%TO.N,/D10*%
X177285000Y-75350000D02*
X178600000Y-74035000D01*
X162570000Y-75350000D02*
X177285000Y-75350000D01*
%TO.N,/D12*%
X175315000Y-74780000D02*
X178600000Y-71495000D01*
X158720000Y-75490000D02*
X159430000Y-74780000D01*
X159430000Y-74780000D02*
X175315000Y-74780000D01*
%TO.N,/D11*%
X178161500Y-76136500D02*
X178600000Y-76575000D01*
X158044999Y-77042786D02*
X158773785Y-76314000D01*
X171287500Y-76136500D02*
X178161500Y-76136500D01*
X158773785Y-76314000D02*
X171110000Y-76314000D01*
X171110000Y-76314000D02*
X171287500Y-76136500D01*
%TO.N,/D28*%
X178600000Y-66830000D02*
X178600000Y-66415000D01*
%TO.N,/D39_A15*%
X156203768Y-79496232D02*
X153880000Y-81820000D01*
X153880000Y-83285443D02*
X153480000Y-83685443D01*
X156267500Y-79496232D02*
X156203768Y-79496232D01*
X142760000Y-90070000D02*
X142100000Y-90730000D01*
X153880000Y-81820000D02*
X153880000Y-83285443D01*
X153480000Y-83685443D02*
X153480000Y-86810000D01*
X150220000Y-90070000D02*
X142760000Y-90070000D01*
X142100000Y-90730000D02*
X142100000Y-92010000D01*
X153480000Y-86810000D02*
X150220000Y-90070000D01*
%TO.N,Net-(U1A-GPIO_SD_B1_10)*%
X138141460Y-71452000D02*
X149408368Y-71452000D01*
X135738818Y-75166855D02*
X135750000Y-75155673D01*
X135750000Y-73843460D02*
X138141460Y-71452000D01*
X149408368Y-71452000D02*
X150725000Y-72768632D01*
X135750000Y-75155673D02*
X135750000Y-73843460D01*
X150725000Y-72768632D02*
X150725000Y-73095000D01*
D25*
%TO.N,/T -*%
X109621044Y-93253086D02*
X109822244Y-93051886D01*
X171056568Y-90420000D02*
X170820000Y-90420000D01*
X110538603Y-92920000D02*
X109954130Y-92920000D01*
X172390550Y-95877384D02*
X172390550Y-91753982D01*
X116236622Y-100061310D02*
X117420688Y-98877246D01*
X109666729Y-94424680D02*
X109666729Y-94544680D01*
X108929450Y-97424680D02*
X108929450Y-97544680D01*
X170597384Y-97670550D02*
X172390550Y-95877384D01*
X120727384Y-98600550D02*
X121657384Y-97670550D01*
X121657384Y-97670550D02*
X170597384Y-97670550D01*
X117697384Y-98600550D02*
X120727384Y-98600550D01*
X109369543Y-93504587D02*
X108929450Y-93944680D01*
X109169450Y-96584680D02*
X109426741Y-96584680D01*
X109426741Y-97184680D02*
X109169450Y-97184680D01*
X109954130Y-92920000D02*
X109822244Y-93051886D01*
X109169450Y-94184680D02*
X109426729Y-94184680D01*
X108929450Y-95024680D02*
X108929450Y-95144680D01*
X109666741Y-96824680D02*
X109666741Y-96944680D01*
X108929450Y-96224680D02*
X108929450Y-96344680D01*
X109666729Y-95624680D02*
X109666729Y-95744680D01*
X108929450Y-97544680D02*
X108929450Y-98387384D01*
X108929450Y-98387384D02*
X111522616Y-100980550D01*
X111522616Y-100980550D02*
X115317384Y-100980550D01*
X111930000Y-92920000D02*
X110538603Y-92920000D01*
X117420688Y-98877246D02*
X117697384Y-98600550D01*
X109426729Y-95984680D02*
X109169450Y-95984680D01*
X109426729Y-94784680D02*
X109169450Y-94784680D01*
X115317384Y-100980550D02*
X116236622Y-100061310D01*
X109621044Y-93253086D02*
X109369543Y-93504587D01*
X172390550Y-91753982D02*
X171056568Y-90420000D01*
X109169450Y-95384680D02*
X109426729Y-95384680D01*
X109169450Y-97184680D02*
G75*
G03*
X108929380Y-97424680I-50J-240020D01*
G01*
X108929450Y-95144680D02*
G75*
G03*
X109169450Y-95384650I239950J-20D01*
G01*
X109426729Y-94184680D02*
G75*
G02*
X109666720Y-94424680I-29J-240020D01*
G01*
X109426741Y-96584680D02*
G75*
G02*
X109666720Y-96824680I-41J-240020D01*
G01*
X109169450Y-94784680D02*
G75*
G03*
X108929380Y-95024680I-50J-240020D01*
G01*
X108929450Y-96344680D02*
G75*
G03*
X109169450Y-96584650I239950J-20D01*
G01*
X109666729Y-95744680D02*
G75*
G02*
X109426729Y-95984729I-240029J-20D01*
G01*
X108929450Y-93944680D02*
G75*
G03*
X109169450Y-94184650I239950J-20D01*
G01*
X109666741Y-96944680D02*
G75*
G02*
X109426741Y-97184741I-240041J-20D01*
G01*
X109169450Y-95984680D02*
G75*
G03*
X108929380Y-96224680I-50J-240020D01*
G01*
X109666729Y-94544680D02*
G75*
G02*
X109426729Y-94784729I-240029J-20D01*
G01*
X109426729Y-95384680D02*
G75*
G02*
X109666720Y-95624680I-29J-240020D01*
G01*
D23*
%TO.N,Net-(U1A-GPIO_SD_B1_09)*%
X149555828Y-71096000D02*
X137994000Y-71096000D01*
X135220000Y-74700000D02*
X135200000Y-74720000D01*
X137994000Y-71096000D02*
X135220000Y-73870000D01*
X151520000Y-73060172D02*
X149555828Y-71096000D01*
X135220000Y-73870000D02*
X135220000Y-74700000D01*
D25*
%TO.N,/R -*%
X118394332Y-97216897D02*
X120101037Y-97216897D01*
X159476318Y-95300550D02*
X159900550Y-94876318D01*
X159900550Y-94687384D02*
X161897384Y-92690550D01*
X124742052Y-93215273D02*
X124862052Y-93215273D01*
X126662052Y-93950550D02*
X126808501Y-93950550D01*
X168042513Y-90505424D02*
X168042513Y-90292513D01*
X161897384Y-92690550D02*
X165857387Y-92690550D01*
X120101037Y-97216897D02*
X123367384Y-93950550D01*
X123367384Y-93950550D02*
X124262052Y-93950550D01*
X118291995Y-97114560D02*
X118394332Y-97216897D01*
X124502052Y-93710550D02*
X124502052Y-93455273D01*
X153312616Y-93950550D02*
X154662616Y-95300550D01*
X126808501Y-93950550D02*
X153312616Y-93950550D01*
X125342052Y-93950550D02*
X125462052Y-93950550D01*
X125702052Y-93710550D02*
X125702052Y-93455273D01*
X165857387Y-92690550D02*
X168042513Y-90505424D01*
X154662616Y-95300550D02*
X159476318Y-95300550D01*
X126302052Y-93455273D02*
X126302052Y-93710550D01*
X159900550Y-94876318D02*
X159900550Y-94687384D01*
X125942052Y-93215273D02*
X126062052Y-93215273D01*
X125102052Y-93455273D02*
X125102052Y-93710550D01*
X126542052Y-93950550D02*
X126662052Y-93950550D01*
X124262052Y-93950550D02*
G75*
G03*
X124502050Y-93710550I48J239950D01*
G01*
X126062052Y-93215273D02*
G75*
G02*
X126302127Y-93455273I48J-240027D01*
G01*
X125462052Y-93950550D02*
G75*
G03*
X125702050Y-93710550I48J239950D01*
G01*
X124502052Y-93455273D02*
G75*
G02*
X124742052Y-93215252I240048J-27D01*
G01*
X126302052Y-93710550D02*
G75*
G03*
X126542052Y-93950648I240048J-50D01*
G01*
X125702052Y-93455273D02*
G75*
G02*
X125942052Y-93215252I240048J-27D01*
G01*
X125102052Y-93710550D02*
G75*
G03*
X125342052Y-93950648I240048J-50D01*
G01*
X124862052Y-93215273D02*
G75*
G02*
X125102127Y-93455273I48J-240027D01*
G01*
%TO.N,/R +*%
X118569212Y-97615797D02*
X118519999Y-97665010D01*
X168324578Y-90787489D02*
X166022617Y-93089450D01*
X159641550Y-95699450D02*
X154497384Y-95699450D01*
X168537489Y-90787489D02*
X168324578Y-90787489D01*
X160299450Y-94852616D02*
X160299450Y-95041550D01*
X123532616Y-94349450D02*
X120266269Y-97615797D01*
X160299450Y-95041550D02*
X159641550Y-95699450D01*
X118519999Y-97665010D02*
X118345119Y-97665010D01*
X118345119Y-97665010D02*
X118127577Y-97882552D01*
X153147384Y-94349450D02*
X123532616Y-94349450D01*
X154497384Y-95699450D02*
X153147384Y-94349450D01*
X120266269Y-97615797D02*
X118569212Y-97615797D01*
X162062616Y-93089450D02*
X160299450Y-94852616D01*
X166022617Y-93089450D02*
X162062616Y-93089450D01*
D23*
%TO.N,Net-(U1A-GPIO_SD_B1_06)*%
X137300000Y-70740000D02*
X149750000Y-70740000D01*
X135310000Y-72730000D02*
X137300000Y-70740000D01*
X151340000Y-72330000D02*
X152270000Y-72330000D01*
X152270000Y-72330000D02*
X152310000Y-72290000D01*
X149750000Y-70740000D02*
X151340000Y-72330000D01*
D25*
%TO.N,/T +*%
X108530550Y-93779450D02*
X108530550Y-98552616D01*
X111357384Y-101379450D02*
X115482616Y-101379450D01*
X109964301Y-92345699D02*
X109540179Y-92769821D01*
X170762616Y-98069450D02*
X172789450Y-96042616D01*
X121822616Y-98069450D02*
X170762616Y-98069450D01*
X120892616Y-98999450D02*
X121822616Y-98069450D01*
X117862616Y-98999450D02*
X120892616Y-98999450D01*
X171338633Y-90137935D02*
X171338633Y-89913661D01*
X109540179Y-92769821D02*
X108530550Y-93779450D01*
X108530550Y-98552616D02*
X111357384Y-101379450D01*
X172789450Y-96042616D02*
X172789450Y-91588752D01*
X172789450Y-91588752D02*
X171338633Y-90137935D01*
X110049469Y-92260531D02*
X109964301Y-92345699D01*
X115482616Y-101379450D02*
X117862616Y-98999450D01*
X111930000Y-90380000D02*
X110256957Y-92053043D01*
X110256957Y-92053043D02*
X110049469Y-92260531D01*
D23*
%TO.N,Net-(U1A-POR_B)*%
X153120000Y-75490000D02*
X153120000Y-75460000D01*
X153140000Y-75510000D02*
X153120000Y-75490000D01*
%TO.N,Net-(U1A-GPIO_SD_B1_08)*%
X141582000Y-71808000D02*
X148911362Y-71808000D01*
X139858819Y-75208901D02*
X139858819Y-75148819D01*
X148911362Y-71808000D02*
X149057862Y-71954500D01*
X139858819Y-75148819D02*
X139730000Y-75020000D01*
X139730000Y-73660000D02*
X141582000Y-71808000D01*
X139730000Y-75020000D02*
X139730000Y-73660000D01*
%TO.N,/LED*%
X102357000Y-90910000D02*
X102200000Y-91067000D01*
X162813432Y-91240000D02*
X159233432Y-94820000D01*
X110210000Y-88720000D02*
X108020000Y-90910000D01*
X155212600Y-93572600D02*
X134342600Y-93572600D01*
X159233432Y-94820000D02*
X156460000Y-94820000D01*
X165550000Y-91240000D02*
X162813432Y-91240000D01*
X108020000Y-90910000D02*
X102357000Y-90910000D01*
X134342600Y-93572600D02*
X129490000Y-88720000D01*
X156460000Y-94820000D02*
X155212600Y-93572600D01*
X129490000Y-88720000D02*
X110210000Y-88720000D01*
%TO.N,Net-(U1A-GPIO_SD_B1_07)*%
X152160000Y-73130000D02*
X152023500Y-73266500D01*
X148450000Y-74130000D02*
X147620000Y-73300000D01*
X152023500Y-73266500D02*
X152023500Y-73268729D01*
X151728557Y-73563672D02*
X151726328Y-73563672D01*
X151020000Y-73830000D02*
X150720000Y-74130000D01*
X150720000Y-74130000D02*
X148450000Y-74130000D01*
X153180000Y-73150000D02*
X153160000Y-73130000D01*
X151460000Y-73830000D02*
X151020000Y-73830000D01*
X140480000Y-74570000D02*
X140327500Y-74722500D01*
X140720000Y-73300000D02*
X140480000Y-73540000D01*
X140480000Y-73540000D02*
X140480000Y-74570000D01*
X147620000Y-73300000D02*
X140720000Y-73300000D01*
X151726328Y-73563672D02*
X151460000Y-73830000D01*
X152023500Y-73268729D02*
X151728557Y-73563672D01*
X153160000Y-73130000D02*
X152160000Y-73130000D01*
X140327500Y-74722500D02*
X140290000Y-74722500D01*
D26*
%TO.N,Net-(U1B-GPIO_B1_06)*%
X160623886Y-79720750D02*
X161348749Y-79720750D01*
X161988772Y-80026500D02*
X162155901Y-80026500D01*
X165257136Y-80026500D02*
X165833500Y-80602864D01*
X170620000Y-83590000D02*
X170620000Y-84360000D01*
X161919384Y-79957113D02*
X161919383Y-79957113D01*
X161683020Y-79720750D02*
X161683021Y-79720749D01*
X167704136Y-82473500D02*
X168038407Y-82473500D01*
X161919386Y-79957114D02*
X161919386Y-79957115D01*
X167560000Y-82340000D02*
X167570635Y-82340000D01*
X161683020Y-79720750D02*
X161784098Y-79821827D01*
X160480750Y-79720750D02*
X160623886Y-79720750D01*
X165833500Y-80602864D02*
X165833500Y-80613500D01*
X162155901Y-80026500D02*
X162323036Y-80026503D01*
X167570635Y-82340000D02*
X167704135Y-82473500D01*
X160280000Y-79520000D02*
X160480750Y-79720750D01*
X161784098Y-79821827D02*
X161885175Y-79922903D01*
X161988770Y-80026500D02*
X161988772Y-80026500D01*
X162323036Y-80026503D02*
X162323039Y-80026500D01*
X167704135Y-82473500D02*
X167704136Y-82473500D01*
X161885175Y-79922903D02*
X161919384Y-79957113D01*
X162323039Y-80026500D02*
X165257136Y-80026500D01*
X161919384Y-79957113D02*
X161919386Y-79957114D01*
X161919386Y-79957115D02*
X161919386Y-79957116D01*
X161348749Y-79720750D02*
X161683020Y-79720750D01*
X165833500Y-80613500D02*
X167560000Y-82340000D01*
X169503500Y-82473500D02*
X170620000Y-83590000D01*
X168038407Y-82473500D02*
X169503500Y-82473500D01*
X161988767Y-80026497D02*
X161988770Y-80026500D01*
X161919386Y-79957116D02*
X161988767Y-80026497D01*
%TO.N,Net-(U1B-GPIO_B1_04)*%
X169959000Y-85000000D02*
X172240000Y-85000000D01*
X168125584Y-83526999D02*
X168126999Y-83526999D01*
X161752251Y-80360616D02*
X161821631Y-80429999D01*
X165666365Y-81017000D02*
X165666365Y-81826365D01*
X167816729Y-83218144D02*
X168125584Y-83526999D01*
X165090000Y-80430000D02*
X165430000Y-80770000D01*
X165430000Y-80770000D02*
X165430000Y-80780636D01*
X161821635Y-80430000D02*
X161821634Y-80429999D01*
X160301000Y-80280000D02*
X160456750Y-80124250D01*
X168781250Y-83822250D02*
X169959000Y-85000000D01*
X161821635Y-80430000D02*
X165090000Y-80430000D01*
X165430000Y-80780636D02*
X165666365Y-81017000D01*
X167453500Y-83062865D02*
X167608780Y-83218144D01*
X168126999Y-83526999D02*
X168422250Y-83822250D01*
X168422250Y-83822250D02*
X168781250Y-83822250D01*
X167217136Y-82826500D02*
X167453500Y-83062865D01*
X167608780Y-83218144D02*
X167816729Y-83218144D01*
X166666500Y-82826500D02*
X167217136Y-82826500D01*
X165666365Y-81826365D02*
X166666500Y-82826500D01*
X160456750Y-80124250D02*
X161515885Y-80124250D01*
X158690000Y-80280000D02*
X160301000Y-80280000D01*
X161821631Y-80429999D02*
X161821635Y-80430000D01*
X161515885Y-80124250D02*
X161752251Y-80360616D01*
%TO.N,Net-(U1B-GPIO_B1_11)*%
X167742115Y-83922115D02*
X167050000Y-83230000D01*
X167742115Y-84077885D02*
X167742115Y-83922115D01*
X160891250Y-80527750D02*
X160769000Y-80650000D01*
X160700000Y-80650000D02*
X160290000Y-81060000D01*
X161348750Y-80527750D02*
X160891250Y-80527750D01*
X163750000Y-80870000D02*
X161691000Y-80870000D01*
X160769000Y-80650000D02*
X160700000Y-80650000D01*
X166110000Y-83230000D02*
X163750000Y-80870000D01*
X161691000Y-80870000D02*
X161348750Y-80527750D01*
X167050000Y-83230000D02*
X166110000Y-83230000D01*
D24*
%TO.N,Net-(U1B-GPIO_B1_09)*%
X164380000Y-85199232D02*
X164380000Y-85360000D01*
X163540707Y-84359939D02*
X164380000Y-85199232D01*
X163540707Y-81509293D02*
X163540707Y-84359939D01*
%TO.N,Net-(U1B-GPIO_B1_14)*%
X165490000Y-84590000D02*
X165660000Y-84760000D01*
X165660000Y-84760000D02*
X165660000Y-84920000D01*
X165490000Y-84510000D02*
X165490000Y-84590000D01*
X165660000Y-84920000D02*
X165741000Y-85001000D01*
X167601000Y-85551000D02*
X174229000Y-85551000D01*
X174229000Y-85551000D02*
X174270000Y-85510000D01*
X167051000Y-85001000D02*
X167601000Y-85551000D01*
X165741000Y-85001000D02*
X167051000Y-85001000D01*
D26*
%TO.N,Net-(U1B-GPIO_B1_05)*%
X160508750Y-78967750D02*
X160832250Y-79291250D01*
X167871271Y-82070000D02*
X165424272Y-79623000D01*
X159727750Y-79291250D02*
X160051250Y-78967750D01*
X161515885Y-79317249D02*
X161850153Y-79317249D01*
X160858250Y-79317250D02*
X161515885Y-79317249D01*
X159530000Y-79490000D02*
X159727750Y-79292250D01*
X169800000Y-82070000D02*
X167871271Y-82070000D01*
X159727750Y-79292250D02*
X159727750Y-79291250D01*
X160832250Y-79291250D02*
X160858250Y-79317250D01*
X162155905Y-79623000D02*
X161850155Y-79317250D01*
X171169319Y-83439319D02*
X169800000Y-82070000D01*
X165424272Y-79623000D02*
X162155905Y-79623000D01*
X171823069Y-83439319D02*
X171169319Y-83439319D01*
X161850155Y-79317250D02*
X161850155Y-79317249D01*
X161850153Y-79317249D02*
X161850155Y-79317250D01*
X160051250Y-78967750D02*
X160508750Y-78967750D01*
X173210000Y-84826250D02*
X171823069Y-83439319D01*
D24*
%TO.N,Net-(U1B-GPIO_B1_15)*%
X167554367Y-85975500D02*
X167554368Y-85975500D01*
X164910000Y-84737100D02*
X164910000Y-83590000D01*
X172590000Y-86050000D02*
X167628868Y-86050000D01*
X173660000Y-87120000D02*
X172590000Y-86050000D01*
X167628868Y-86050000D02*
X167554367Y-85975500D01*
X167554367Y-85975500D02*
X166148400Y-85975500D01*
X164910000Y-83590000D02*
X164710000Y-83390000D01*
X166148400Y-85975500D02*
X164910000Y-84737100D01*
D26*
%TO.N,Net-(U1B-GPIO_B1_10)*%
X173160000Y-89710000D02*
X172590000Y-89710000D01*
X167387750Y-86377750D02*
X164616750Y-86377750D01*
X168010000Y-87000000D02*
X167387750Y-86377750D01*
X161120000Y-82881000D02*
X161120000Y-81080000D01*
X172590000Y-89710000D02*
X171750000Y-88870000D01*
X168780000Y-88870000D02*
X168010000Y-88100000D01*
X164616750Y-86377750D02*
X161120000Y-82881000D01*
X171750000Y-88870000D02*
X168780000Y-88870000D01*
X168010000Y-88100000D02*
X168010000Y-87000000D01*
D23*
%TO.N,/JTAG_MOD*%
X156830000Y-85410000D02*
X156660000Y-85410000D01*
%TD*%
M02*
