%TF.GenerationSoftware,KiCad,Pcbnew,9.0.0*%
%TF.CreationDate,2025-04-18T01:08:42+10:00*%
%TF.ProjectId,Teensy_4.1_attempt_1,5465656e-7379-45f3-942e-315f61747465,rev?*%
%TF.SameCoordinates,Original*%
%TF.FileFunction,Soldermask,Bot*%
%TF.FilePolarity,Negative*%
%FSLAX46Y46*%
G04 Gerber Fmt 4.6, Leading zero omitted, Abs format (unit mm)*
G04 Created by KiCad (PCBNEW 9.0.0) date 2025-04-18 01:08:42*
%MOMM*%
%LPD*%
G01*
G04 APERTURE LIST*
%ADD10R,1.700000X1.700000*%
%ADD11O,1.700000X1.700000*%
%ADD12C,3.250000*%
%ADD13R,1.408000X1.408000*%
%ADD14C,1.408000*%
%ADD15C,1.530000*%
%ADD16C,2.400000*%
%ADD17C,0.650000*%
%ADD18O,2.100000X1.000000*%
%ADD19O,1.600000X1.000000*%
%ADD20R,1.000000X1.000000*%
%ADD21O,1.000000X1.000000*%
%ADD22R,1.200000X0.700000*%
%ADD23R,0.800000X1.000000*%
%ADD24R,2.800000X1.000000*%
%ADD25R,1.200000X1.000000*%
%ADD26R,1.900000X1.300000*%
G04 APERTURE END LIST*
D10*
%TO.C,J6*%
X151215000Y-96200000D03*
D11*
X148675000Y-96200000D03*
X146135000Y-96200000D03*
%TD*%
D10*
%TO.C,J4*%
X178600000Y-101030000D03*
D11*
X176060000Y-101030000D03*
X173520000Y-101030000D03*
X170980000Y-101030000D03*
X168440000Y-101030000D03*
X165900000Y-101030000D03*
X163360000Y-101030000D03*
X160820000Y-101030000D03*
X158280000Y-101030000D03*
X155740000Y-101030000D03*
X153200000Y-101030000D03*
%TD*%
D12*
%TO.C,P1*%
X105580000Y-89105000D03*
X105580000Y-100535000D03*
D13*
X111930000Y-90375000D03*
D14*
X114470000Y-91645000D03*
X111930000Y-92915000D03*
X114470000Y-94185000D03*
X111930000Y-95455000D03*
X114470000Y-96725000D03*
X111930000Y-97995000D03*
X114470000Y-99265000D03*
D15*
X100500000Y-88495000D03*
X102200000Y-91062000D03*
X100500000Y-98578000D03*
X102200000Y-101145000D03*
D16*
X108630000Y-87070000D03*
X108630000Y-102570000D03*
%TD*%
D17*
%TO.C,USB_DFP1*%
X101650000Y-72430000D03*
X101650000Y-78210000D03*
D18*
X102180000Y-71000000D03*
D19*
X98000000Y-71000000D03*
D18*
X102180000Y-79640000D03*
D19*
X98000000Y-79640000D03*
%TD*%
D10*
%TO.C,J3*%
X178600000Y-63875000D03*
D11*
X178600000Y-66415000D03*
X178600000Y-68955000D03*
X178600000Y-71495000D03*
X178600000Y-74035000D03*
X178600000Y-76575000D03*
X178600000Y-79115000D03*
X178600000Y-81655000D03*
X178600000Y-84195000D03*
X178600000Y-86735000D03*
X178600000Y-89275000D03*
X178600000Y-91815000D03*
%TD*%
D10*
%TO.C,J5*%
X144630000Y-101030000D03*
D11*
X142090000Y-101030000D03*
X139550000Y-101030000D03*
X137010000Y-101030000D03*
X134470000Y-101030000D03*
X131930000Y-101030000D03*
X129390000Y-101030000D03*
X126850000Y-101030000D03*
X124310000Y-101030000D03*
X121770000Y-101030000D03*
X119230000Y-101030000D03*
%TD*%
D20*
%TO.C,SWD1*%
X163300000Y-94280000D03*
D21*
X164570000Y-94280000D03*
X165840000Y-94280000D03*
X167110000Y-94280000D03*
X168380000Y-94280000D03*
X169650000Y-94280000D03*
X170920000Y-94280000D03*
%TD*%
D17*
%TO.C,USB_UFP1*%
X101650000Y-55290000D03*
X101650000Y-61070000D03*
D18*
X102180000Y-53860000D03*
D19*
X98000000Y-53860000D03*
D18*
X102180000Y-62500000D03*
D19*
X98000000Y-62500000D03*
%TD*%
D10*
%TO.C,J7*%
X101775000Y-66750000D03*
D11*
X99235000Y-66750000D03*
X96695000Y-66750000D03*
%TD*%
D10*
%TO.C,J2*%
X178600000Y-54670000D03*
D11*
X176060000Y-54670000D03*
X173520000Y-54670000D03*
X170980000Y-54670000D03*
X168440000Y-54670000D03*
X165900000Y-54670000D03*
X163360000Y-54670000D03*
X160820000Y-54670000D03*
X158280000Y-54670000D03*
X155740000Y-54670000D03*
X153200000Y-54670000D03*
%TD*%
D10*
%TO.C,J1*%
X144600000Y-54670000D03*
D11*
X142060000Y-54670000D03*
X139520000Y-54670000D03*
X136980000Y-54670000D03*
X134440000Y-54670000D03*
X131900000Y-54670000D03*
X129360000Y-54670000D03*
X126820000Y-54670000D03*
X124280000Y-54670000D03*
X121740000Y-54670000D03*
X119200000Y-54670000D03*
%TD*%
D22*
%TO.C,J8*%
X131890000Y-73710000D03*
X131890000Y-74810000D03*
X131890000Y-75910000D03*
X131890000Y-77010000D03*
X131890000Y-78110000D03*
X131890000Y-79210000D03*
X131890000Y-80310000D03*
X131890000Y-81410000D03*
X131890000Y-82360000D03*
D23*
X121390000Y-83310000D03*
D24*
X117240000Y-83310000D03*
D25*
X127590000Y-83310000D03*
X131890000Y-72160000D03*
D26*
X116790000Y-69810000D03*
%TD*%
M02*
