%TF.GenerationSoftware,KiCad,Pcbnew,9.0.0*%
%TF.CreationDate,2025-04-18T01:08:42+10:00*%
%TF.ProjectId,Teensy_4.1_attempt_1,5465656e-7379-45f3-942e-315f61747465,rev?*%
%TF.SameCoordinates,Original*%
%TF.FileFunction,Copper,L4,Inr*%
%TF.FilePolarity,Positive*%
%FSLAX46Y46*%
G04 Gerber Fmt 4.6, Leading zero omitted, Abs format (unit mm)*
G04 Created by KiCad (PCBNEW 9.0.0) date 2025-04-18 01:08:42*
%MOMM*%
%LPD*%
G01*
G04 APERTURE LIST*
%TA.AperFunction,ComponentPad*%
%ADD10R,1.700000X1.700000*%
%TD*%
%TA.AperFunction,ComponentPad*%
%ADD11O,1.700000X1.700000*%
%TD*%
%TA.AperFunction,ComponentPad*%
%ADD12R,1.408000X1.408000*%
%TD*%
%TA.AperFunction,ComponentPad*%
%ADD13C,1.408000*%
%TD*%
%TA.AperFunction,ComponentPad*%
%ADD14C,1.530000*%
%TD*%
%TA.AperFunction,ComponentPad*%
%ADD15C,2.400000*%
%TD*%
%TA.AperFunction,HeatsinkPad*%
%ADD16O,2.100000X1.000000*%
%TD*%
%TA.AperFunction,HeatsinkPad*%
%ADD17O,1.600000X1.000000*%
%TD*%
%TA.AperFunction,ComponentPad*%
%ADD18R,1.000000X1.000000*%
%TD*%
%TA.AperFunction,ComponentPad*%
%ADD19O,1.000000X1.000000*%
%TD*%
%TA.AperFunction,ComponentPad*%
%ADD20C,0.400000*%
%TD*%
%TA.AperFunction,ViaPad*%
%ADD21C,0.450000*%
%TD*%
%TA.AperFunction,Conductor*%
%ADD22C,0.155000*%
%TD*%
%TA.AperFunction,Conductor*%
%ADD23C,0.250000*%
%TD*%
%TA.AperFunction,Conductor*%
%ADD24C,0.200000*%
%TD*%
%TA.AperFunction,Conductor*%
%ADD25C,0.202500*%
%TD*%
G04 APERTURE END LIST*
D10*
%TO.N,/D16_A2*%
%TO.C,J6*%
X151215000Y-96200000D03*
D11*
%TO.N,/D38_A14*%
X148675000Y-96200000D03*
%TO.N,/D24_A10*%
X146135000Y-96200000D03*
%TD*%
D10*
%TO.N,+3V3*%
%TO.C,J4*%
X178600000Y-101030000D03*
D11*
%TO.N,/D8*%
X176060000Y-101030000D03*
%TO.N,/D7*%
X173520000Y-101030000D03*
%TO.N,/D36*%
X170980000Y-101030000D03*
%TO.N,/D37*%
X168440000Y-101030000D03*
%TO.N,/D35*%
X165900000Y-101030000D03*
%TO.N,/D34*%
X163360000Y-101030000D03*
%TO.N,/D27_A13*%
X160820000Y-101030000D03*
%TO.N,/D21_A7*%
X158280000Y-101030000D03*
%TO.N,/D17_A3*%
X155740000Y-101030000D03*
%TO.N,/D19_A5*%
X153200000Y-101030000D03*
%TD*%
D12*
%TO.N,/T +*%
%TO.C,P1*%
X111930000Y-90375000D03*
D13*
%TO.N,Net-(P1-RCT)*%
X114470000Y-91645000D03*
%TO.N,/T -*%
X111930000Y-92915000D03*
%TO.N,/R +*%
X114470000Y-94185000D03*
%TO.N,Net-(P1-RCT)*%
X111930000Y-95455000D03*
%TO.N,/R -*%
X114470000Y-96725000D03*
%TO.N,unconnected-(P1-NC-Pad7)*%
X111930000Y-97995000D03*
%TO.N,GND*%
X114470000Y-99265000D03*
D14*
%TO.N,/LED*%
X102200000Y-91062000D03*
%TO.N,unconnected-(P1-YLW--Pad11)*%
X100500000Y-98578000D03*
%TO.N,unconnected-(P1-YLW+-Pad12)*%
X102200000Y-101145000D03*
D15*
%TO.N,unconnected-(P1-CH_GND@2-Pad13)*%
X108630000Y-87070000D03*
%TO.N,unconnected-(P1-CH_GND@3-Pad14)*%
X108630000Y-102570000D03*
%TD*%
D16*
%TO.N,Net-(USB_DFP1-SHIELD)*%
%TO.C,USB_DFP1*%
X102180000Y-71000000D03*
D17*
X98000000Y-71000000D03*
D16*
X102180000Y-79640000D03*
D17*
X98000000Y-79640000D03*
%TD*%
D10*
%TO.N,+3V3*%
%TO.C,J3*%
X178600000Y-63875000D03*
D11*
%TO.N,/D28*%
X178600000Y-66415000D03*
%TO.N,/D29*%
X178600000Y-68955000D03*
%TO.N,/D12*%
X178600000Y-71495000D03*
%TO.N,/D10*%
X178600000Y-74035000D03*
%TO.N,/D11*%
X178600000Y-76575000D03*
%TO.N,/D13*%
X178600000Y-79115000D03*
%TO.N,/D6*%
X178600000Y-81655000D03*
%TO.N,/D32*%
X178600000Y-84195000D03*
%TO.N,/D9*%
X178600000Y-86735000D03*
%TO.N,/D0*%
X178600000Y-89275000D03*
%TO.N,GND*%
X178600000Y-91815000D03*
%TD*%
D10*
%TO.N,/D22_A8*%
%TO.C,J5*%
X144630000Y-101030000D03*
D11*
%TO.N,/D39_A15*%
X142090000Y-101030000D03*
%TO.N,/D25_A11*%
X139550000Y-101030000D03*
%TO.N,/D20_A6*%
X137010000Y-101030000D03*
%TO.N,/D23_A9*%
X134470000Y-101030000D03*
%TO.N,/D40_A16*%
X131930000Y-101030000D03*
%TO.N,/D15_A1*%
X129390000Y-101030000D03*
%TO.N,/D14_A0*%
X126850000Y-101030000D03*
%TO.N,/D1*%
X124310000Y-101030000D03*
%TO.N,+3V3*%
X121770000Y-101030000D03*
%TO.N,GND*%
X119230000Y-101030000D03*
%TD*%
D18*
%TO.N,/DCDC_PSWITCH*%
%TO.C,SWD1*%
X163300000Y-94280000D03*
D19*
%TO.N,/JTAG_TCK*%
X164570000Y-94280000D03*
%TO.N,/JTAG_TDO*%
X165840000Y-94280000D03*
%TO.N,/JTAG_TDI*%
X167110000Y-94280000D03*
%TO.N,/JTAG_MOD*%
X168380000Y-94280000D03*
%TO.N,/JTAG_TMS*%
X169650000Y-94280000D03*
%TO.N,GND*%
X170920000Y-94280000D03*
%TD*%
D16*
%TO.N,Net-(USB_UFP1-SHIELD)*%
%TO.C,USB_UFP1*%
X102180000Y-53860000D03*
D17*
X98000000Y-53860000D03*
D16*
X102180000Y-62500000D03*
D17*
X98000000Y-62500000D03*
%TD*%
D20*
%TO.N,GND*%
%TO.C,U5*%
X169005000Y-86835000D03*
X170405000Y-86835000D03*
X169705000Y-87535000D03*
X169005000Y-88235000D03*
X170405000Y-88235000D03*
%TD*%
D10*
%TO.N,/ONOFF*%
%TO.C,J7*%
X101775000Y-66750000D03*
D11*
%TO.N,/WAKEUP*%
X99235000Y-66750000D03*
%TO.N,GND*%
X96695000Y-66750000D03*
%TD*%
D10*
%TO.N,GND*%
%TO.C,J2*%
X178600000Y-54670000D03*
D11*
%TO.N,/D49*%
X176060000Y-54670000D03*
%TO.N,/D31*%
X173520000Y-54670000D03*
%TO.N,/D52*%
X170980000Y-54670000D03*
%TO.N,/D48*%
X168440000Y-54670000D03*
%TO.N,/D53*%
X165900000Y-54670000D03*
%TO.N,/D50*%
X163360000Y-54670000D03*
%TO.N,/D30*%
X160820000Y-54670000D03*
%TO.N,/D54*%
X158280000Y-54670000D03*
%TO.N,/D51*%
X155740000Y-54670000D03*
%TO.N,+3V3*%
X153200000Y-54670000D03*
%TD*%
D10*
%TO.N,GND*%
%TO.C,J1*%
X144600000Y-54670000D03*
D11*
%TO.N,/D3*%
X142060000Y-54670000D03*
%TO.N,/D2*%
X139520000Y-54670000D03*
%TO.N,/D5*%
X136980000Y-54670000D03*
%TO.N,/D33*%
X134440000Y-54670000D03*
%TO.N,/D44*%
X131900000Y-54670000D03*
%TO.N,/D4*%
X129360000Y-54670000D03*
%TO.N,/D43*%
X126820000Y-54670000D03*
%TO.N,/D46*%
X124280000Y-54670000D03*
%TO.N,/D45*%
X121740000Y-54670000D03*
%TO.N,/D42*%
X119200000Y-54670000D03*
%TD*%
D21*
%TO.N,+5V*%
X150360000Y-74817500D03*
X135950000Y-62910000D03*
X143520000Y-66800000D03*
X143620000Y-62340000D03*
%TO.N,GND*%
X141100000Y-60710000D03*
X150580000Y-85140000D03*
X154710706Y-77119293D03*
X169705000Y-89880000D03*
X111350000Y-58250000D03*
X149280000Y-88210000D03*
X135610000Y-76490000D03*
X142050000Y-76040000D03*
X155340000Y-76300000D03*
X142295000Y-89070000D03*
X134470000Y-60300000D03*
X120030000Y-93720000D03*
X156520000Y-76290000D03*
X104930000Y-79740000D03*
X114250000Y-58010000D03*
X147960000Y-82560000D03*
X138670000Y-64540000D03*
X132255000Y-60515000D03*
X116090000Y-77180000D03*
X143585000Y-89080000D03*
X138560000Y-79740000D03*
X141810000Y-76590000D03*
X146080000Y-82610000D03*
X168170000Y-78640000D03*
X130010000Y-80630000D03*
X156075000Y-65190000D03*
X164090000Y-70260000D03*
X151350000Y-64585000D03*
X172152500Y-72600000D03*
X164430707Y-82399293D03*
X159270000Y-93950000D03*
X105230000Y-63290000D03*
X134000000Y-66840000D03*
X148420000Y-85510000D03*
X145210000Y-72370000D03*
X157602500Y-82950000D03*
X167880000Y-73200000D03*
X165830000Y-72860000D03*
X170610000Y-73200000D03*
X112390000Y-61430000D03*
X105210000Y-62410000D03*
X105140000Y-54760000D03*
X168342564Y-82999749D03*
X177740000Y-97100000D03*
X102750000Y-81950000D03*
X109680000Y-53410000D03*
X134285000Y-82135000D03*
X153960000Y-72250000D03*
X156010000Y-67150000D03*
X152310000Y-77080000D03*
X151510000Y-71480000D03*
X144595000Y-89540000D03*
X167190000Y-62860000D03*
X155910000Y-64600000D03*
X105860000Y-71920000D03*
X169675000Y-79740000D03*
X147360000Y-66230000D03*
X158700000Y-81050000D03*
X145260000Y-65580000D03*
X134950000Y-66680000D03*
X146950000Y-65580000D03*
X137270000Y-57200000D03*
X166990000Y-70570000D03*
X172030000Y-79595000D03*
X173990000Y-79575000D03*
X133460000Y-65670000D03*
X149730000Y-69812500D03*
X144760000Y-92110000D03*
X112795000Y-63195000D03*
%TO.N,+3V3*%
X157910000Y-74680000D03*
X171805000Y-84275000D03*
X167340000Y-89840000D03*
X157955000Y-77855000D03*
X154665497Y-73835497D03*
X156340000Y-60190000D03*
X169660000Y-61840000D03*
X129690000Y-77630000D03*
X152130000Y-82790000D03*
X136710000Y-84090000D03*
X151460000Y-62730000D03*
X151505000Y-80275000D03*
X138940000Y-72710000D03*
X173810000Y-83735000D03*
X145350000Y-67480000D03*
X171190000Y-70280000D03*
X155430000Y-77960000D03*
X156540000Y-90250000D03*
X148610000Y-61220000D03*
X154725000Y-74695000D03*
%TO.N,Net-(U1B-VDD_USB_CAP)*%
X154690245Y-76317958D03*
X151420000Y-87150000D03*
%TO.N,Net-(C20-Pad1)*%
X160210000Y-67530000D03*
X153322968Y-70605806D03*
%TO.N,/USB1_DN*%
X152305375Y-76275375D03*
X109180000Y-57640000D03*
X104970000Y-57670000D03*
X113740000Y-60210000D03*
%TO.N,+5VD*%
X116200000Y-58170000D03*
X104420000Y-67950000D03*
X111390000Y-56880000D03*
X111950000Y-68220000D03*
X105460000Y-60680000D03*
%TO.N,/USB1_DP*%
X105100000Y-58320000D03*
X153140000Y-76300000D03*
X109110000Y-58380000D03*
X114200000Y-59710000D03*
%TO.N,Net-(U1B-VDD_SNVS_IN)*%
X132590000Y-86670000D03*
X152330000Y-77870000D03*
%TO.N,/USB2_DN*%
X109150000Y-75150000D03*
X119270000Y-79201500D03*
X151510000Y-76300000D03*
X113730000Y-76221000D03*
%TO.N,+5VL*%
X105950000Y-78990000D03*
X111510000Y-80130000D03*
X105640000Y-73490000D03*
X115920000Y-75230000D03*
X113970000Y-73640000D03*
X112580000Y-74120000D03*
X111350000Y-73410000D03*
%TO.N,/USB2_DP*%
X109150000Y-75810000D03*
X119270000Y-78501497D03*
X150710000Y-76290000D03*
X113730000Y-76921003D03*
%TO.N,/D33*%
X155577500Y-68455322D03*
%TO.N,/D2*%
X156598000Y-69650000D03*
%TO.N,/D42*%
X148920000Y-69090000D03*
%TO.N,/D3*%
X157900000Y-73070000D03*
%TO.N,/D45*%
X154740000Y-73110000D03*
%TO.N,/D43*%
X149540000Y-67400000D03*
%TO.N,/D4*%
X156320000Y-73890000D03*
%TO.N,/D5*%
X156290000Y-72260000D03*
%TO.N,/D44*%
X154730000Y-72290000D03*
%TO.N,/D46*%
X148590000Y-67300000D03*
%TO.N,/D31*%
X160340000Y-72270000D03*
%TO.N,/D50*%
X168730000Y-67200000D03*
X159380000Y-69980000D03*
%TO.N,/D51*%
X157920000Y-71450000D03*
%TO.N,/D53*%
X159460000Y-71500000D03*
X173570000Y-66990000D03*
%TO.N,/D48*%
X166520000Y-63880000D03*
X159500000Y-72300000D03*
%TO.N,/D30*%
X158710000Y-73120000D03*
%TO.N,/D54*%
X170280000Y-65940000D03*
X157960000Y-70160000D03*
%TO.N,/D32*%
X162780000Y-77240000D03*
%TO.N,/D9*%
X167800000Y-79920000D03*
%TO.N,/D6*%
X158755000Y-77125000D03*
%TO.N,/D13*%
X172920000Y-76640000D03*
X159539797Y-77099522D03*
%TO.N,/D0*%
X157110000Y-77900000D03*
%TO.N,/D10*%
X162570000Y-75350000D03*
%TO.N,/D12*%
X158720000Y-75490000D03*
%TO.N,/D11*%
X158044999Y-77042786D03*
%TO.N,/D27_A13*%
X155466328Y-82900000D03*
%TO.N,/D7*%
X168790000Y-80510000D03*
%TO.N,/D19_A5*%
X153170000Y-92390000D03*
X154732745Y-78680000D03*
%TO.N,/D37*%
X158933500Y-78781356D03*
%TO.N,/D17_A3*%
X154960000Y-84580000D03*
%TO.N,/D34*%
X164205000Y-89525000D03*
%TO.N,/D35*%
X159510000Y-81090000D03*
%TO.N,/D21_A7*%
X155440328Y-81039672D03*
%TO.N,/D36*%
X159540000Y-77900000D03*
%TO.N,/D8*%
X168900000Y-81543750D03*
%TO.N,/D39_A15*%
X142100000Y-92010000D03*
X156267500Y-79496232D03*
%TO.N,/D1*%
X152340000Y-79480000D03*
%TO.N,/D25_A11*%
X153210000Y-82582500D03*
%TO.N,/D40_A16*%
X153115000Y-80295000D03*
%TO.N,/D14_A0*%
X153122672Y-79487328D03*
%TO.N,/D15_A1*%
X152305000Y-81085000D03*
%TO.N,/D16_A2*%
X154685000Y-77925000D03*
X152350000Y-92940000D03*
%TO.N,/D38_A14*%
X155540000Y-78730000D03*
%TO.N,/D24_A10*%
X154207500Y-83670000D03*
%TO.N,/WAKEUP*%
X152290000Y-73890000D03*
%TO.N,/ONOFF*%
X151530000Y-74700000D03*
%TO.N,/SOC_CAP_NET*%
X155494058Y-73911722D03*
X155199000Y-69705000D03*
%TO.N,Net-(L1-Pad1)*%
X152676814Y-70535194D03*
X151580000Y-66370000D03*
%TO.N,/PMIC_ON_REQ_PWR_SEQ*%
X147880004Y-69261328D03*
X153930000Y-75510000D03*
%TO.N,Net-(U3-PTB3{slash}IRQ_10)*%
X158450000Y-90400000D03*
X158960000Y-84330000D03*
%TO.N,Net-(U1B-GPIO_EMC_40)*%
X116120000Y-60010000D03*
X169240000Y-73230000D03*
%TO.N,Net-(U1A-GPIO_SD_B1_10)*%
X135738818Y-75166855D03*
X150725000Y-73095000D03*
%TO.N,/T -*%
X170820000Y-90420000D03*
%TO.N,Net-(U1A-GPIO_SD_B1_09)*%
X151520000Y-73060172D03*
X135200000Y-74720000D03*
%TO.N,/R -*%
X168042513Y-90292513D03*
X118291995Y-97114560D03*
%TO.N,Net-(U1A-GPIO_B0_13)*%
X158550000Y-85020000D03*
X158736678Y-77906678D03*
%TO.N,/R +*%
X168537489Y-90787489D03*
X118127577Y-97882552D03*
%TO.N,/D47*%
X133850000Y-69590000D03*
%TO.N,Net-(U1A-GPIO_SD_B1_06)*%
X135310000Y-72730000D03*
X152310000Y-72290000D03*
%TO.N,/T +*%
X171338633Y-89913661D03*
%TO.N,Net-(U1A-POR_B)*%
X153120000Y-75460000D03*
X160320000Y-84910000D03*
%TO.N,Net-(U1A-GPIO_SD_B1_08)*%
X149057862Y-71954500D03*
X139858819Y-75208901D03*
%TO.N,/LED*%
X165550000Y-91240000D03*
%TO.N,Net-(U1A-GPIO_EMC_01)*%
X156550000Y-87520000D03*
X157120000Y-73070000D03*
%TO.N,Net-(U1A-GPIO_AD_B0_04)*%
X161090000Y-90590000D03*
X157272500Y-79422906D03*
%TO.N,Net-(U1A-GPIO_SD_B1_07)*%
X153180000Y-73150000D03*
X140290000Y-74722500D03*
%TO.N,Net-(U3-PTB2{slash}IRQ_7)*%
X161230000Y-92067500D03*
X159640000Y-85510000D03*
%TO.N,Net-(U1B-GPIO_B1_06)*%
X170620000Y-84360000D03*
X160280000Y-79520000D03*
%TO.N,Net-(U1B-GPIO_B0_15)*%
X158730000Y-79480000D03*
X166020000Y-86930000D03*
%TO.N,Net-(U1B-GPIO_B1_04)*%
X158690000Y-80280000D03*
X172240000Y-85000000D03*
%TO.N,Net-(U1B-GPIO_B1_11)*%
X160290000Y-81060000D03*
X167742115Y-84077885D03*
%TO.N,Net-(U1B-GPIO_B1_09)*%
X164380000Y-85360000D03*
X163540707Y-81509293D03*
%TO.N,Net-(U1B-GPIO_B1_14)*%
X174270000Y-85510000D03*
X165490000Y-84510000D03*
%TO.N,Net-(U1B-GPIO_B1_05)*%
X173210000Y-84826250D03*
X159530000Y-79490000D03*
%TO.N,Net-(U1B-GPIO_B0_14)*%
X166890000Y-89070000D03*
X157927500Y-78645000D03*
%TO.N,Net-(U1B-GPIO_B1_15)*%
X164710000Y-83390000D03*
X173660000Y-87120000D03*
%TO.N,Net-(U1B-GPIO_B1_10)*%
X161120000Y-81080000D03*
X173160000Y-89710000D03*
%TO.N,/JTAG_TDI*%
X162440000Y-86650000D03*
%TO.N,/JTAG_TDO*%
X162835000Y-87565000D03*
%TO.N,/JTAG_MOD*%
X156660000Y-85410000D03*
X156350000Y-80300000D03*
%TO.N,/JTAG_TCK*%
X161610000Y-85340000D03*
X157977702Y-80291932D03*
%TO.N,/DCDC_PSWITCH*%
X157120000Y-78710000D03*
X153540000Y-65010000D03*
X159770000Y-91540000D03*
X153900000Y-73860000D03*
%TD*%
D22*
%TO.N,/PMIC_ON_REQ_PWR_SEQ*%
X153930000Y-74724557D02*
X153930000Y-75510000D01*
X148825443Y-69620000D02*
X153930000Y-74724557D01*
X148270000Y-69620000D02*
X148825443Y-69620000D01*
X147910000Y-69260000D02*
X148270000Y-69620000D01*
X147881332Y-69260000D02*
X147910000Y-69260000D01*
X147880004Y-69261328D02*
X147881332Y-69260000D01*
D23*
%TO.N,+5V*%
X150149000Y-71547751D02*
X148624749Y-70023500D01*
X143520000Y-66860000D02*
X143500000Y-66840000D01*
D24*
X143520000Y-66860000D02*
X143520000Y-66800000D01*
D23*
X146240768Y-68400000D02*
X145060000Y-68400000D01*
X150360000Y-74817500D02*
X150149000Y-74606500D01*
D24*
X143520000Y-66800000D02*
X143520000Y-62440000D01*
D23*
X148102864Y-70023500D02*
X147891693Y-69812328D01*
X148102865Y-70023500D02*
X148102864Y-70023500D01*
X147329004Y-69488236D02*
X146240768Y-68400000D01*
X148624749Y-70023500D02*
X148437136Y-70023500D01*
D24*
X143520000Y-62440000D02*
X143620000Y-62340000D01*
D23*
X148437136Y-70023500D02*
X148102865Y-70023500D01*
X147891693Y-69812328D02*
X147651772Y-69812328D01*
X147651772Y-69812328D02*
X147329004Y-69489560D01*
X147329004Y-69489560D02*
X147329004Y-69488236D01*
X150149000Y-74606500D02*
X150149000Y-71547751D01*
X145060000Y-68400000D02*
X143520000Y-66860000D01*
D22*
%TO.N,+3V3*%
X157955000Y-77855000D02*
X157541499Y-77441499D01*
X157541499Y-77441499D02*
X157541499Y-75048501D01*
X157541499Y-75048501D02*
X157910000Y-74680000D01*
%TO.N,Net-(U1B-VDD_USB_CAP)*%
X154690245Y-76317958D02*
X154595000Y-76413203D01*
X153850000Y-77160000D02*
X153850000Y-81810000D01*
X151890000Y-82080000D02*
X151420000Y-82550000D01*
X154595000Y-76413203D02*
X154595000Y-76415000D01*
X151420000Y-82550000D02*
X151420000Y-87150000D01*
X153850000Y-81810000D02*
X153580000Y-82080000D01*
X153580000Y-82080000D02*
X151890000Y-82080000D01*
X154595000Y-76415000D02*
X153850000Y-77160000D01*
%TO.N,/D33*%
X150245080Y-58852000D02*
X144731620Y-58852000D01*
X155050500Y-67820500D02*
X155050500Y-63657420D01*
X136046730Y-56276730D02*
X134440000Y-54670000D01*
X143314810Y-57435190D02*
X141278270Y-57435190D01*
X144731620Y-58852000D02*
X143314810Y-57435190D01*
X155050500Y-63657420D02*
X150245080Y-58852000D01*
X138083270Y-56276730D02*
X136046730Y-56276730D01*
X141278270Y-57435190D02*
X140849080Y-57006000D01*
X140849080Y-57006000D02*
X138812540Y-57006000D01*
X155577500Y-68455322D02*
X155577500Y-68347500D01*
X155577500Y-68347500D02*
X155050500Y-67820500D01*
X138812540Y-57006000D02*
X138083270Y-56276730D01*
%TO.N,/D2*%
X145022540Y-58136000D02*
X143606540Y-56720000D01*
X145100000Y-58140000D02*
X145096000Y-58136000D01*
X143606540Y-56720000D02*
X141570000Y-56720000D01*
X156744500Y-64344500D02*
X150540000Y-58140000D01*
X150540000Y-58140000D02*
X145100000Y-58140000D01*
X156598000Y-69650000D02*
X156744500Y-69503500D01*
X141570000Y-56720000D02*
X139520000Y-54670000D01*
X145096000Y-58136000D02*
X145022540Y-58136000D01*
X156744500Y-69503500D02*
X156744500Y-64344500D01*
%TO.N,/D42*%
X148086500Y-68256500D02*
X148086500Y-62063500D01*
X128280810Y-57137730D02*
X121667730Y-57137730D01*
X144141780Y-60276000D02*
X142724970Y-58859190D01*
X148098270Y-62051730D02*
X146322540Y-60276000D01*
X146322540Y-60276000D02*
X144141780Y-60276000D01*
X121667730Y-57137730D02*
X119200000Y-54670000D01*
X148920000Y-69090000D02*
X148086500Y-68256500D01*
X140688430Y-58859190D02*
X140261240Y-58432000D01*
X148086500Y-62063500D02*
X148098270Y-62051730D01*
X129575080Y-58432000D02*
X128280810Y-57137730D01*
X140261240Y-58432000D02*
X129575080Y-58432000D01*
X142724970Y-58859190D02*
X140688430Y-58859190D01*
%TO.N,/D3*%
X157100500Y-63610500D02*
X151270000Y-57780000D01*
X157100500Y-71380500D02*
X157100500Y-63610500D01*
X145170000Y-57780000D02*
X142060000Y-54670000D01*
X157920000Y-72200000D02*
X157100500Y-71380500D01*
X157900000Y-73070000D02*
X157920000Y-73050000D01*
X157920000Y-73050000D02*
X157920000Y-72200000D01*
X151270000Y-57780000D02*
X145170000Y-57780000D01*
%TO.N,/D43*%
X143019890Y-58147190D02*
X141278270Y-58147190D01*
X149543500Y-67396500D02*
X149543500Y-61263500D01*
X129870000Y-57720000D02*
X126820000Y-54670000D01*
X144436700Y-59564000D02*
X144228160Y-59355460D01*
X149543500Y-61263500D02*
X147844000Y-59564000D01*
X140983350Y-58147190D02*
X140774810Y-57938650D01*
X149540000Y-67400000D02*
X149543500Y-67396500D01*
X141278270Y-58147190D02*
X140983350Y-58147190D01*
X140556160Y-57720000D02*
X129870000Y-57720000D01*
X144228160Y-59355460D02*
X143019890Y-58147190D01*
X144731620Y-59564000D02*
X144436700Y-59564000D01*
X140774810Y-57938650D02*
X140556160Y-57720000D01*
X147844000Y-59564000D02*
X144731620Y-59564000D01*
%TO.N,/D5*%
X138960000Y-56650000D02*
X136980000Y-54670000D01*
X144948540Y-58492000D02*
X144875080Y-58492000D01*
X156290000Y-70960000D02*
X156080000Y-70750000D01*
X141422540Y-57076000D02*
X140996540Y-56650000D01*
X140996540Y-56650000D02*
X138960000Y-56650000D01*
X156290000Y-72260000D02*
X156290000Y-70960000D01*
X143459080Y-57076000D02*
X141422540Y-57076000D01*
X155406500Y-67426500D02*
X155406500Y-63509960D01*
X144875080Y-58492000D02*
X143459080Y-57076000D01*
X155406500Y-63509960D02*
X150392540Y-58496000D01*
X156080000Y-68100000D02*
X155406500Y-67426500D01*
X156080000Y-70750000D02*
X156080000Y-68100000D01*
X144952540Y-58496000D02*
X144948540Y-58492000D01*
X150392540Y-58496000D02*
X144952540Y-58496000D01*
%TO.N,/D44*%
X140701620Y-57362000D02*
X138665080Y-57362000D01*
X154694500Y-68247960D02*
X154694500Y-63949943D01*
X149952557Y-59208000D02*
X144584160Y-59208000D01*
X133862730Y-56632730D02*
X131900000Y-54670000D01*
X154696500Y-68249960D02*
X154694500Y-68247960D01*
X141130810Y-57791190D02*
X140701620Y-57362000D01*
X138665080Y-57362000D02*
X137935810Y-56632730D01*
X144584160Y-59208000D02*
X143167350Y-57791190D01*
X137935810Y-56632730D02*
X133862730Y-56632730D01*
X154696500Y-72256500D02*
X154696500Y-68249960D01*
X143167350Y-57791190D02*
X141130810Y-57791190D01*
X154694500Y-63949943D02*
X149952557Y-59208000D01*
X154730000Y-72290000D02*
X154696500Y-72256500D01*
%TO.N,/D46*%
X142872430Y-58503190D02*
X140835890Y-58503190D01*
X146470000Y-59920000D02*
X144289240Y-59920000D01*
X144289240Y-59920000D02*
X142872430Y-58503190D01*
X140835890Y-58503190D02*
X140408700Y-58076000D01*
X140408700Y-58076000D02*
X129722540Y-58076000D01*
X128428270Y-56781730D02*
X126391730Y-56781730D01*
X148536500Y-61986500D02*
X146470000Y-59920000D01*
X148590000Y-67300000D02*
X148536500Y-67246500D01*
X148536500Y-67246500D02*
X148536500Y-61986500D01*
X129722540Y-58076000D02*
X128428270Y-56781730D01*
X126391730Y-56781730D02*
X124280000Y-54670000D01*
%TO.N,/D31*%
X169910000Y-68130000D02*
X173520000Y-64520000D01*
X160340000Y-72270000D02*
X164480000Y-68130000D01*
X164480000Y-68130000D02*
X169910000Y-68130000D01*
X173520000Y-64520000D02*
X173520000Y-54670000D01*
%TO.N,/D50*%
X162320000Y-67040000D02*
X162360000Y-67040000D01*
X163380000Y-66020000D02*
X163380000Y-57990000D01*
X163360000Y-57970000D02*
X163360000Y-54670000D01*
X163380000Y-57990000D02*
X163360000Y-57970000D01*
X159380000Y-69980000D02*
X162320000Y-67040000D01*
X162360000Y-67040000D02*
X163380000Y-66020000D01*
%TO.N,/D51*%
X157456500Y-70986500D02*
X157456500Y-56386500D01*
X157920000Y-71450000D02*
X157456500Y-70986500D01*
X157456500Y-56386500D02*
X155740000Y-54670000D01*
%TO.N,/D53*%
X165900000Y-65060000D02*
X165900000Y-54670000D01*
X159460000Y-71500000D02*
X165900000Y-65060000D01*
%TO.N,/D48*%
X168440000Y-60600000D02*
X168440000Y-54670000D01*
X166520000Y-65280000D02*
X159500000Y-72300000D01*
X166620000Y-62420000D02*
X168440000Y-60600000D01*
X166520000Y-63880000D02*
X166520000Y-65280000D01*
X166620000Y-63980000D02*
X166620000Y-62420000D01*
X166520000Y-63880000D02*
X166620000Y-63980000D01*
%TO.N,/D30*%
X160820000Y-67630000D02*
X160820000Y-54670000D01*
X158710000Y-69730000D02*
X159940000Y-68500000D01*
X159950000Y-68500000D02*
X160820000Y-67630000D01*
X158710000Y-73120000D02*
X158710000Y-69730000D01*
X159940000Y-68500000D02*
X159950000Y-68500000D01*
%TO.N,/D54*%
X157960000Y-70160000D02*
X157960000Y-68770000D01*
X158300000Y-54690000D02*
X158280000Y-54670000D01*
X158300000Y-68430000D02*
X158300000Y-54690000D01*
X157960000Y-68770000D02*
X158300000Y-68430000D01*
%TO.N,/D9*%
X174296500Y-85006500D02*
X176871500Y-85006500D01*
X171700000Y-82410000D02*
X174296500Y-85006500D01*
X169830000Y-82410000D02*
X171700000Y-82410000D01*
X167800000Y-79920000D02*
X168912057Y-79920000D01*
X168912057Y-79920000D02*
X169830000Y-80837943D01*
X176871500Y-85006500D02*
X178600000Y-86735000D01*
X169830000Y-80837943D02*
X169830000Y-82410000D01*
%TO.N,/D6*%
X158755000Y-77125000D02*
X159283978Y-76596022D01*
X176016500Y-79071500D02*
X178600000Y-81655000D01*
X171841443Y-79071500D02*
X176016500Y-79071500D01*
X159283978Y-76596022D02*
X160476022Y-76596022D01*
X171769443Y-79143500D02*
X171841443Y-79071500D01*
X160476022Y-76596022D02*
X163023500Y-79143500D01*
X163023500Y-79143500D02*
X171769443Y-79143500D01*
%TO.N,/D7*%
X167839064Y-83271652D02*
X167839064Y-81460936D01*
X173520000Y-101030000D02*
X173688500Y-100861500D01*
X168405500Y-84208088D02*
X168405500Y-83838088D01*
X173688500Y-89491088D02*
X168405500Y-84208088D01*
X168405500Y-83838088D02*
X167839064Y-83271652D01*
X173688500Y-100861500D02*
X173688500Y-89491088D01*
X167839064Y-81460936D02*
X168790000Y-80510000D01*
%TO.N,/D19_A5*%
X153698000Y-91432000D02*
X153170000Y-91960000D01*
X153698000Y-83352000D02*
X153698000Y-91432000D01*
X154740000Y-78687255D02*
X154740000Y-80489128D01*
X154740000Y-80489128D02*
X154574000Y-80655128D01*
X153170000Y-91960000D02*
X153170000Y-92390000D01*
X154574000Y-80655128D02*
X154574000Y-82476000D01*
X154574000Y-82476000D02*
X153698000Y-83352000D01*
X154732745Y-78680000D02*
X154740000Y-78687255D01*
%TO.N,/D37*%
X158939449Y-78775407D02*
X158952191Y-78775407D01*
X158983594Y-78744004D02*
X160216061Y-78744004D01*
X171174483Y-88940000D02*
X172976500Y-90742017D01*
X158952191Y-78775407D02*
X158983594Y-78744004D01*
X172976500Y-96493500D02*
X168440000Y-101030000D01*
X163037207Y-83235150D02*
X168742057Y-88940000D01*
X168742057Y-88940000D02*
X171174483Y-88940000D01*
X172976500Y-90742017D02*
X172976500Y-96493500D01*
X163037207Y-81565150D02*
X163037207Y-83235150D01*
X160216061Y-78744004D02*
X163037207Y-81565150D01*
X158933500Y-78781356D02*
X158939449Y-78775407D01*
D25*
%TO.N,/D34*%
X163210000Y-100880000D02*
X163360000Y-101030000D01*
D22*
%TO.N,/D35*%
X169670000Y-99170000D02*
X167760000Y-99170000D01*
X166150000Y-89620000D02*
X168070000Y-91540000D01*
X168070000Y-91540000D02*
X171440000Y-91540000D01*
X166150000Y-88810000D02*
X166150000Y-89620000D01*
X172080000Y-92180000D02*
X172080000Y-96760000D01*
X159510000Y-81090000D02*
X159510000Y-82170000D01*
X172080000Y-96760000D02*
X169670000Y-99170000D01*
X159510000Y-82170000D02*
X166150000Y-88810000D01*
X171440000Y-91540000D02*
X172080000Y-92180000D01*
X167760000Y-99170000D02*
X165900000Y-101030000D01*
%TO.N,/D36*%
X163647943Y-80910000D02*
X163743736Y-81005793D01*
X164639264Y-81895793D02*
X172656500Y-89913029D01*
X159970250Y-78330250D02*
X160437298Y-78330250D01*
X173332500Y-98677500D02*
X170980000Y-101030000D01*
X159540000Y-77900000D02*
X159970250Y-78330250D01*
X172656500Y-89913029D02*
X172656500Y-89918557D01*
X163743736Y-81005793D02*
X163749264Y-81005793D01*
X160437298Y-78330250D02*
X163017048Y-80910000D01*
X172656500Y-89918557D02*
X172951443Y-90213500D01*
X172951443Y-90213500D02*
X172956971Y-90213500D01*
X164633736Y-81895793D02*
X164639264Y-81895793D01*
X163017048Y-80910000D02*
X163647943Y-80910000D01*
X173332500Y-90589029D02*
X173332500Y-98677500D01*
X163749264Y-81005793D02*
X164044207Y-81300736D01*
X164044207Y-81306264D02*
X164633736Y-81895793D01*
X164044207Y-81300736D02*
X164044207Y-81306264D01*
X172956971Y-90213500D02*
X173332500Y-90589029D01*
%TO.N,/D8*%
X168900000Y-83890000D02*
X176060000Y-91050000D01*
X168900000Y-83890000D02*
X168900000Y-81543750D01*
X176060000Y-91050000D02*
X176060000Y-101030000D01*
%TO.N,/D1*%
X124310000Y-95990000D02*
X124310000Y-101030000D01*
X152140000Y-79280000D02*
X150260000Y-79280000D01*
X152340000Y-79480000D02*
X152140000Y-79280000D01*
X134250000Y-89100000D02*
X131200000Y-89100000D01*
X149130000Y-80410000D02*
X142940000Y-80410000D01*
X131200000Y-89100000D02*
X124310000Y-95990000D01*
X150260000Y-79280000D02*
X149130000Y-80410000D01*
X142940000Y-80410000D02*
X134250000Y-89100000D01*
%TO.N,/D25_A11*%
X152910000Y-87930000D02*
X147960000Y-92880000D01*
X147960000Y-92880000D02*
X145030000Y-92880000D01*
X139550000Y-98360000D02*
X139550000Y-101030000D01*
X152910000Y-82882500D02*
X152910000Y-87930000D01*
X145030000Y-92880000D02*
X139550000Y-98360000D01*
X153210000Y-82582500D02*
X152910000Y-82882500D01*
%TO.N,/D40_A16*%
X132682000Y-90168000D02*
X131930000Y-90920000D01*
X152378057Y-81724000D02*
X143136380Y-81724000D01*
X131930000Y-90920000D02*
X131930000Y-101030000D01*
X134692380Y-90168000D02*
X132682000Y-90168000D01*
X143136380Y-81724000D02*
X134692380Y-90168000D01*
X153115000Y-80295000D02*
X153115000Y-80987057D01*
X153115000Y-80987057D02*
X152378057Y-81724000D01*
%TO.N,/D14_A0*%
X153122672Y-79487328D02*
X153122672Y-79554541D01*
X143382380Y-80766000D02*
X143087460Y-80766000D01*
X142878920Y-80974540D02*
X134397460Y-89456000D01*
X150271960Y-79771500D02*
X149277460Y-80766000D01*
X149277460Y-80766000D02*
X146364000Y-80766000D01*
X131138920Y-89664540D02*
X129242540Y-91560920D01*
X134397460Y-89456000D02*
X131642380Y-89456000D01*
X152131443Y-79983500D02*
X151919443Y-79771500D01*
X131642380Y-89456000D02*
X131347460Y-89456000D01*
X129034000Y-91769460D02*
X126850000Y-93953460D01*
X146364000Y-80766000D02*
X143382380Y-80766000D01*
X153122672Y-79554541D02*
X152693713Y-79983500D01*
X129242540Y-91560920D02*
X129034000Y-91769460D01*
X131347460Y-89456000D02*
X131138920Y-89664540D01*
X152693713Y-79983500D02*
X152131443Y-79983500D01*
X126850000Y-93953460D02*
X126850000Y-101030000D01*
X143087460Y-80766000D02*
X142878920Y-80974540D01*
X151919443Y-79771500D02*
X150271960Y-79771500D01*
%TO.N,/D15_A1*%
X152305000Y-81085000D02*
X152268000Y-81122000D01*
X131494920Y-89812000D02*
X129390000Y-91916920D01*
X134544920Y-89812000D02*
X131494920Y-89812000D01*
X129390000Y-91916920D02*
X129390000Y-101030000D01*
X143234920Y-81122000D02*
X134544920Y-89812000D01*
X152268000Y-81122000D02*
X143234920Y-81122000D01*
%TO.N,/D16_A2*%
X154330000Y-78290000D02*
X154330000Y-78300837D01*
X154206000Y-78841951D02*
X154206000Y-82340540D01*
X154206000Y-82340540D02*
X153280000Y-83266540D01*
X154685000Y-77925000D02*
X154685000Y-77935000D01*
X154213235Y-78834716D02*
X154206000Y-78841951D01*
X152350000Y-92240000D02*
X152350000Y-92940000D01*
X153280000Y-83266540D02*
X153280000Y-91310000D01*
X154213235Y-78417602D02*
X154213235Y-78834716D01*
X153280000Y-91310000D02*
X152350000Y-92240000D01*
X154330000Y-78300837D02*
X154213235Y-78417602D01*
X154685000Y-77935000D02*
X154330000Y-78290000D01*
%TO.N,/D38_A14*%
X155280000Y-78990000D02*
X155280000Y-80452588D01*
X150545000Y-94330000D02*
X148675000Y-96200000D01*
X154930000Y-80802588D02*
X154930000Y-83740000D01*
X154930000Y-83740000D02*
X154410000Y-84260000D01*
X154410000Y-84260000D02*
X154410000Y-92560000D01*
X155280000Y-80452588D02*
X154930000Y-80802588D01*
X154410000Y-92560000D02*
X152640000Y-94330000D01*
X155540000Y-78730000D02*
X155280000Y-78990000D01*
X152640000Y-94330000D02*
X150545000Y-94330000D01*
%TO.N,/D24_A10*%
X152506540Y-93960000D02*
X147970000Y-93960000D01*
X154054000Y-92412540D02*
X152506540Y-93960000D01*
X147970000Y-93960000D02*
X146135000Y-95795000D01*
X146135000Y-95795000D02*
X146135000Y-96200000D01*
X154207500Y-83670000D02*
X154207500Y-83959040D01*
X154207500Y-83959040D02*
X154054000Y-84112540D01*
X154054000Y-84112540D02*
X154054000Y-92412540D01*
D23*
%TO.N,/SOC_CAP_NET*%
X155199000Y-69705000D02*
X155199000Y-69749000D01*
X155676500Y-70226500D02*
X155676500Y-73729280D01*
X155676500Y-73729280D02*
X155494058Y-73911722D01*
X155199000Y-69749000D02*
X155676500Y-70226500D01*
%TO.N,Net-(L1-Pad1)*%
X152676814Y-70326814D02*
X151580000Y-69230000D01*
X151580000Y-69230000D02*
X151580000Y-66370000D01*
X152676814Y-70535194D02*
X152676814Y-70326814D01*
D22*
%TO.N,/PMIC_ON_REQ_PWR_SEQ*%
X147880004Y-69261328D02*
X147878676Y-69260000D01*
X147878676Y-69260000D02*
X147800000Y-69260000D01*
%TO.N,Net-(U3-PTB3{slash}IRQ_10)*%
X159078500Y-89771500D02*
X158450000Y-90400000D01*
X158960000Y-84330000D02*
X159078500Y-84448500D01*
X159078500Y-84448500D02*
X159078500Y-89771500D01*
%TO.N,Net-(U1A-GPIO_B0_13)*%
X158080000Y-79417943D02*
X157583052Y-79914891D01*
X158736678Y-77906678D02*
X158671379Y-77906678D01*
X157555109Y-79914891D02*
X157474202Y-79995798D01*
X158080000Y-79204557D02*
X158080000Y-79417943D01*
X157474202Y-79995798D02*
X157474202Y-80500489D01*
X158671379Y-77906678D02*
X158431000Y-78147057D01*
X158130000Y-81813460D02*
X158130000Y-84600000D01*
X157474202Y-80500489D02*
X157589256Y-80615543D01*
X157589256Y-80615543D02*
X157589256Y-81272716D01*
X158431000Y-78147057D02*
X158431000Y-78853557D01*
X157589256Y-81272716D02*
X158130000Y-81813460D01*
X158431000Y-78853557D02*
X158080000Y-79204557D01*
X157583052Y-79914891D02*
X157555109Y-79914891D01*
X158130000Y-84600000D02*
X158550000Y-85020000D01*
%TO.N,Net-(U1A-GPIO_EMC_01)*%
X155884232Y-80581644D02*
X155970000Y-80667412D01*
X155890000Y-77707943D02*
X155933500Y-77751443D01*
X155933500Y-78168557D02*
X155890000Y-78212057D01*
X155890000Y-76050000D02*
X155890000Y-77707943D01*
X157050000Y-73070000D02*
X157060000Y-73080000D01*
X157120000Y-73130000D02*
X157120000Y-73070000D01*
X155970000Y-80667412D02*
X155970000Y-80819588D01*
X156230000Y-75710000D02*
X155890000Y-76050000D01*
X155970000Y-80819588D02*
X155968828Y-80820760D01*
X156043500Y-78938557D02*
X155700000Y-79282057D01*
X155890000Y-78212057D02*
X155890000Y-78367943D01*
X157060000Y-73080000D02*
X157060000Y-75220000D01*
X155968828Y-80820760D02*
X155968828Y-86738828D01*
X155700000Y-80400000D02*
X155881644Y-80581644D01*
X156043500Y-78521443D02*
X156043500Y-78938557D01*
X156550000Y-87320000D02*
X156550000Y-87520000D01*
X155933500Y-77751443D02*
X155933500Y-78168557D01*
X155881644Y-80581644D02*
X155884232Y-80581644D01*
X157060000Y-75220000D02*
X156570000Y-75710000D01*
X156570000Y-75710000D02*
X156230000Y-75710000D01*
X155700000Y-79282057D02*
X155700000Y-80400000D01*
X155890000Y-78367943D02*
X156043500Y-78521443D01*
X157120000Y-73070000D02*
X157050000Y-73070000D01*
X155968828Y-86738828D02*
X156550000Y-87320000D01*
%TO.N,Net-(U3-PTB2{slash}IRQ_7)*%
X161230000Y-92067500D02*
X160520000Y-91357500D01*
X160520000Y-86390000D02*
X159640000Y-85510000D01*
X160520000Y-91357500D02*
X160520000Y-86390000D01*
D25*
%TO.N,Net-(U1B-GPIO_B0_15)*%
X162300000Y-84100000D02*
X165130000Y-86930000D01*
X162300000Y-81479000D02*
X162300000Y-84100000D01*
X158730000Y-79480000D02*
X159757750Y-80507750D01*
X165130000Y-86930000D02*
X166020000Y-86930000D01*
X159757750Y-80507750D02*
X161328750Y-80507750D01*
X161328750Y-80507750D02*
X162300000Y-81479000D01*
D22*
%TO.N,/JTAG_TDI*%
X167110000Y-94280000D02*
X167110000Y-93920000D01*
X167110000Y-93920000D02*
X163500000Y-90310000D01*
X163500000Y-87482588D02*
X162667412Y-86650000D01*
X162667412Y-86650000D02*
X162440000Y-86650000D01*
X163500000Y-90310000D02*
X163500000Y-87482588D01*
%TO.N,/JTAG_TDO*%
X165840000Y-93250000D02*
X162835000Y-90245000D01*
X162835000Y-90245000D02*
X162835000Y-87565000D01*
X165840000Y-94280000D02*
X165840000Y-93250000D01*
%TO.N,/JTAG_MOD*%
X162179128Y-95380000D02*
X167280000Y-95380000D01*
X156660000Y-85410000D02*
X157540000Y-86290000D01*
X157540000Y-90740872D02*
X162179128Y-95380000D01*
X156350000Y-85100000D02*
X156660000Y-85410000D01*
X167280000Y-95380000D02*
X168380000Y-94280000D01*
X157540000Y-86290000D02*
X157540000Y-90740872D01*
X156350000Y-80300000D02*
X156350000Y-85100000D01*
%TO.N,/JTAG_TCK*%
X161730000Y-89810000D02*
X164570000Y-92650000D01*
X157977702Y-80291932D02*
X157946509Y-80291932D01*
X157945256Y-81125256D02*
X161610000Y-84790000D01*
X161610000Y-85960000D02*
X161730000Y-86080000D01*
X157946509Y-80291932D02*
X157945256Y-80293185D01*
X164570000Y-92650000D02*
X164570000Y-94280000D01*
X161730000Y-86080000D02*
X161730000Y-89810000D01*
X161610000Y-85340000D02*
X161610000Y-85960000D01*
X157945256Y-80293185D02*
X157945256Y-81125256D01*
X161610000Y-84790000D02*
X161610000Y-85340000D01*
%TO.N,/DCDC_PSWITCH*%
X153540000Y-66437128D02*
X154338500Y-67235628D01*
X157120000Y-78710000D02*
X156980000Y-78710000D01*
X157930000Y-85120000D02*
X157930000Y-90172588D01*
X157930000Y-90172588D02*
X157921500Y-90181088D01*
X153370826Y-72607931D02*
X153900000Y-73137105D01*
X153540000Y-65010000D02*
X153540000Y-66437128D01*
X157921500Y-90618912D02*
X158842588Y-91540000D01*
X156893400Y-84083400D02*
X157930000Y-85120000D01*
X156770000Y-78920000D02*
X156770000Y-79900000D01*
X158842588Y-91540000D02*
X159770000Y-91540000D01*
X153370826Y-72100844D02*
X153370826Y-72607931D01*
X156770000Y-79900000D02*
X156893400Y-80023400D01*
X153900000Y-73137105D02*
X153900000Y-73860000D01*
X156893400Y-80023400D02*
X156893400Y-84083400D01*
X157921500Y-90181088D02*
X157921500Y-90618912D01*
X154338500Y-67235628D02*
X154338500Y-71133170D01*
X156980000Y-78710000D02*
X156770000Y-78920000D01*
X154338500Y-71133170D02*
X153370826Y-72100844D01*
%TD*%
%TA.AperFunction,Conductor*%
%TO.N,+5VL*%
G36*
X105413922Y-72519257D02*
G01*
X105480871Y-72539238D01*
X105482261Y-72540154D01*
X105516344Y-72562927D01*
X105516347Y-72562929D01*
X105648380Y-72617619D01*
X105648384Y-72617619D01*
X105648385Y-72617620D01*
X105788542Y-72645500D01*
X105788545Y-72645500D01*
X105931457Y-72645500D01*
X106025751Y-72626742D01*
X106071620Y-72617619D01*
X106203653Y-72562929D01*
X106231865Y-72544077D01*
X106298538Y-72523199D01*
X106301162Y-72523180D01*
X117175618Y-72571263D01*
X117242569Y-72591244D01*
X117288090Y-72644250D01*
X117299069Y-72694991D01*
X117318525Y-81595939D01*
X117298987Y-81663021D01*
X117246283Y-81708892D01*
X117194433Y-81720210D01*
X103542704Y-81710090D01*
X103475679Y-81690356D01*
X103429963Y-81637518D01*
X103418803Y-81587306D01*
X103407518Y-80429974D01*
X103426547Y-80362752D01*
X103443822Y-80341098D01*
X103507139Y-80277782D01*
X103616632Y-80113914D01*
X103692051Y-79931835D01*
X103715996Y-79811457D01*
X104204499Y-79811457D01*
X104232379Y-79951614D01*
X104232381Y-79951620D01*
X104287069Y-80083650D01*
X104287074Y-80083659D01*
X104366467Y-80202478D01*
X104366470Y-80202482D01*
X104467517Y-80303529D01*
X104467521Y-80303532D01*
X104586340Y-80382925D01*
X104586346Y-80382928D01*
X104586347Y-80382929D01*
X104718380Y-80437619D01*
X104718384Y-80437619D01*
X104718385Y-80437620D01*
X104858542Y-80465500D01*
X104858545Y-80465500D01*
X105001457Y-80465500D01*
X105095751Y-80446742D01*
X105141620Y-80437619D01*
X105273653Y-80382929D01*
X105392479Y-80303532D01*
X105493532Y-80202479D01*
X105572929Y-80083653D01*
X105627619Y-79951620D01*
X105655500Y-79811455D01*
X105655500Y-79668545D01*
X105655500Y-79668542D01*
X105627620Y-79528385D01*
X105627619Y-79528384D01*
X105627619Y-79528380D01*
X105572929Y-79396347D01*
X105572928Y-79396346D01*
X105572925Y-79396340D01*
X105493532Y-79277521D01*
X105493529Y-79277517D01*
X105392482Y-79176470D01*
X105392478Y-79176467D01*
X105273659Y-79097074D01*
X105273650Y-79097069D01*
X105141620Y-79042381D01*
X105141614Y-79042379D01*
X105001457Y-79014500D01*
X105001455Y-79014500D01*
X104858545Y-79014500D01*
X104858543Y-79014500D01*
X104718385Y-79042379D01*
X104718379Y-79042381D01*
X104586349Y-79097069D01*
X104586340Y-79097074D01*
X104467521Y-79176467D01*
X104467517Y-79176470D01*
X104366470Y-79277517D01*
X104366467Y-79277521D01*
X104287074Y-79396340D01*
X104287069Y-79396349D01*
X104232381Y-79528379D01*
X104232379Y-79528385D01*
X104204500Y-79668542D01*
X104204500Y-79668545D01*
X104204500Y-79811455D01*
X104204500Y-79811457D01*
X104204499Y-79811457D01*
X103715996Y-79811457D01*
X103730500Y-79738543D01*
X103730500Y-79541456D01*
X103692052Y-79348170D01*
X103692051Y-79348169D01*
X103692051Y-79348165D01*
X103662788Y-79277517D01*
X103616635Y-79166092D01*
X103616628Y-79166079D01*
X103507139Y-79002218D01*
X103507136Y-79002214D01*
X103428297Y-78923375D01*
X103394812Y-78862052D01*
X103391984Y-78836909D01*
X103356730Y-75221457D01*
X108424499Y-75221457D01*
X108452379Y-75361613D01*
X108452381Y-75361621D01*
X108481760Y-75432548D01*
X108489229Y-75502017D01*
X108481760Y-75527452D01*
X108452381Y-75598378D01*
X108452379Y-75598386D01*
X108424500Y-75738542D01*
X108424500Y-75738545D01*
X108424500Y-75881455D01*
X108424500Y-75881457D01*
X108424499Y-75881457D01*
X108452379Y-76021614D01*
X108452381Y-76021620D01*
X108507069Y-76153650D01*
X108507074Y-76153659D01*
X108586467Y-76272478D01*
X108586470Y-76272482D01*
X108687517Y-76373529D01*
X108687521Y-76373532D01*
X108806340Y-76452925D01*
X108806349Y-76452930D01*
X108836258Y-76465318D01*
X108938380Y-76507619D01*
X108938384Y-76507619D01*
X108938385Y-76507620D01*
X109078542Y-76535500D01*
X109078545Y-76535500D01*
X109221457Y-76535500D01*
X109315751Y-76516742D01*
X109361620Y-76507619D01*
X109493653Y-76452929D01*
X109612479Y-76373532D01*
X109693554Y-76292457D01*
X113004499Y-76292457D01*
X113032379Y-76432614D01*
X113032380Y-76432616D01*
X113032381Y-76432620D01*
X113070044Y-76523547D01*
X113070045Y-76523548D01*
X113077514Y-76593017D01*
X113070045Y-76618454D01*
X113032381Y-76709382D01*
X113032379Y-76709388D01*
X113004500Y-76849545D01*
X113004500Y-76849548D01*
X113004500Y-76992458D01*
X113004500Y-76992460D01*
X113004499Y-76992460D01*
X113032379Y-77132617D01*
X113032381Y-77132623D01*
X113087069Y-77264653D01*
X113087074Y-77264662D01*
X113166467Y-77383481D01*
X113166470Y-77383485D01*
X113267517Y-77484532D01*
X113267521Y-77484535D01*
X113386340Y-77563928D01*
X113386346Y-77563931D01*
X113386347Y-77563932D01*
X113518380Y-77618622D01*
X113518384Y-77618622D01*
X113518385Y-77618623D01*
X113658542Y-77646503D01*
X113658545Y-77646503D01*
X113801457Y-77646503D01*
X113895751Y-77627745D01*
X113941620Y-77618622D01*
X114073653Y-77563932D01*
X114192479Y-77484535D01*
X114293532Y-77383482D01*
X114372929Y-77264656D01*
X114378396Y-77251457D01*
X115364499Y-77251457D01*
X115392379Y-77391614D01*
X115392381Y-77391620D01*
X115447069Y-77523650D01*
X115447074Y-77523659D01*
X115526467Y-77642478D01*
X115526470Y-77642482D01*
X115627517Y-77743529D01*
X115627521Y-77743532D01*
X115746340Y-77822925D01*
X115746346Y-77822928D01*
X115746347Y-77822929D01*
X115878380Y-77877619D01*
X115878384Y-77877619D01*
X115878385Y-77877620D01*
X116018542Y-77905500D01*
X116018545Y-77905500D01*
X116161457Y-77905500D01*
X116255751Y-77886742D01*
X116301620Y-77877619D01*
X116433653Y-77822929D01*
X116552479Y-77743532D01*
X116653532Y-77642479D01*
X116732929Y-77523653D01*
X116787619Y-77391620D01*
X116815500Y-77251455D01*
X116815500Y-77108545D01*
X116815500Y-77108542D01*
X116787620Y-76968385D01*
X116787619Y-76968384D01*
X116787619Y-76968380D01*
X116732929Y-76836347D01*
X116732928Y-76836346D01*
X116732925Y-76836340D01*
X116653532Y-76717521D01*
X116653529Y-76717517D01*
X116552482Y-76616470D01*
X116552478Y-76616467D01*
X116433659Y-76537074D01*
X116433650Y-76537069D01*
X116301620Y-76482381D01*
X116301614Y-76482379D01*
X116161457Y-76454500D01*
X116161455Y-76454500D01*
X116018545Y-76454500D01*
X116018543Y-76454500D01*
X115878385Y-76482379D01*
X115878379Y-76482381D01*
X115746349Y-76537069D01*
X115746340Y-76537074D01*
X115627521Y-76616467D01*
X115627517Y-76616470D01*
X115526470Y-76717517D01*
X115526467Y-76717521D01*
X115447074Y-76836340D01*
X115447069Y-76836349D01*
X115392381Y-76968379D01*
X115392379Y-76968385D01*
X115364500Y-77108542D01*
X115364500Y-77108545D01*
X115364500Y-77251455D01*
X115364500Y-77251457D01*
X115364499Y-77251457D01*
X114378396Y-77251457D01*
X114427619Y-77132623D01*
X114430426Y-77118511D01*
X114438433Y-77078261D01*
X114438433Y-77078260D01*
X114455499Y-76992462D01*
X114455500Y-76992460D01*
X114455500Y-76849545D01*
X114427620Y-76709388D01*
X114427619Y-76709387D01*
X114427619Y-76709383D01*
X114389953Y-76618450D01*
X114382485Y-76548985D01*
X114389949Y-76523561D01*
X114427619Y-76432620D01*
X114455500Y-76292455D01*
X114455500Y-76149545D01*
X114455500Y-76149542D01*
X114427620Y-76009385D01*
X114427619Y-76009384D01*
X114427619Y-76009380D01*
X114385318Y-75907258D01*
X114372930Y-75877349D01*
X114372925Y-75877340D01*
X114293532Y-75758521D01*
X114293529Y-75758517D01*
X114192482Y-75657470D01*
X114192478Y-75657467D01*
X114073659Y-75578074D01*
X114073650Y-75578069D01*
X113941620Y-75523381D01*
X113941614Y-75523379D01*
X113801457Y-75495500D01*
X113801455Y-75495500D01*
X113658545Y-75495500D01*
X113658543Y-75495500D01*
X113518385Y-75523379D01*
X113518379Y-75523381D01*
X113386349Y-75578069D01*
X113386340Y-75578074D01*
X113267521Y-75657467D01*
X113267517Y-75657470D01*
X113166470Y-75758517D01*
X113166467Y-75758521D01*
X113087074Y-75877340D01*
X113087069Y-75877349D01*
X113032381Y-76009379D01*
X113032379Y-76009385D01*
X113004500Y-76149542D01*
X113004500Y-76149545D01*
X113004500Y-76292455D01*
X113004500Y-76292457D01*
X113004499Y-76292457D01*
X109693554Y-76292457D01*
X109713532Y-76272479D01*
X109792929Y-76153653D01*
X109847619Y-76021620D01*
X109875500Y-75881455D01*
X109875500Y-75738545D01*
X109875500Y-75738542D01*
X109847620Y-75598385D01*
X109847619Y-75598384D01*
X109847619Y-75598380D01*
X109818238Y-75527449D01*
X109810770Y-75457985D01*
X109818235Y-75432556D01*
X109847619Y-75361620D01*
X109875500Y-75221455D01*
X109875500Y-75078545D01*
X109875500Y-75078542D01*
X109847620Y-74938385D01*
X109847619Y-74938384D01*
X109847619Y-74938380D01*
X109792929Y-74806347D01*
X109792928Y-74806346D01*
X109792925Y-74806340D01*
X109713532Y-74687521D01*
X109713529Y-74687517D01*
X109612482Y-74586470D01*
X109612478Y-74586467D01*
X109493659Y-74507074D01*
X109493650Y-74507069D01*
X109361620Y-74452381D01*
X109361614Y-74452379D01*
X109221457Y-74424500D01*
X109221455Y-74424500D01*
X109078545Y-74424500D01*
X109078543Y-74424500D01*
X108938385Y-74452379D01*
X108938379Y-74452381D01*
X108806349Y-74507069D01*
X108806340Y-74507074D01*
X108687521Y-74586467D01*
X108687517Y-74586470D01*
X108586470Y-74687517D01*
X108586467Y-74687521D01*
X108507074Y-74806340D01*
X108507069Y-74806349D01*
X108452381Y-74938379D01*
X108452379Y-74938385D01*
X108424500Y-75078542D01*
X108424500Y-75078545D01*
X108424500Y-75221455D01*
X108424500Y-75221457D01*
X108424499Y-75221457D01*
X103356730Y-75221457D01*
X103331518Y-72635807D01*
X103350548Y-72568581D01*
X103402903Y-72522313D01*
X103456059Y-72510601D01*
X105413922Y-72519257D01*
G37*
%TD.AperFunction*%
%TD*%
%TA.AperFunction,Conductor*%
%TO.N,+5V*%
G36*
X144372416Y-61868594D02*
G01*
X144418295Y-61921289D01*
X144429623Y-61972884D01*
X144439255Y-68483948D01*
X144419669Y-68551016D01*
X144366933Y-68596849D01*
X144315841Y-68608130D01*
X135574035Y-68649414D01*
X135506903Y-68630046D01*
X135460899Y-68577459D01*
X135449450Y-68525964D01*
X135443858Y-67264064D01*
X135463246Y-67196938D01*
X135480172Y-67175838D01*
X135513532Y-67142479D01*
X135592929Y-67023653D01*
X135647619Y-66891620D01*
X135675500Y-66751455D01*
X135675500Y-66608545D01*
X135675500Y-66608542D01*
X135647620Y-66468385D01*
X135647619Y-66468384D01*
X135647619Y-66468380D01*
X135592929Y-66336347D01*
X135592928Y-66336346D01*
X135592925Y-66336340D01*
X135513532Y-66217521D01*
X135513529Y-66217517D01*
X135474982Y-66178971D01*
X135441496Y-66117649D01*
X135438664Y-66091847D01*
X135432104Y-64611457D01*
X137944499Y-64611457D01*
X137972379Y-64751614D01*
X137972381Y-64751620D01*
X138027069Y-64883650D01*
X138027074Y-64883659D01*
X138106467Y-65002478D01*
X138106470Y-65002482D01*
X138207517Y-65103529D01*
X138207521Y-65103532D01*
X138326340Y-65182925D01*
X138326346Y-65182928D01*
X138326347Y-65182929D01*
X138458380Y-65237619D01*
X138458384Y-65237619D01*
X138458385Y-65237620D01*
X138598542Y-65265500D01*
X138598545Y-65265500D01*
X138741457Y-65265500D01*
X138835751Y-65246742D01*
X138881620Y-65237619D01*
X139013653Y-65182929D01*
X139132479Y-65103532D01*
X139233532Y-65002479D01*
X139312929Y-64883653D01*
X139367619Y-64751620D01*
X139395500Y-64611455D01*
X139395500Y-64468545D01*
X139395500Y-64468542D01*
X139367620Y-64328385D01*
X139367619Y-64328384D01*
X139367619Y-64328380D01*
X139312929Y-64196347D01*
X139312928Y-64196346D01*
X139312925Y-64196340D01*
X139233532Y-64077521D01*
X139233529Y-64077517D01*
X139132482Y-63976470D01*
X139132478Y-63976467D01*
X139013659Y-63897074D01*
X139013650Y-63897069D01*
X138881620Y-63842381D01*
X138881614Y-63842379D01*
X138741457Y-63814500D01*
X138741455Y-63814500D01*
X138598545Y-63814500D01*
X138598543Y-63814500D01*
X138458385Y-63842379D01*
X138458379Y-63842381D01*
X138326349Y-63897069D01*
X138326340Y-63897074D01*
X138207521Y-63976467D01*
X138207517Y-63976470D01*
X138106470Y-64077517D01*
X138106467Y-64077521D01*
X138027074Y-64196340D01*
X138027069Y-64196349D01*
X137972381Y-64328379D01*
X137972379Y-64328385D01*
X137944500Y-64468542D01*
X137944500Y-64468545D01*
X137944500Y-64611455D01*
X137944500Y-64611457D01*
X137944499Y-64611457D01*
X135432104Y-64611457D01*
X135420506Y-61994300D01*
X135439894Y-61927176D01*
X135492494Y-61881188D01*
X135544207Y-61869753D01*
X144305330Y-61849067D01*
X144372416Y-61868594D01*
G37*
%TD.AperFunction*%
%TD*%
%TA.AperFunction,Conductor*%
%TO.N,+5VD*%
G36*
X104788094Y-53862383D02*
G01*
X104855089Y-53882211D01*
X104900731Y-53935112D01*
X104910527Y-54004292D01*
X104881367Y-54067785D01*
X104835280Y-54100944D01*
X104796350Y-54117069D01*
X104796340Y-54117074D01*
X104677521Y-54196467D01*
X104677517Y-54196470D01*
X104576470Y-54297517D01*
X104576467Y-54297521D01*
X104497074Y-54416340D01*
X104497069Y-54416349D01*
X104442381Y-54548379D01*
X104442379Y-54548385D01*
X104414500Y-54688542D01*
X104414500Y-54688545D01*
X104414500Y-54831455D01*
X104414500Y-54831457D01*
X104414499Y-54831457D01*
X104442379Y-54971614D01*
X104442381Y-54971620D01*
X104497069Y-55103650D01*
X104497074Y-55103659D01*
X104576467Y-55222478D01*
X104576470Y-55222482D01*
X104677517Y-55323529D01*
X104677521Y-55323532D01*
X104796340Y-55402925D01*
X104796346Y-55402928D01*
X104796347Y-55402929D01*
X104928380Y-55457619D01*
X104928384Y-55457619D01*
X104928385Y-55457620D01*
X105068542Y-55485500D01*
X105068545Y-55485500D01*
X105211457Y-55485500D01*
X105305751Y-55466742D01*
X105351620Y-55457619D01*
X105483653Y-55402929D01*
X105602479Y-55323532D01*
X105703532Y-55222479D01*
X105782929Y-55103653D01*
X105837619Y-54971620D01*
X105849380Y-54912494D01*
X105865500Y-54831457D01*
X105865500Y-54688542D01*
X105837620Y-54548385D01*
X105837619Y-54548384D01*
X105837619Y-54548380D01*
X105782929Y-54416347D01*
X105782928Y-54416346D01*
X105782925Y-54416340D01*
X105703532Y-54297521D01*
X105703529Y-54297517D01*
X105602482Y-54196470D01*
X105602478Y-54196467D01*
X105483659Y-54117074D01*
X105483649Y-54117069D01*
X105448363Y-54102453D01*
X105393960Y-54058612D01*
X105371895Y-53992317D01*
X105389175Y-53924618D01*
X105440312Y-53877008D01*
X105496073Y-53863893D01*
X109064394Y-53871501D01*
X109131389Y-53891329D01*
X109151808Y-53907820D01*
X109217517Y-53973529D01*
X109217521Y-53973532D01*
X109336340Y-54052925D01*
X109336346Y-54052928D01*
X109336347Y-54052929D01*
X109468380Y-54107619D01*
X109468384Y-54107619D01*
X109468385Y-54107620D01*
X109608542Y-54135500D01*
X109608545Y-54135500D01*
X109751457Y-54135500D01*
X109845751Y-54116742D01*
X109891620Y-54107619D01*
X110023653Y-54052929D01*
X110142479Y-53973532D01*
X110205573Y-53910437D01*
X110266892Y-53876955D01*
X110293499Y-53874122D01*
X117617535Y-53889738D01*
X117684531Y-53909566D01*
X117730173Y-53962467D01*
X117741262Y-54012460D01*
X117918708Y-71224722D01*
X117899716Y-71291961D01*
X117847386Y-71338257D01*
X117794715Y-71350000D01*
X106350414Y-71350000D01*
X106283375Y-71330315D01*
X106281523Y-71329102D01*
X106203658Y-71277074D01*
X106203650Y-71277069D01*
X106071620Y-71222381D01*
X106071614Y-71222379D01*
X105931457Y-71194500D01*
X105931455Y-71194500D01*
X105788545Y-71194500D01*
X105788543Y-71194500D01*
X105648385Y-71222379D01*
X105648379Y-71222381D01*
X105516349Y-71277069D01*
X105516341Y-71277074D01*
X105438477Y-71329102D01*
X105371800Y-71349980D01*
X105369586Y-71350000D01*
X103831576Y-71350000D01*
X103764537Y-71330315D01*
X103718782Y-71277511D01*
X103708838Y-71208353D01*
X103709959Y-71201808D01*
X103730500Y-71098543D01*
X103730500Y-70901456D01*
X103692052Y-70708170D01*
X103692051Y-70708169D01*
X103692051Y-70708165D01*
X103692049Y-70708160D01*
X103616635Y-70526092D01*
X103616628Y-70526079D01*
X103507139Y-70362218D01*
X103507136Y-70362214D01*
X103367785Y-70222863D01*
X103367780Y-70222859D01*
X103344966Y-70207616D01*
X103332923Y-70199569D01*
X103288118Y-70145959D01*
X103277833Y-70098670D01*
X103160659Y-63484018D01*
X103179154Y-63416644D01*
X103215746Y-63378726D01*
X103367782Y-63277139D01*
X103507139Y-63137782D01*
X103616632Y-62973914D01*
X103692051Y-62791835D01*
X103723950Y-62631470D01*
X103730500Y-62598543D01*
X103730500Y-62481457D01*
X104484499Y-62481457D01*
X104512379Y-62621614D01*
X104512381Y-62621620D01*
X104567069Y-62753650D01*
X104567075Y-62753661D01*
X104595415Y-62796073D01*
X104616294Y-62862750D01*
X104597810Y-62930131D01*
X104595418Y-62933853D01*
X104587075Y-62946339D01*
X104587069Y-62946349D01*
X104532381Y-63078379D01*
X104532379Y-63078385D01*
X104504500Y-63218542D01*
X104504500Y-63218545D01*
X104504500Y-63361455D01*
X104504500Y-63361457D01*
X104504499Y-63361457D01*
X104532379Y-63501614D01*
X104532381Y-63501620D01*
X104587069Y-63633650D01*
X104587074Y-63633659D01*
X104666467Y-63752478D01*
X104666470Y-63752482D01*
X104767517Y-63853529D01*
X104767521Y-63853532D01*
X104886340Y-63932925D01*
X104886346Y-63932928D01*
X104886347Y-63932929D01*
X105018380Y-63987619D01*
X105018384Y-63987619D01*
X105018385Y-63987620D01*
X105158542Y-64015500D01*
X105158545Y-64015500D01*
X105301457Y-64015500D01*
X105395751Y-63996742D01*
X105441620Y-63987619D01*
X105573653Y-63932929D01*
X105692479Y-63853532D01*
X105793532Y-63752479D01*
X105872929Y-63633653D01*
X105927619Y-63501620D01*
X105950492Y-63386632D01*
X105955500Y-63361457D01*
X105955500Y-63266457D01*
X112069499Y-63266457D01*
X112097379Y-63406614D01*
X112097381Y-63406620D01*
X112152069Y-63538650D01*
X112152074Y-63538659D01*
X112231467Y-63657478D01*
X112231470Y-63657482D01*
X112332517Y-63758529D01*
X112332521Y-63758532D01*
X112451340Y-63837925D01*
X112451346Y-63837928D01*
X112451347Y-63837929D01*
X112583380Y-63892619D01*
X112583384Y-63892619D01*
X112583385Y-63892620D01*
X112723542Y-63920500D01*
X112723545Y-63920500D01*
X112866457Y-63920500D01*
X112960751Y-63901742D01*
X113006620Y-63892619D01*
X113138653Y-63837929D01*
X113257479Y-63758532D01*
X113358532Y-63657479D01*
X113437929Y-63538653D01*
X113492619Y-63406620D01*
X113518375Y-63277139D01*
X113520500Y-63266457D01*
X113520500Y-63123542D01*
X113492620Y-62983385D01*
X113492619Y-62983384D01*
X113492619Y-62983380D01*
X113437929Y-62851347D01*
X113437928Y-62851346D01*
X113437925Y-62851340D01*
X113358532Y-62732521D01*
X113358529Y-62732517D01*
X113257482Y-62631470D01*
X113257478Y-62631467D01*
X113138659Y-62552074D01*
X113138650Y-62552069D01*
X113006620Y-62497381D01*
X113006614Y-62497379D01*
X112866457Y-62469500D01*
X112866455Y-62469500D01*
X112723545Y-62469500D01*
X112723543Y-62469500D01*
X112583385Y-62497379D01*
X112583379Y-62497381D01*
X112451349Y-62552069D01*
X112451340Y-62552074D01*
X112332521Y-62631467D01*
X112332517Y-62631470D01*
X112231470Y-62732517D01*
X112231467Y-62732521D01*
X112152074Y-62851340D01*
X112152069Y-62851349D01*
X112097381Y-62983379D01*
X112097379Y-62983385D01*
X112069500Y-63123542D01*
X112069500Y-63123545D01*
X112069500Y-63266455D01*
X112069500Y-63266457D01*
X112069499Y-63266457D01*
X105955500Y-63266457D01*
X105955500Y-63218542D01*
X105955499Y-63218540D01*
X105940204Y-63141644D01*
X105927620Y-63078385D01*
X105927619Y-63078384D01*
X105927619Y-63078380D01*
X105872929Y-62946347D01*
X105844582Y-62903923D01*
X105823705Y-62837248D01*
X105842189Y-62769867D01*
X105844585Y-62766140D01*
X105852929Y-62753653D01*
X105907619Y-62621620D01*
X105932332Y-62497381D01*
X105935500Y-62481457D01*
X105935500Y-62338542D01*
X105907620Y-62198385D01*
X105907619Y-62198384D01*
X105907619Y-62198380D01*
X105852929Y-62066347D01*
X105852928Y-62066346D01*
X105852925Y-62066340D01*
X105773532Y-61947521D01*
X105773529Y-61947517D01*
X105672482Y-61846470D01*
X105672478Y-61846467D01*
X105553659Y-61767074D01*
X105553650Y-61767069D01*
X105421620Y-61712381D01*
X105421614Y-61712379D01*
X105281457Y-61684500D01*
X105281455Y-61684500D01*
X105138545Y-61684500D01*
X105138543Y-61684500D01*
X104998385Y-61712379D01*
X104998379Y-61712381D01*
X104866349Y-61767069D01*
X104866340Y-61767074D01*
X104747521Y-61846467D01*
X104747517Y-61846470D01*
X104646470Y-61947517D01*
X104646467Y-61947521D01*
X104567074Y-62066340D01*
X104567069Y-62066349D01*
X104512381Y-62198379D01*
X104512379Y-62198385D01*
X104484500Y-62338542D01*
X104484500Y-62338545D01*
X104484500Y-62481455D01*
X104484500Y-62481457D01*
X104484499Y-62481457D01*
X103730500Y-62481457D01*
X103730500Y-62401456D01*
X103721586Y-62356645D01*
X103721586Y-62356644D01*
X103692052Y-62208172D01*
X103692051Y-62208165D01*
X103670237Y-62155500D01*
X103616635Y-62026092D01*
X103616628Y-62026079D01*
X103507139Y-61862218D01*
X103507136Y-61862214D01*
X103367785Y-61722863D01*
X103367781Y-61722860D01*
X103203920Y-61613371D01*
X103203909Y-61613365D01*
X103202037Y-61612590D01*
X103201208Y-61611921D01*
X103198544Y-61610498D01*
X103198814Y-61609992D01*
X103187309Y-61600720D01*
X103169968Y-61593169D01*
X103160669Y-61579248D01*
X103147637Y-61568745D01*
X103141665Y-61550799D01*
X103131158Y-61535069D01*
X103126160Y-61504202D01*
X103125577Y-61502449D01*
X103125550Y-61501457D01*
X111664499Y-61501457D01*
X111692379Y-61641614D01*
X111692381Y-61641620D01*
X111747069Y-61773650D01*
X111747074Y-61773659D01*
X111826467Y-61892478D01*
X111826470Y-61892482D01*
X111927517Y-61993529D01*
X111927521Y-61993532D01*
X112046340Y-62072925D01*
X112046346Y-62072928D01*
X112046347Y-62072929D01*
X112178380Y-62127619D01*
X112178384Y-62127619D01*
X112178385Y-62127620D01*
X112318542Y-62155500D01*
X112318545Y-62155500D01*
X112461457Y-62155500D01*
X112555751Y-62136742D01*
X112601620Y-62127619D01*
X112733653Y-62072929D01*
X112852479Y-61993532D01*
X112953532Y-61892479D01*
X113032929Y-61773653D01*
X113087619Y-61641620D01*
X113114954Y-61504202D01*
X113115500Y-61501457D01*
X113115500Y-61358542D01*
X113087620Y-61218385D01*
X113087619Y-61218384D01*
X113087619Y-61218380D01*
X113032929Y-61086347D01*
X113032928Y-61086346D01*
X113032925Y-61086340D01*
X112953532Y-60967521D01*
X112953529Y-60967517D01*
X112852482Y-60866470D01*
X112852478Y-60866467D01*
X112733659Y-60787074D01*
X112733650Y-60787069D01*
X112601620Y-60732381D01*
X112601614Y-60732379D01*
X112461457Y-60704500D01*
X112461455Y-60704500D01*
X112318545Y-60704500D01*
X112318543Y-60704500D01*
X112178385Y-60732379D01*
X112178379Y-60732381D01*
X112046349Y-60787069D01*
X112046340Y-60787074D01*
X111927521Y-60866467D01*
X111927517Y-60866470D01*
X111826470Y-60967517D01*
X111826467Y-60967521D01*
X111747074Y-61086340D01*
X111747069Y-61086349D01*
X111692381Y-61218379D01*
X111692379Y-61218385D01*
X111664500Y-61358542D01*
X111664500Y-61358545D01*
X111664500Y-61501455D01*
X111664500Y-61501457D01*
X111664499Y-61501457D01*
X103125550Y-61501457D01*
X103125520Y-61500370D01*
X103103928Y-60281457D01*
X113014499Y-60281457D01*
X113042379Y-60421614D01*
X113042381Y-60421620D01*
X113097069Y-60553650D01*
X113097074Y-60553659D01*
X113176467Y-60672478D01*
X113176470Y-60672482D01*
X113277517Y-60773529D01*
X113277521Y-60773532D01*
X113396340Y-60852925D01*
X113396346Y-60852928D01*
X113396347Y-60852929D01*
X113528380Y-60907619D01*
X113528384Y-60907619D01*
X113528385Y-60907620D01*
X113668542Y-60935500D01*
X113668545Y-60935500D01*
X113811457Y-60935500D01*
X113905751Y-60916742D01*
X113951620Y-60907619D01*
X114083653Y-60852929D01*
X114202479Y-60773532D01*
X114303532Y-60672479D01*
X114382929Y-60553653D01*
X114430349Y-60439170D01*
X114474190Y-60384768D01*
X114497452Y-60372065D01*
X114543653Y-60352929D01*
X114662479Y-60273532D01*
X114763532Y-60172479D01*
X114824351Y-60081457D01*
X115394499Y-60081457D01*
X115422379Y-60221614D01*
X115422381Y-60221620D01*
X115477069Y-60353650D01*
X115477074Y-60353659D01*
X115556467Y-60472478D01*
X115556470Y-60472482D01*
X115657517Y-60573529D01*
X115657521Y-60573532D01*
X115776340Y-60652925D01*
X115776346Y-60652928D01*
X115776347Y-60652929D01*
X115908380Y-60707619D01*
X115908384Y-60707619D01*
X115908385Y-60707620D01*
X116048542Y-60735500D01*
X116048545Y-60735500D01*
X116191457Y-60735500D01*
X116285751Y-60716742D01*
X116331620Y-60707619D01*
X116463653Y-60652929D01*
X116582479Y-60573532D01*
X116683532Y-60472479D01*
X116762929Y-60353653D01*
X116817619Y-60221620D01*
X116845500Y-60081455D01*
X116845500Y-59938545D01*
X116845500Y-59938542D01*
X116817620Y-59798385D01*
X116817619Y-59798384D01*
X116817619Y-59798380D01*
X116762929Y-59666347D01*
X116762928Y-59666346D01*
X116762925Y-59666340D01*
X116683532Y-59547521D01*
X116683529Y-59547517D01*
X116582482Y-59446470D01*
X116582478Y-59446467D01*
X116463659Y-59367074D01*
X116463650Y-59367069D01*
X116331620Y-59312381D01*
X116331614Y-59312379D01*
X116191457Y-59284500D01*
X116191455Y-59284500D01*
X116048545Y-59284500D01*
X116048543Y-59284500D01*
X115908385Y-59312379D01*
X115908379Y-59312381D01*
X115776349Y-59367069D01*
X115776340Y-59367074D01*
X115657521Y-59446467D01*
X115657517Y-59446470D01*
X115556470Y-59547517D01*
X115556467Y-59547521D01*
X115477074Y-59666340D01*
X115477069Y-59666349D01*
X115422381Y-59798379D01*
X115422379Y-59798385D01*
X115394500Y-59938542D01*
X115394500Y-59938545D01*
X115394500Y-60081455D01*
X115394500Y-60081457D01*
X115394499Y-60081457D01*
X114824351Y-60081457D01*
X114842929Y-60053653D01*
X114897619Y-59921620D01*
X114925500Y-59781455D01*
X114925500Y-59638545D01*
X114925500Y-59638542D01*
X114897620Y-59498385D01*
X114897619Y-59498384D01*
X114897619Y-59498380D01*
X114842929Y-59366347D01*
X114842928Y-59366346D01*
X114842925Y-59366340D01*
X114763532Y-59247521D01*
X114763529Y-59247517D01*
X114662482Y-59146470D01*
X114662478Y-59146467D01*
X114543659Y-59067074D01*
X114543650Y-59067069D01*
X114411620Y-59012381D01*
X114411614Y-59012379D01*
X114271457Y-58984500D01*
X114271455Y-58984500D01*
X114128545Y-58984500D01*
X114128543Y-58984500D01*
X113988385Y-59012379D01*
X113988379Y-59012381D01*
X113856349Y-59067069D01*
X113856340Y-59067074D01*
X113737521Y-59146467D01*
X113737517Y-59146470D01*
X113636470Y-59247517D01*
X113636467Y-59247521D01*
X113557074Y-59366340D01*
X113557069Y-59366350D01*
X113509651Y-59480827D01*
X113465810Y-59535230D01*
X113442544Y-59547934D01*
X113396355Y-59567066D01*
X113396340Y-59567074D01*
X113277521Y-59646467D01*
X113277517Y-59646470D01*
X113176470Y-59747517D01*
X113176467Y-59747521D01*
X113097074Y-59866340D01*
X113097069Y-59866349D01*
X113042381Y-59998379D01*
X113042379Y-59998385D01*
X113014500Y-60138542D01*
X113014500Y-60138545D01*
X113014500Y-60281455D01*
X113014500Y-60281457D01*
X113014499Y-60281457D01*
X103103928Y-60281457D01*
X103058934Y-57741457D01*
X104244499Y-57741457D01*
X104272379Y-57881614D01*
X104272381Y-57881620D01*
X104327070Y-58013652D01*
X104371088Y-58079529D01*
X104391966Y-58146207D01*
X104389604Y-58172610D01*
X104374500Y-58248545D01*
X104374500Y-58391455D01*
X104374500Y-58391457D01*
X104374499Y-58391457D01*
X104402379Y-58531614D01*
X104402381Y-58531620D01*
X104457069Y-58663650D01*
X104457074Y-58663659D01*
X104536467Y-58782478D01*
X104536470Y-58782482D01*
X104637517Y-58883529D01*
X104637521Y-58883532D01*
X104756340Y-58962925D01*
X104756346Y-58962928D01*
X104756347Y-58962929D01*
X104888380Y-59017619D01*
X104888384Y-59017619D01*
X104888385Y-59017620D01*
X105028542Y-59045500D01*
X105028545Y-59045500D01*
X105171457Y-59045500D01*
X105284945Y-59022925D01*
X105311620Y-59017619D01*
X105443653Y-58962929D01*
X105562479Y-58883532D01*
X105663532Y-58782479D01*
X105742929Y-58663653D01*
X105797619Y-58531620D01*
X105806742Y-58485751D01*
X105813564Y-58451457D01*
X108384499Y-58451457D01*
X108412379Y-58591614D01*
X108412381Y-58591620D01*
X108467069Y-58723650D01*
X108467074Y-58723659D01*
X108546467Y-58842478D01*
X108546470Y-58842482D01*
X108647517Y-58943529D01*
X108647521Y-58943532D01*
X108766340Y-59022925D01*
X108766346Y-59022928D01*
X108766347Y-59022929D01*
X108898380Y-59077619D01*
X108898384Y-59077619D01*
X108898385Y-59077620D01*
X109038542Y-59105500D01*
X109038545Y-59105500D01*
X109181457Y-59105500D01*
X109275751Y-59086742D01*
X109321620Y-59077619D01*
X109453653Y-59022929D01*
X109572479Y-58943532D01*
X109673532Y-58842479D01*
X109752929Y-58723653D01*
X109807619Y-58591620D01*
X109819555Y-58531614D01*
X109835500Y-58451457D01*
X109835500Y-58321457D01*
X110624499Y-58321457D01*
X110652379Y-58461614D01*
X110652381Y-58461620D01*
X110707069Y-58593650D01*
X110707074Y-58593659D01*
X110786467Y-58712478D01*
X110786470Y-58712482D01*
X110887517Y-58813529D01*
X110887521Y-58813532D01*
X111006340Y-58892925D01*
X111006346Y-58892928D01*
X111006347Y-58892929D01*
X111138380Y-58947619D01*
X111138384Y-58947619D01*
X111138385Y-58947620D01*
X111278542Y-58975500D01*
X111278545Y-58975500D01*
X111421457Y-58975500D01*
X111515751Y-58956742D01*
X111561620Y-58947619D01*
X111693653Y-58892929D01*
X111812479Y-58813532D01*
X111913532Y-58712479D01*
X111992929Y-58593653D01*
X112047619Y-58461620D01*
X112069094Y-58353659D01*
X112075500Y-58321457D01*
X112075500Y-58178542D01*
X112056188Y-58081457D01*
X113524499Y-58081457D01*
X113552379Y-58221614D01*
X113552381Y-58221620D01*
X113607069Y-58353650D01*
X113607074Y-58353659D01*
X113686467Y-58472478D01*
X113686470Y-58472482D01*
X113787517Y-58573529D01*
X113787521Y-58573532D01*
X113906340Y-58652925D01*
X113906346Y-58652928D01*
X113906347Y-58652929D01*
X114038380Y-58707619D01*
X114038384Y-58707619D01*
X114038385Y-58707620D01*
X114178542Y-58735500D01*
X114178545Y-58735500D01*
X114321457Y-58735500D01*
X114437172Y-58712482D01*
X114461620Y-58707619D01*
X114593653Y-58652929D01*
X114712479Y-58573532D01*
X114813532Y-58472479D01*
X114892929Y-58353653D01*
X114947619Y-58221620D01*
X114970144Y-58108380D01*
X114975500Y-58081457D01*
X114975500Y-57938542D01*
X114947620Y-57798385D01*
X114947619Y-57798384D01*
X114947619Y-57798380D01*
X114892929Y-57666347D01*
X114892928Y-57666346D01*
X114892925Y-57666340D01*
X114813532Y-57547521D01*
X114813529Y-57547517D01*
X114712482Y-57446470D01*
X114712478Y-57446467D01*
X114593659Y-57367074D01*
X114593650Y-57367069D01*
X114461620Y-57312381D01*
X114461614Y-57312379D01*
X114321457Y-57284500D01*
X114321455Y-57284500D01*
X114178545Y-57284500D01*
X114178543Y-57284500D01*
X114038385Y-57312379D01*
X114038379Y-57312381D01*
X113906349Y-57367069D01*
X113906340Y-57367074D01*
X113787521Y-57446467D01*
X113787517Y-57446470D01*
X113686470Y-57547517D01*
X113686467Y-57547521D01*
X113607074Y-57666340D01*
X113607069Y-57666349D01*
X113552381Y-57798379D01*
X113552379Y-57798385D01*
X113524500Y-57938542D01*
X113524500Y-57938545D01*
X113524500Y-58081455D01*
X113524500Y-58081457D01*
X113524499Y-58081457D01*
X112056188Y-58081457D01*
X112047620Y-58038385D01*
X112047619Y-58038384D01*
X112047619Y-58038380D01*
X111994636Y-57910468D01*
X111992932Y-57906353D01*
X111992925Y-57906340D01*
X111913532Y-57787521D01*
X111913529Y-57787517D01*
X111812482Y-57686470D01*
X111812478Y-57686467D01*
X111693659Y-57607074D01*
X111693650Y-57607069D01*
X111561620Y-57552381D01*
X111561614Y-57552379D01*
X111421457Y-57524500D01*
X111421455Y-57524500D01*
X111278545Y-57524500D01*
X111278543Y-57524500D01*
X111138385Y-57552379D01*
X111138379Y-57552381D01*
X111006349Y-57607069D01*
X111006340Y-57607074D01*
X110887521Y-57686467D01*
X110887517Y-57686470D01*
X110786470Y-57787517D01*
X110786467Y-57787521D01*
X110707074Y-57906340D01*
X110707069Y-57906349D01*
X110652381Y-58038379D01*
X110652379Y-58038385D01*
X110624500Y-58178542D01*
X110624500Y-58178545D01*
X110624500Y-58321455D01*
X110624500Y-58321457D01*
X110624499Y-58321457D01*
X109835500Y-58321457D01*
X109835500Y-58308542D01*
X109835499Y-58308540D01*
X109814595Y-58203447D01*
X109814593Y-58203441D01*
X109807619Y-58168380D01*
X109789593Y-58124864D01*
X109788003Y-58119864D01*
X109787332Y-58089976D01*
X109784137Y-58060255D01*
X109786532Y-58054322D01*
X109786436Y-58050012D01*
X109791847Y-58041162D01*
X109803066Y-58013378D01*
X109822929Y-57983653D01*
X109877619Y-57851620D01*
X109905500Y-57711455D01*
X109905500Y-57568545D01*
X109905500Y-57568542D01*
X109877620Y-57428385D01*
X109877619Y-57428384D01*
X109877619Y-57428380D01*
X109822929Y-57296347D01*
X109822928Y-57296346D01*
X109822925Y-57296340D01*
X109743532Y-57177521D01*
X109743529Y-57177517D01*
X109642482Y-57076470D01*
X109642478Y-57076467D01*
X109523659Y-56997074D01*
X109523650Y-56997069D01*
X109391620Y-56942381D01*
X109391614Y-56942379D01*
X109251457Y-56914500D01*
X109251455Y-56914500D01*
X109108545Y-56914500D01*
X109108543Y-56914500D01*
X108968385Y-56942379D01*
X108968379Y-56942381D01*
X108836349Y-56997069D01*
X108836340Y-56997074D01*
X108717521Y-57076467D01*
X108717517Y-57076470D01*
X108616470Y-57177517D01*
X108616467Y-57177521D01*
X108537074Y-57296340D01*
X108537069Y-57296349D01*
X108482381Y-57428379D01*
X108482379Y-57428385D01*
X108454500Y-57568542D01*
X108454500Y-57568545D01*
X108454500Y-57711455D01*
X108454500Y-57711457D01*
X108454499Y-57711457D01*
X108482379Y-57851614D01*
X108482381Y-57851620D01*
X108494807Y-57881620D01*
X108498393Y-57890276D01*
X108505862Y-57959746D01*
X108486934Y-58006620D01*
X108467070Y-58036347D01*
X108412381Y-58168379D01*
X108412379Y-58168385D01*
X108384500Y-58308542D01*
X108384500Y-58308545D01*
X108384500Y-58451455D01*
X108384500Y-58451457D01*
X108384499Y-58451457D01*
X105813564Y-58451457D01*
X105825500Y-58391457D01*
X105825500Y-58248542D01*
X105797620Y-58108385D01*
X105797619Y-58108384D01*
X105797619Y-58108380D01*
X105745955Y-57983653D01*
X105742930Y-57976349D01*
X105742925Y-57976341D01*
X105726333Y-57951510D01*
X105698909Y-57910467D01*
X105678032Y-57843791D01*
X105680393Y-57817395D01*
X105695500Y-57741455D01*
X105695500Y-57598545D01*
X105695500Y-57598542D01*
X105667620Y-57458385D01*
X105667619Y-57458384D01*
X105667619Y-57458380D01*
X105612929Y-57326347D01*
X105612928Y-57326346D01*
X105612925Y-57326340D01*
X105533532Y-57207521D01*
X105533529Y-57207517D01*
X105432482Y-57106470D01*
X105432478Y-57106467D01*
X105313659Y-57027074D01*
X105313650Y-57027069D01*
X105181620Y-56972381D01*
X105181614Y-56972379D01*
X105041457Y-56944500D01*
X105041455Y-56944500D01*
X104898545Y-56944500D01*
X104898543Y-56944500D01*
X104758385Y-56972379D01*
X104758379Y-56972381D01*
X104626349Y-57027069D01*
X104626340Y-57027074D01*
X104507521Y-57106467D01*
X104507517Y-57106470D01*
X104406470Y-57207517D01*
X104406467Y-57207521D01*
X104327074Y-57326340D01*
X104327069Y-57326349D01*
X104272381Y-57458379D01*
X104272379Y-57458385D01*
X104244500Y-57598542D01*
X104244500Y-57598545D01*
X104244500Y-57741455D01*
X104244500Y-57741457D01*
X104244499Y-57741457D01*
X103058934Y-57741457D01*
X103008821Y-54912494D01*
X103027315Y-54845122D01*
X103079300Y-54798439D01*
X103085304Y-54795761D01*
X103203914Y-54746632D01*
X103367782Y-54637139D01*
X103507139Y-54497782D01*
X103616632Y-54333914D01*
X103692051Y-54151835D01*
X103721399Y-54004292D01*
X103730171Y-53960196D01*
X103762556Y-53898285D01*
X103823271Y-53863711D01*
X103852042Y-53860388D01*
X104788094Y-53862383D01*
G37*
%TD.AperFunction*%
%TD*%
M02*
